<svg width="240" height="189" viewBox="0 0 240 189" fill="none" xmlns="http://www.w3.org/2000/svg">
<path fill-rule="evenodd" clip-rule="evenodd" d="M149.751 0.0225112C146.098 0.0360494 137.913 0.0910893 131.562 0.144847C118.689 0.253844 119.288 0.218666 117.784 0.954375C116.644 1.51201 115.499 2.63548 114.976 3.70797C114.269 5.15992 114.302 4.61878 114.315 14.7757C114.321 19.8031 114.272 29.7206 114.207 36.8146C114.094 48.9664 114.097 49.7575 114.259 50.486C114.673 52.339 116.037 54.0851 117.691 54.8782C119.318 55.6588 118.453 55.6228 134.039 55.5572C141.645 55.5251 150.566 55.4497 153.864 55.3896C157.163 55.3295 164.054 55.2453 169.179 55.2026C177.654 55.132 178.545 55.1094 179.041 54.9517C180.663 54.4361 182.037 53.3068 182.777 51.8823C183.445 50.5942 183.479 50.3508 183.546 46.299C183.76 33.5075 183.908 20.81 183.926 13.6887C183.947 5.85847 183.938 5.40706 183.761 4.84439C183.062 2.6178 181.498 1.01772 179.289 0.270548L178.496 0.00225161L167.444 8.02925e-05C161.365 -0.00100672 153.403 0.00907182 149.751 0.0225112ZM70.7453 0.590323C70.6154 0.787961 70.5923 1.0615 70.6192 2.08072C70.6482 3.18028 70.6751 3.3457 70.8446 3.46912C71.1113 3.6633 71.3605 3.64413 71.5938 3.41151C71.7716 3.23423 71.7921 3.08214 71.7921 1.93624C71.7921 0.522335 71.7262 0.348118 71.1926 0.348118C70.9963 0.348118 70.8539 0.425295 70.7453 0.590323ZM141.772 1.0445C151.503 1.10152 163.724 1.15725 168.931 1.16842C178.306 1.18838 178.402 1.19055 178.944 1.39758C180.965 2.16945 182.198 3.48009 182.652 5.33848C182.77 5.82349 182.815 7.78337 182.898 16.1098C182.953 21.7079 183.075 31.4754 183.169 37.8155C183.36 50.7875 183.381 50.219 182.644 51.711C182.148 52.7147 181.065 53.8191 180.082 54.325C178.68 55.046 178.894 55.0292 171.359 55.008C167.652 54.9977 159.869 54.9206 154.063 54.8368C148.257 54.7529 138.064 54.6521 131.413 54.6127L119.321 54.541L118.726 54.308C116.838 53.5685 115.439 51.9968 115.059 50.1905C114.857 49.2278 114.689 32.6028 114.73 17.6909C114.766 4.28398 114.711 5.37821 115.43 3.95502C115.87 3.08521 117.041 1.95897 117.99 1.49373C119.107 0.946173 119.858 0.837769 122.146 0.893602C123.209 0.919492 132.04 0.987478 141.772 1.0445ZM78.0833 2.22074C77.9001 2.29476 76.9145 3.91401 76.714 4.47036C76.5202 5.00803 77.2856 5.45064 77.6596 5.01732C77.9707 4.65713 78.8544 2.96534 78.8544 2.73025C78.8544 2.59517 78.7547 2.40415 78.6328 2.30572C78.3872 2.10749 78.37 2.10483 78.0833 2.22074ZM63.7161 2.35987C63.4122 2.58153 63.5007 3.00714 64.0581 4.00443C64.6402 5.04578 64.7733 5.19025 65.15 5.19025C65.7918 5.19025 65.8011 4.66355 65.1795 3.52555C64.4979 2.27776 64.1782 2.0231 63.7161 2.35987ZM69.4131 4.65198C65.965 5.38908 63.2747 7.99602 62.4635 11.3861C62.1786 12.5767 62.2328 14.8569 62.5711 15.9121C62.9152 16.9851 63.4012 17.8929 64.2496 19.0465C65.7856 21.1352 66.5382 23.0223 66.7894 25.4141C66.85 25.9913 66.8415 26.0259 66.6216 26.0926C65.5821 26.4079 65.0452 27.7278 65.553 28.72L65.7567 29.1182L65.553 29.5378C64.971 30.7361 65.7235 32.1188 67.0251 32.2435C67.5011 32.2891 67.5074 32.2943 67.5593 32.6797C67.6949 33.6874 68.617 34.8744 69.6609 35.385C70.1924 35.645 70.3558 35.6759 71.1973 35.6759C72.0098 35.6759 72.2161 35.6399 72.7015 35.4131C73.8945 34.8556 74.5957 33.9417 74.9073 32.5384C74.9569 32.3154 75.0212 32.2667 75.2663 32.2667C76.6563 32.2667 77.5646 30.6035 76.8055 29.4484C76.6547 29.219 76.6581 29.1777 76.8592 28.7845C77.103 28.3082 77.1462 27.5056 76.9486 27.1233C76.7418 26.723 76.2375 26.2491 75.9005 26.1382C75.594 26.0374 75.5852 26.0191 75.628 25.5681C75.7704 24.07 76.2374 22.409 76.8706 21.1495C77.1632 20.5676 77.8775 19.4588 78.5896 18.4814C79.0866 17.7992 79.6872 16.5132 79.9381 15.5943C80.2205 14.5601 80.2473 12.3703 79.9893 11.4159C79.6805 10.2736 79.3158 9.44649 78.7339 8.56918C77.3375 6.46364 75.429 5.16763 72.9503 4.64181C72.1076 4.46305 70.2721 4.46828 69.4131 4.65198ZM73.1797 5.79878C74.7152 6.18339 76.2394 7.15033 77.2477 8.37964C77.9031 9.17889 78.6699 10.7573 78.885 11.7502C79.0125 12.3393 79.0418 12.8208 79.0048 13.7265C78.9296 15.572 78.5103 16.644 77.0675 18.6791C75.7209 20.5787 74.8874 22.6271 74.5831 24.7852L74.4188 25.9504L73.8736 25.9216L73.3284 25.8929L73.3343 23.5212C73.3404 20.9757 73.4592 19.8642 73.9255 17.9875C74.0605 17.4442 74.171 16.9055 74.171 16.7903C74.171 16.4209 73.8118 16.089 73.2728 15.9601C72.8899 15.8685 72.6294 15.7103 72.1827 15.298C71.3787 14.5559 71.0914 14.5459 70.4273 15.2364C69.9589 15.7234 69.6457 15.8813 68.9024 16.0053C68.5045 16.0717 68.2237 16.3925 68.2237 16.7807C68.2237 16.909 68.3292 17.323 68.458 17.7007C69.1905 19.8478 69.4794 22.6793 69.2281 25.2505L69.1653 25.8929L68.5542 25.9221L67.9431 25.9513L67.8787 25.2798C67.6514 22.9096 66.8269 20.7378 65.4481 18.8767C64.0812 17.0317 63.575 15.9027 63.3673 14.2359C63.205 12.9346 63.4324 11.5344 64.0116 10.2674C65.6532 6.67639 69.3975 4.85141 73.1797 5.79878ZM82.3485 7.98654C81.3366 8.5585 81.2558 8.62629 81.2266 8.92878C81.1529 9.69028 81.6427 9.72012 82.9056 9.03126C84.0498 8.40721 84.1822 8.29475 84.1822 7.9475C84.1822 7.66172 83.876 7.36161 83.5901 7.36724C83.5069 7.36892 82.9481 7.64759 82.3485 7.98654ZM58.4756 7.64383C58.2617 7.87952 58.2663 8.28211 58.485 8.47382C58.8298 8.77581 60.5194 9.66182 60.7505 9.66182C61.1191 9.66182 61.2993 9.45311 61.2655 9.06535C61.2373 8.7428 61.175 8.68904 60.1453 8.09919C58.9747 7.42871 58.7312 7.3623 58.4756 7.64383ZM134.288 9.15409C130.962 9.19648 127.456 9.27198 126.496 9.32188C124.921 9.4038 124.692 9.43879 124.166 9.67793C123.4 10.0264 122.631 10.7899 122.277 11.5537L121.997 12.157L121.935 16.258C121.901 18.5135 121.841 21.7375 121.802 23.4224C121.733 26.3517 121.739 26.5106 121.932 27.0523C122.323 28.1513 122.98 28.8571 124.095 29.3778L124.673 29.648L127.994 29.6327C129.82 29.6242 133.076 29.5464 135.23 29.4598C137.383 29.3733 140.059 29.302 141.177 29.3015C142.294 29.301 143.493 29.2547 143.839 29.1987C145.274 28.9665 146.288 28.1165 146.776 26.7355C147.052 25.957 147.507 13.7127 147.307 12.462C147.05 10.8511 145.91 9.61478 144.296 9.19569C143.65 9.028 144.044 9.02967 134.288 9.15409ZM132.95 10.1323C136.303 10.1891 140.161 10.2454 141.524 10.2575C144.344 10.2825 144.546 10.3283 145.34 11.1194C146.138 11.9148 146.165 12.0469 146.245 15.5169C146.284 17.2017 146.369 19.692 146.434 21.0507C146.499 22.4095 146.558 24.2327 146.565 25.1023C146.578 26.5982 146.566 26.71 146.334 27.1775C146.02 27.8118 145.326 28.5021 144.696 28.807C144.243 29.0258 144.053 29.05 142.515 29.0846C141.588 29.1055 138.845 29.0473 136.419 28.9554C133.993 28.8635 130.402 28.7594 128.44 28.724L124.871 28.6598L124.305 28.3825C123.613 28.0438 123.013 27.3876 122.747 26.6789C122.574 26.2176 122.535 25.7371 122.439 22.8598C122.379 21.0495 122.344 17.9231 122.361 15.9121L122.393 12.2558L122.657 11.7578C122.914 11.2729 123.591 10.5625 124.009 10.3392C124.514 10.0697 125.284 9.93564 126.061 9.98179C126.497 10.0077 129.597 10.0754 132.95 10.1323ZM127.467 15.9121C127.431 16.8904 127.372 19.2315 127.336 21.1144L127.271 24.5378L127.806 24.5768C128.729 24.6441 138.986 24.4595 139.372 24.3687C139.708 24.2896 139.68 24.2801 139.046 24.2586C138.664 24.2456 137.623 24.2078 136.732 24.1746L135.112 24.1141L135.126 21.3556C135.133 19.8383 135.162 18.5599 135.19 18.5145C135.218 18.4692 135.657 18.432 136.165 18.432H137.089L137.149 19.2473C137.181 19.6957 137.236 20.8407 137.271 21.7919C137.306 22.743 137.367 23.582 137.408 23.6564C137.448 23.7307 137.51 23.0637 137.546 22.1741C137.581 21.2844 137.638 19.9741 137.672 19.2621L137.733 17.9677L137.41 17.9033C137.233 17.8681 136.536 17.8391 135.861 17.8391H134.635V18.7813V19.7236L133.619 19.6954L132.603 19.6673L132.639 17.9626L132.675 16.258H131.111H129.547L129.611 20.1613L129.675 24.0647H128.785H127.895L127.895 23.2494C127.895 21.3979 127.677 14.7044 127.607 14.4298C127.56 14.2424 127.508 14.7872 127.467 15.9121ZM82.9982 14.7418C82.8648 14.911 82.8128 15.078 82.8523 15.2112C82.9704 15.6096 83.1692 15.6651 84.4796 15.6651C85.9019 15.6651 86.0985 15.593 86.0985 15.0722C86.0985 14.5504 85.9028 14.4792 84.4678 14.4792C83.2193 14.4792 83.2031 14.4821 82.9982 14.7418ZM56.6486 14.7319C56.3765 14.9219 56.3563 15.3719 56.6096 15.6004C56.7578 15.7341 57.0157 15.7639 58.0247 15.7639C59.4239 15.7639 59.6993 15.6664 59.6993 15.171C59.6993 14.679 59.421 14.5781 58.0638 14.5781C57.1427 14.5781 56.8184 14.6133 56.6486 14.7319ZM72.5533 17.0191C72.9395 17.1753 72.9863 17.2266 72.94 17.4438C72.3663 20.138 72.151 22.1704 72.2026 24.4058L72.2382 25.9423L71.346 25.9421L70.4539 25.9418L70.4493 23.4963C70.4441 20.8485 70.294 19.6344 69.7676 17.9816L69.528 17.2296L69.8918 17.0879C70.5126 16.8463 70.8807 16.637 71.1065 16.3974L71.3236 16.167L71.7189 16.5043C71.9363 16.6897 72.3118 16.9215 72.5533 17.0191ZM132.073 17.3203C132.081 17.5784 132.092 19.203 132.098 20.9303L132.108 24.0709L131.067 24.0431C130.494 24.0278 130.031 23.9818 130.038 23.9409C130.045 23.9001 130.084 22.288 130.124 20.3587L130.197 16.8509H131.128H132.058L132.073 17.3203ZM134.58 20.3343C134.601 20.4023 134.644 21.2693 134.675 22.2613L134.733 24.0647H133.63H132.526L132.589 23.6062C132.624 23.3541 132.652 22.5125 132.652 21.7359C132.652 20.1101 132.556 20.2403 133.771 20.2222C134.31 20.2142 134.553 20.2479 134.58 20.3343ZM75.694 27.3329C76.0168 27.586 76.0352 27.9692 75.7397 28.2829L75.5241 28.5116H71.1872H66.8504L66.645 28.2512C66.3752 27.9093 66.3856 27.667 66.6829 27.3707L66.9261 27.1281H71.1795C75.3324 27.1281 75.439 27.1329 75.694 27.3329ZM160.753 27.6364C155.62 27.7369 154.787 27.7997 154.036 28.1423C152.931 28.6468 152.106 29.6924 151.883 30.872C151.826 31.1736 151.782 33.0585 151.782 35.22C151.781 37.3187 151.735 40.2558 151.68 41.747C151.605 43.7518 151.608 44.6014 151.692 45.008C151.97 46.3492 152.872 47.409 154.139 47.8816C154.657 48.0748 154.885 48.0873 157.821 48.0835C159.543 48.0812 162.624 48.0102 164.669 47.9258C166.713 47.8413 169.68 47.7409 171.262 47.7026L174.139 47.6331L174.793 47.3119C176.092 46.6743 176.741 45.6368 176.875 43.9813C177.003 42.4078 177.258 34.979 177.257 32.8453C177.257 31.1873 177.228 30.8124 177.06 30.276C176.696 29.1134 175.702 28.1188 174.515 27.7303C173.908 27.5316 173.705 27.524 169.4 27.5391C166.934 27.5478 163.043 27.5916 160.753 27.6364ZM165.957 28.6145C172.237 28.7044 173.724 28.7511 174.103 28.8708C174.847 29.1054 175.415 29.6047 175.781 30.3476L176.103 30.9984L176.178 34.523C176.219 36.4616 176.3 39.0037 176.357 40.1722C176.415 41.3408 176.472 42.8972 176.485 43.6309C176.507 44.89 176.494 44.9965 176.247 45.5257C175.878 46.3179 175.294 46.9103 174.556 47.2419C173.719 47.6174 172.95 47.6391 167.444 47.442C165.018 47.3551 161.182 47.238 158.92 47.1818L154.806 47.0796L154.195 46.7861C153.487 46.4459 153.044 45.9848 152.695 45.2239C152.462 44.7182 152.44 44.5305 152.355 42.3043C152.305 40.9958 152.257 37.9019 152.247 35.4289L152.229 30.9326L152.507 30.3397C152.933 29.4296 153.576 28.8492 154.491 28.5476C154.804 28.4447 155.318 28.4226 156.59 28.4579C157.517 28.4836 161.732 28.5541 165.957 28.6145ZM75.4468 29.7078C76.0077 29.9027 76.1396 30.5266 75.694 30.876C75.439 31.076 75.3324 31.0809 71.1795 31.0809H66.9261L66.6829 30.8383C66.549 30.7049 66.4395 30.5147 66.4395 30.4156C66.4395 30.1699 66.7124 29.8004 66.9705 29.6966C67.2961 29.5656 75.0673 29.5758 75.4468 29.7078ZM73.7721 32.5714C73.4174 33.8043 72.1978 34.6381 70.9374 34.5095C69.8581 34.3992 68.9354 33.5929 68.6817 32.5384L68.6164 32.2667H71.2381H73.8597L73.7721 32.5714ZM163.88 32.6727C162.262 32.7619 161.995 32.7963 162.1 32.9013C162.123 32.9242 163.056 32.9971 164.173 33.0632C166.923 33.2259 172.995 33.086 172.995 32.86C172.995 32.6599 166.525 32.527 163.88 32.6727ZM158.92 35.1913C158.729 35.2127 158.238 35.2603 157.829 35.2972L157.086 35.3643L157.581 35.446C159.045 35.6873 166.051 35.7013 167.94 35.4668L168.584 35.3868L168.088 35.3065C167.576 35.2235 159.536 35.1225 158.92 35.1913ZM159.812 37.7543C159.675 37.7747 159.032 37.8205 158.381 37.8562C157.708 37.8932 157.26 37.9549 157.341 37.9998C157.79 38.2492 163.281 38.3674 166.318 38.193C169.718 37.9977 168.655 37.8313 163.578 37.7639C161.643 37.7382 159.948 37.7339 159.812 37.7543ZM158.192 40.4696C157.71 40.5151 157.294 40.5739 157.268 40.6002C157.133 40.7349 159.183 40.8145 162.785 40.8145C166.947 40.8145 168.657 40.7265 168.088 40.5414C167.71 40.4184 159.374 40.3579 158.192 40.4696ZM74.1214 40.7286C72.0733 40.9331 69.6066 41.5 67.6611 42.2135C65.182 43.1227 61.4702 45.1813 59.9471 46.4917C58.436 47.7918 57.5137 49.4584 57.2226 51.4148C57.1682 51.7806 57.0804 53.8142 57.0275 55.9339C56.9558 58.8028 56.8794 60.1764 56.7281 61.308C56.3766 63.939 55.6661 66.9079 54.7743 69.4721L54.3963 70.5591L52.7608 70.6199C49.3344 70.7472 46.7157 71.7097 44.1868 73.7713C41.1968 76.2087 39.2093 79.8419 38.1053 84.8879C36.5582 91.9599 34.4938 110.108 32.6929 132.469C32.6119 133.475 32.3446 136.788 32.0989 139.831C31.6531 145.353 31.0036 154.224 30.7026 158.903C30.6152 160.262 30.4409 162.93 30.3154 164.833C30.19 166.735 30.1023 168.318 30.1207 168.35C30.1391 168.383 30.6077 168.437 31.162 168.47C31.7164 168.504 32.1975 168.559 32.2311 168.593C32.3572 168.721 32.2631 171.861 32.1065 172.756C31.7921 174.553 31.3475 175.258 30.5293 175.258C29.0996 175.258 21.673 176.444 16.532 177.494C12.2842 178.361 7.99502 179.4 4.31732 180.453C1.73651 181.192 0.565784 181.616 0.237197 181.931L0 182.159L0.170195 182.834C0.372501 183.637 0.586104 184.006 1.13523 184.501C2.42272 185.66 4.99452 186.1 9.93481 186.004L12.655 185.951L13.0571 186.361C13.798 187.115 15.1185 187.572 17.2509 187.813C18.7651 187.984 29.0409 187.881 31.4498 187.671C37.4614 187.147 41.4477 186.249 43.3441 184.992C44.3802 184.305 44.6432 183.798 44.8446 182.1C44.9871 180.898 44.9021 176.79 44.6844 174.369C44.5195 172.533 44.061 168.529 43.9766 168.185C43.9309 167.999 44.0135 167.958 44.8494 167.755C45.3572 167.632 46.1073 167.403 46.5162 167.247C47.1391 167.01 47.5082 166.947 48.7937 166.857C54.1975 166.481 60.2146 165.079 65.2992 163.013C66.1168 162.681 66.7976 162.445 66.8122 162.488C66.8268 162.532 67.2449 163.188 67.7414 163.947C72.0789 170.576 77.5922 176.389 83.5123 180.576C85.0378 181.655 87.3921 183.067 89.1343 183.949C99.1851 189.033 109.882 189.397 120.956 185.033C123.737 183.937 129.059 181.109 130.983 179.705C131.751 179.145 134.662 176.26 136.42 174.317C143.922 166.025 150.799 156.128 157.24 144.352C157.426 144.013 157.602 143.735 157.632 143.735C157.678 143.735 164.396 151.003 166.344 153.161C166.693 153.547 167.477 154.397 168.086 155.049C168.695 155.702 170.124 157.25 171.261 158.491L173.329 160.747L174.486 160.678L175.642 160.609L176 161.196C176.433 161.907 176.858 162.802 176.859 163.004C176.859 163.086 176.549 163.321 176.166 163.529C175.785 163.736 175.473 163.945 175.473 163.993C175.473 164.041 175.559 164.227 175.663 164.407C175.992 164.97 176.101 165.853 176.038 167.433C175.968 169.181 175.826 170.001 175.175 172.392C174.447 175.068 174.343 175.684 174.34 177.333C174.338 179.006 174.492 179.825 175.097 181.335C175.746 182.958 175.716 183.891 174.968 185.332C174.758 185.737 174.596 186.076 174.608 186.087C174.62 186.098 177.396 186.402 180.776 186.764C184.156 187.125 188.259 187.568 189.895 187.747C191.53 187.926 192.897 188.057 192.932 188.039C192.968 188.021 192.951 187.827 192.895 187.607C192.839 187.388 192.82 187.181 192.852 187.149C192.9 187.101 196.923 187.501 201.368 187.994C201.736 188.035 202.037 188.035 202.037 187.994C202.037 187.953 201.967 187.594 201.881 187.197C201.691 186.316 201.661 184.938 201.82 184.389C202.08 183.495 202.718 182.844 203.717 182.454C204.178 182.274 204.468 182.24 205.506 182.24C206.993 182.241 208.194 182.47 210.165 183.125C211.669 183.626 211.955 183.761 213.258 184.588C217.331 187.172 222.861 187.92 228.651 186.672C231.123 186.138 234.222 185.068 235.198 184.411C236.252 183.701 237.157 182.423 237.414 181.278C237.469 181.033 237.628 179.367 237.766 177.576C237.904 175.785 238.039 174.225 238.066 174.11C238.093 173.995 238.317 173.736 238.563 173.534C239.348 172.893 239.513 172.215 239.068 171.462C238.849 171.093 238.16 170.491 237.671 170.242C237.562 170.187 235.265 169.531 232.567 168.785C228.39 167.631 227.56 167.371 226.99 167.04C224.434 165.556 221.764 164.792 218.937 164.736C217.468 164.708 217.258 164.679 216.077 164.349C212.63 163.384 209.98 162.194 206.785 160.177C205.132 159.134 201.651 156.564 201.645 156.383C201.644 156.356 202.073 156.112 202.597 155.84C203.122 155.568 204.018 155.044 204.588 154.676C205.593 154.027 205.62 154 205.483 153.787C204.33 152.005 202.131 148.004 201.078 145.773C198.652 140.636 197.318 136.842 196.395 132.452C195.483 128.114 194.11 124.459 191.332 118.98C189.102 114.582 187.989 112.59 181.172 100.798C180.041 98.8411 178.774 96.6351 178.356 95.8953L177.596 94.5505L177.667 93.7707C177.706 93.3419 177.744 92.613 177.751 92.1511C177.758 91.6891 177.795 91.135 177.834 90.9198C177.902 90.5334 177.913 90.5255 178.639 90.2986C179.044 90.1722 179.824 89.9971 180.373 89.9095C182.081 89.6365 183.479 89.9783 183.98 90.7914C184.089 90.9686 184.469 91.8917 184.824 92.8428C186.542 97.4446 189.837 104.67 191.923 108.407C193.855 111.868 195.459 113.658 196.944 114.009C197.428 114.124 197.459 114.152 197.872 114.874C198.543 116.046 199.535 117.489 200.217 118.287C201.721 120.044 202.985 120.43 203.868 119.402C204.394 118.789 204.622 117.955 204.686 116.411C204.749 114.87 204.86 115.338 202.276 106.282C198.792 94.0697 197.896 91.3288 196.277 87.9158C194.633 84.4508 192.995 83.1498 188.737 81.9255C186.554 81.2979 182.466 80.5892 181.028 80.5892C180.164 80.5892 180.146 80.5257 180.839 79.9006L181.462 79.3378L180.276 79.2177C176.499 78.8354 163.724 77.7438 154.162 76.9865C148.451 76.5341 138.156 75.8319 131.711 75.4551C123.807 74.9929 120.845 74.8508 110.598 74.4423C106.468 74.2777 89.3438 74.2728 86.9098 74.4357C85.9295 74.5013 85.0936 74.5212 85.0524 74.4801C84.8768 74.3051 84.4408 68.9399 84.3196 65.4629L84.2521 63.5288L84.8105 63.2147C85.4703 62.8434 85.8009 62.3894 86.0108 61.5666C86.2353 60.6859 86.5601 57.758 86.5606 56.6096C86.5613 55.0649 86.2052 53.5717 85.651 52.7958L85.4449 52.5072L86.0204 51.9477C86.7159 51.2715 87.1558 50.607 87.1558 50.2324C87.1558 49.7824 86.8748 49.5996 85.9828 49.4696C84.3173 49.2268 83.7871 48.8629 83.0445 47.4525C82.226 45.8981 81.0035 44.1657 79.3713 42.2474C78.5842 41.3225 77.9621 40.7278 78.5442 41.4569C80.4014 43.7833 81.7672 45.7765 82.5519 47.3061C83.4689 49.0933 84.1182 49.6242 85.6805 49.8642C86.663 50.0152 86.7811 50.0832 86.6513 50.4233C86.501 50.8173 85.9678 51.4281 85.3353 51.9306C85.0282 52.1746 84.7769 52.4226 84.7769 52.4816C84.7769 52.5407 84.884 52.6892 85.0147 52.8117C85.5715 53.3331 86.0547 54.9876 86.062 56.3976C86.0668 57.3082 85.6962 60.7467 85.5171 61.4533C85.3205 62.2291 85.0744 62.5435 84.4276 62.8451C84.1291 62.9843 83.634 63.2154 83.3275 63.3585C82.2043 63.883 80.6988 65.5982 79.548 67.6643C78.5811 69.4002 78.5967 69.3 78.7207 72.9536C78.7793 74.6802 78.8566 77.516 78.8925 79.2552L78.9578 82.4174L77.9693 83.3562C76.4963 84.7551 75.201 85.4232 73.9514 85.4288C73.429 85.4312 72.5438 85.2162 72.3576 85.0418C72.3143 85.0013 72.3262 84.6728 72.384 84.3119C72.662 82.5774 72.8968 79.3562 72.9505 76.5377C73.0619 70.7026 72.525 66.6434 71.1921 63.2447C70.7663 62.1589 70.6322 62.0112 70.073 62.0112C69.7004 62.0112 68.4939 61.3701 68.0448 60.9334C67.0228 59.94 66.5489 58.6897 66.4661 56.769C66.4185 55.6644 66.4348 55.479 66.6151 55.0727C66.9854 54.238 67.5613 54.1143 68.61 54.6441C69.0777 54.8804 69.0801 54.8806 69.4889 54.698C70.5321 54.2324 72.1874 52.8806 73.2065 51.6622C75.1472 49.3417 76.6727 46.2704 77.539 42.9392C77.7156 42.2598 77.9194 41.5048 77.9919 41.2613C78.0643 41.0179 78.1007 40.7961 78.073 40.7683C78.0112 40.7068 74.6755 40.6733 74.1214 40.7286ZM164.718 42.5542C163.682 42.5973 162.589 42.6717 162.29 42.7195L161.744 42.8061L162.637 42.8974C163.791 43.0153 171.189 43.0159 172.35 42.898C173.219 42.8099 173.231 42.8055 172.796 42.7257C172.329 42.6397 167.951 42.4367 167.097 42.4612C166.824 42.4691 165.754 42.5109 164.718 42.5542ZM79.92 47.4243C79.2481 47.5728 78.8365 47.7851 78.3218 48.2488C77.9572 48.5772 77.5546 49.1648 77.6941 49.1648C77.7266 49.1648 77.9516 49.0286 78.1943 48.8622C78.8634 48.4032 79.7779 48.0068 80.7389 47.7592C81.2153 47.6363 81.605 47.508 81.605 47.4739C81.605 47.4048 80.9711 47.2854 80.6634 47.2966C80.5544 47.3005 80.2198 47.3579 79.92 47.4243ZM25.8494 48.2819C17.8428 48.4022 15.8837 48.4905 15.1694 48.7635C14.3785 49.0656 13.5976 49.8008 13.1891 50.6277L12.8645 51.2846L12.7908 55.9809C12.7502 58.5638 12.6827 61.6555 12.6408 62.8512C12.5988 64.0469 12.5955 65.2651 12.6336 65.5582C12.7894 66.761 13.665 67.9105 14.8775 68.5041L15.4417 68.7803L18.0684 68.812C19.5131 68.8293 22.4347 68.7696 24.5608 68.6793C26.687 68.5889 29.8985 68.4809 31.6976 68.4391C35.3118 68.3553 35.4497 68.3329 36.337 67.6852C36.5991 67.494 36.9556 67.1363 37.1295 66.8904C37.7529 66.0088 37.7839 65.8355 37.9473 62.3236C38.1554 57.8516 38.2799 52.2541 38.1842 51.674C37.9342 50.1573 36.9593 48.9651 35.5494 48.4519C34.8189 48.186 33.6255 48.165 25.8494 48.2819ZM28.4377 49.3577C34.4984 49.4361 34.8135 49.4492 35.2449 49.6394C35.8856 49.922 36.5423 50.5631 36.8107 51.1681C37.0277 51.6571 37.0438 51.8464 37.1119 54.7196C37.1516 56.3888 37.258 59.4299 37.3485 61.4775C37.439 63.5251 37.483 65.3611 37.4461 65.5576C37.2473 66.616 36.3699 67.6559 35.3565 68.0339C34.8637 68.2178 34.5912 68.2367 32.462 68.2362C31.1693 68.2359 28.5282 68.1665 26.5928 68.0822C24.6575 67.9979 21.4236 67.8963 19.4065 67.8565C15.8923 67.7871 15.7179 67.7747 15.2336 67.56C14.6501 67.3013 14.0167 66.6912 13.7059 66.0885C13.5871 65.8581 13.4455 65.3244 13.3913 64.9027C13.3366 64.4769 13.2857 61.3015 13.2769 57.762L13.261 51.3882L13.4846 50.971C13.9184 50.1616 14.5404 49.6112 15.3804 49.2932C15.6699 49.1836 16.3507 49.1688 18.9109 49.2163C20.6555 49.2488 24.9426 49.3123 28.4377 49.3577ZM80.6788 49.7408C80.4712 49.9693 80.4667 50.4863 80.6704 50.6894C80.8957 50.9139 81.4737 50.8917 81.6016 50.6536C81.7532 50.3709 81.7262 49.8926 81.5484 49.7153C81.3381 49.5057 80.88 49.519 80.6788 49.7408ZM24.5608 52.3888C23.4905 52.5989 23.1911 52.6829 22.659 52.9224C20.9408 53.6954 19.7206 55.0321 19.0967 56.8242C18.8549 57.5187 18.8212 57.7625 18.8169 58.849C18.8127 59.8763 18.8509 60.2091 19.0436 60.8254C19.6115 62.6407 20.8391 64.0316 22.5784 64.8302C23.5851 65.2923 24.2176 65.4205 25.4529 65.4127C26.3991 65.4067 26.6562 65.3664 27.3975 65.1082C29.0454 64.5343 30.4119 63.3637 31.15 61.8935C31.6908 60.8162 31.882 59.8729 31.8243 58.5668C31.7469 56.8132 31.1753 55.5252 29.9067 54.2458C29.0247 53.3563 27.759 52.6896 26.5433 52.4743C25.7849 52.34 24.9853 52.3055 24.5608 52.3888ZM26.9091 53.4751C28.5413 53.9491 29.9923 55.3015 30.6201 56.9342C30.9664 57.8348 31.053 59.2948 30.8157 60.2331C30.1015 63.0574 27.4027 64.8947 24.5739 64.4824C20.7675 63.9274 18.5989 60.0449 20.163 56.5849C20.8547 55.0549 22.4579 53.7408 24.0157 53.4269C24.3155 53.3665 24.65 53.297 24.7591 53.2725C25.0978 53.1962 26.3572 53.3149 26.9091 53.4751ZM24.1891 54.6077C24.0575 54.6842 24.0157 54.8384 24.0157 55.2471V55.7856H23.6256C22.9936 55.7856 22.7271 55.9304 22.7271 56.2738C22.7271 56.6398 22.9516 56.7738 23.5651 56.7738H24.0195L23.9929 58.9231L23.9661 61.0725L23.3714 61.1219C22.7996 61.1694 22.7754 61.1825 22.7433 61.4629C22.6993 61.849 22.9347 62.0112 23.539 62.0112C23.9771 62.0112 24.0157 62.0306 24.0157 62.2502C24.0157 62.6514 24.1213 62.8018 24.4029 62.8018C24.7449 62.8018 24.9078 62.6361 24.9078 62.2879C24.9078 62.0265 24.9319 62.0112 25.3478 62.0112C25.7848 62.0112 25.788 62.0138 25.8187 62.3818C25.8459 62.7103 25.8826 62.7561 26.1419 62.7856C26.4828 62.8242 26.6919 62.604 26.6919 62.2065C26.6919 62.014 26.7887 61.8828 27.0605 61.7067C27.2632 61.5752 27.5347 61.3121 27.6637 61.1219C27.8642 60.8266 27.8934 60.6813 27.863 60.1286C27.838 59.6704 27.7672 59.3987 27.6208 59.1983L27.4139 58.9152L27.636 58.589C28.2204 57.7305 27.9055 56.505 26.9775 56.0266C26.7264 55.8972 26.6919 55.8252 26.6919 55.4308C26.6919 54.7217 26.4048 54.3828 25.9909 54.6037C25.838 54.6852 25.7998 54.8135 25.7998 55.2456V55.7856H25.3538H24.9078V55.2972C24.9078 54.9044 24.8645 54.7785 24.6874 54.6549C24.4313 54.4759 24.4182 54.4747 24.1891 54.6077ZM83.4805 54.8287C82.1065 55.3379 81.7114 56.7262 82.5947 57.9418C83.1454 58.6997 84.2083 59.0042 84.9508 58.6166C85.3649 58.4005 85.7643 57.7975 85.8186 57.3065C85.8419 57.0951 85.8356 57.011 85.8045 57.1197C85.698 57.4919 85.246 57.9812 84.838 58.1659C83.5616 58.7438 82.2575 57.9537 82.4438 56.7153C82.517 56.2284 82.9278 55.6776 83.399 55.4347C84.1373 55.0541 85.2518 55.4249 85.6544 56.1853L85.8876 56.6256L85.8319 56.2412C85.6761 55.1674 84.4898 54.4546 83.4805 54.8287ZM26.7936 57.0235C27.1315 57.3822 27.1148 57.9117 26.7558 58.2196C26.518 58.4234 26.3808 58.4538 25.6952 58.4538H24.9078V57.6138V56.7738H25.733C26.4875 56.7738 26.5784 56.7953 26.7936 57.0235ZM26.532 59.4377C26.8459 59.5567 27.1124 60.0534 27.0326 60.3705C26.9089 60.8619 26.5632 61.0517 25.7017 61.1014L24.9078 61.1473V60.2451V59.3431H25.5952C25.9732 59.3431 26.3949 59.3857 26.532 59.4377ZM73.2789 63.5859C73.2789 63.7763 74.1533 64.4332 74.8056 64.733C75.751 65.1674 76.5434 65.3085 77.7209 65.252C79.0153 65.1899 79.3179 65.0293 78.3215 64.9334C76.6313 64.7708 74.9882 64.3491 73.8497 63.7859C73.5357 63.6307 73.2789 63.5407 73.2789 63.5859ZM55.7399 71.1248C59.1632 72.8323 62.1333 78.4137 64.2579 87.1319C64.6779 88.8557 64.9062 89.3158 65.8298 90.3001C67.0256 91.5747 68.2515 91.7506 69.312 90.8L69.799 90.3635L69.8493 90.6891C69.8769 90.8682 69.9267 91.5038 69.9598 92.1017C70.0955 94.5534 70.6085 98.3924 71.1417 100.946C71.329 101.843 71.6384 103.31 71.8293 104.207C72.2424 106.146 72.4965 107.935 72.833 111.273C73.5027 117.913 74.4898 123.991 75.7535 129.253C75.9226 129.957 76.0792 130.713 76.1016 130.933C76.144 131.35 77.5862 139.306 78.4374 143.82C78.7076 145.253 78.9288 146.506 78.9288 146.604C78.9288 146.721 78.5084 147.076 77.7145 147.629C70.563 152.607 66.2382 155.05 60.6409 157.271C57.0854 158.682 53.2981 159.599 49.9358 159.863C47.9965 160.015 48.4336 160.141 50.9271 160.148C52.9142 160.154 54.395 159.995 56.577 159.541C63.4424 158.112 71.246 153.882 77.4708 148.214C78.2793 147.478 78.9585 146.894 78.98 146.915C79.0015 146.936 79.225 148.052 79.4766 149.394C79.8993 151.648 79.9223 151.85 79.7794 152.054C79.6944 152.175 79.1943 152.753 78.6682 153.339C72.999 159.653 63.6985 164.056 52.7275 165.619C50.0413 166.001 47.3091 166.196 47.3091 166.005C47.3091 165.971 47.5786 164.47 47.9081 162.67C50.1035 150.675 52.6556 132.8 53.9486 120.364C54.7628 112.531 55.3543 107.657 56.2809 101.144C57.512 92.4896 57.8615 88.9136 57.7874 85.7278C57.7362 83.5179 57.5814 82.5313 57.0271 80.8821C55.9239 77.5993 53.3743 74.7178 50.3332 73.317C49.1308 72.7632 48.7895 72.78 49.8152 73.3426C51.055 74.0226 52.1261 74.8428 53.1321 75.8826C54.8741 77.683 55.949 79.7573 56.5443 82.4668C56.7506 83.4061 56.7717 83.748 56.7671 86.0737C56.7626 88.2951 56.6921 89.4658 56.2468 94.7204C55.2225 106.805 54.9591 108.985 52.9562 121.961C51.1719 133.52 50.1354 140.877 48.7956 151.492C48.2002 156.209 47.1109 165.554 47.1109 165.944C47.1109 166.403 43.8965 167.192 40.9654 167.452C38.3413 167.685 31.4336 167.666 31.1915 167.424C31.1541 167.387 31.178 166.522 31.2448 165.502C31.5057 161.515 32.9238 141.793 33.2824 137.163C35.0363 114.519 36.2253 101.751 37.4005 92.9416C38.5147 84.5898 39.1393 81.9456 40.7573 78.7311C43.3379 73.6043 48.1412 70.6509 53.7575 70.7376C54.9788 70.7563 55.0155 70.7635 55.7399 71.1248ZM105.691 74.7978C121.005 75.3853 134.154 76.2394 154.558 77.9723C162.723 78.6657 178.828 80.1675 178.921 80.244C178.937 80.2572 178.862 80.418 178.755 80.6015C177.758 82.3045 176.994 86.1789 176.654 91.2617C176.59 92.2128 176.532 92.9976 176.526 93.0056C176.519 93.0136 175.975 92.9151 175.317 92.7869C168.299 91.4193 160.207 91.2132 152.231 92.1989C149.329 92.5576 146.271 92.8323 142.317 93.0894C134.973 93.5671 116.399 94.026 104.329 94.0279C101.862 94.0283 99.8433 94.0658 99.8433 94.1111C99.8433 94.2923 100.593 96.5395 101.15 98.0308C102.532 101.724 106.111 110.434 111.576 123.399C112.646 125.939 113.522 128.06 113.522 128.113C113.522 128.166 112.597 128.994 111.467 129.951L109.412 131.692L109.333 131.364C108.94 129.728 108.158 127.785 106.875 125.255C105.903 123.34 103.575 119.234 103.373 119.079C103.302 119.025 102.973 118.355 102.64 117.59C102.308 116.825 101.699 115.496 101.287 114.636C100.875 113.776 100.537 113.047 100.537 113.017C100.537 112.987 100.591 113.016 100.656 113.081C100.828 113.252 101.334 113.227 101.545 113.036C101.771 112.832 101.78 112.335 101.563 112.096C101.214 111.712 100.44 112.012 100.436 112.533C100.436 112.658 100.092 112.102 99.648 111.256C99.2152 110.431 98.5022 109.125 98.0636 108.353C97.625 107.581 97.2662 106.932 97.2662 106.911C97.2662 106.889 97.378 106.899 97.5147 106.934C97.9072 107.032 98.2574 106.747 98.2574 106.329C98.2574 105.533 97.4103 105.337 97.037 106.048C96.9043 106.3 96.8994 106.295 96.3768 105.378C96.0872 104.87 95.3288 103.609 94.6913 102.576C93.2262 100.203 92.3819 98.6723 91.6092 96.9888C90.1246 93.7538 89.8659 93.2159 89.2111 92.0028C88.3627 90.4312 86.6261 87.5337 85.9044 86.4858C85.6114 86.0603 85.3717 85.6558 85.3717 85.587C85.3717 85.5182 85.4657 85.3773 85.5807 85.2738C86.0451 84.8557 86.6253 83.3694 86.8518 82.0184L86.9684 81.3229L86.6161 80.7396C86.2002 80.051 85.9487 79.4087 85.6719 78.3275C85.4361 77.407 85.0743 75.3619 85.0743 74.9499V74.6666L86.1894 74.6289C88.8109 74.5401 101.939 74.654 105.691 74.7978ZM181.123 80.891C185.706 81.664 189.712 82.8713 191.874 84.1313C193.899 85.3121 194.826 86.7635 196.932 92.0522C199.793 99.2391 201.51 104.481 203.163 111.075C203.969 114.291 204.141 115.235 204.069 116.065C203.894 118.099 203.321 119.255 202.58 119.07C201.874 118.893 200.489 117.225 199.181 114.978L198.578 113.941L198.636 113.187C198.709 112.24 198.569 111.473 197.999 109.691C197.479 108.064 196.845 106.406 195.963 104.355C195.243 102.685 193.994 100.038 193.946 100.085C193.929 100.102 194.247 101.115 194.652 102.335C195.535 104.997 196.377 107.974 196.732 109.69C197.016 111.062 197.176 112.903 197.012 112.903C196.607 112.903 195.265 111.509 194.372 110.161C192.618 107.513 187.356 96.8963 185.079 91.4108C184.195 89.2797 182.315 88.7774 179.196 89.8386C178.648 90.0253 178.12 90.205 178.023 90.2379C177.821 90.3065 177.82 90.3328 178.164 87.5066C178.461 85.0674 178.852 83.3106 179.398 81.962C179.794 80.9865 180.01 80.6798 180.263 80.7353C180.382 80.7612 180.768 80.8312 181.123 80.891ZM80.3919 83.8256C82.0253 85.4554 82.9478 86.0111 84.0335 86.0193C84.3061 86.0214 84.6594 85.9553 84.8187 85.8726C84.9778 85.7898 85.1374 85.7567 85.1732 85.7991C85.2089 85.8414 85.4563 86.4097 85.7228 87.0619C85.9893 87.7141 86.7726 89.3817 87.4635 90.7676C88.6055 93.0584 89.2309 94.1547 91.2656 97.4324C91.8989 98.4526 93.8961 102.317 93.8961 102.522C93.8961 102.759 91.2438 103.677 89.4356 104.066C87.8649 104.405 87.8205 104.429 88.3596 104.653C88.9941 104.918 90.6212 104.971 91.3804 104.752C92.2768 104.494 93.0644 104.03 93.6052 103.44L94.097 102.903L94.4396 103.653C94.628 104.065 95.4903 105.815 96.3559 107.541C98.3499 111.518 100.195 114.77 102.194 117.83L103.121 119.248L102.662 119.783C99.9726 122.922 91.0745 126.726 78.3078 130.195C77.2849 130.473 76.4039 130.673 76.3501 130.64C76.2964 130.607 76.2522 130.349 76.2519 130.067C76.2505 128.814 75.7078 123.693 75.2498 120.611C75.0195 119.062 74.375 115.394 74.011 113.561C73.8723 112.864 73.7761 112.276 73.7971 112.255C73.818 112.234 74.0111 112.269 74.2261 112.333C74.7866 112.501 77.816 112.492 78.681 112.321C81.2855 111.806 83.1762 110.551 84.0755 108.741C84.4163 108.055 84.4954 107.785 84.5354 107.172L84.5836 106.43L84.2488 107.122C82.9278 109.851 80.3153 111.196 75.0311 111.87C74.3321 111.959 73.7454 112.017 73.7274 111.998C73.6623 111.931 72.9695 108.486 72.7371 107.074C72.6061 106.278 72.4069 104.696 72.2944 103.559C71.9571 100.147 71.8899 99.5782 71.6415 98.0261C71.3452 96.1751 70.7195 93.1014 70.2971 91.4222C69.989 90.1973 69.9834 90.1402 70.1474 89.8905C70.5612 89.2605 71.3216 87.5614 71.6567 86.5184C71.8575 85.8933 72.0301 85.3703 72.0404 85.356C72.0506 85.3416 72.2288 85.4006 72.4362 85.4871C72.6438 85.5736 73.0633 85.685 73.3684 85.7348C74.9048 85.9855 76.9178 84.9886 78.5378 83.1744C78.8346 82.8421 79.0891 82.5692 79.1033 82.5679C79.1175 82.5666 79.6974 83.1325 80.3919 83.8256ZM89.6339 89.1865C89.3862 89.4334 89.3777 89.8941 89.6169 90.11C89.8575 90.3271 90.3558 90.318 90.5601 90.0928C90.9211 89.6951 90.6139 88.9889 90.0799 88.9889C89.9436 88.9889 89.7429 89.0778 89.6339 89.1865ZM149.366 93.8615C147.966 94.747 144.444 97.6175 141.821 100.011C135.828 105.48 127.903 113.432 118.883 123.029C116.943 125.092 115.107 127.044 114.803 127.365L114.25 127.95L113.251 125.54C107.855 112.521 103.036 100.481 101.615 96.4687C101.349 95.7182 101.132 95.0846 101.132 95.0605C101.132 95.0365 103.909 95.0163 107.302 95.0158C117.284 95.0142 132.197 94.7329 138.848 94.4208C141.613 94.2911 147.239 93.9405 148.214 93.8372C148.623 93.7939 149.092 93.7552 149.255 93.7511C149.522 93.7445 149.534 93.7557 149.366 93.8615ZM93.6208 97.9376C93.356 98.1225 93.3193 98.6769 93.5562 98.9132C93.6419 98.9985 93.8624 99.0684 94.0462 99.0684C94.6239 99.0684 94.9012 98.3905 94.4908 97.9814C94.2531 97.7444 93.9212 97.7277 93.6208 97.9376ZM162.544 102.954C164.97 104.199 168.856 110.258 174.534 121.649C179.524 131.659 185.843 145.891 190 156.482C190.587 157.977 191.104 159.242 191.15 159.294C191.202 159.353 191.707 159.302 192.497 159.158C195.095 158.686 197.582 157.987 199.779 157.112L201.14 156.57L202.307 157.576C206.357 161.066 210.233 163.354 214.585 164.823C215.244 165.046 215.78 165.272 215.777 165.327C215.773 165.381 215.323 165.742 214.776 166.129C211.395 168.523 209.12 171.466 208.637 174.072C208.521 174.699 208.511 174.714 208.226 174.691C208.066 174.678 207.177 174.596 206.25 174.507C203.356 174.231 199.471 174.554 196.437 175.324C195.093 175.665 193.983 175.616 192.585 175.154C190.413 174.436 188.682 173.018 187.764 171.206C187.303 170.295 187.246 169.964 187.168 167.698C187.103 165.826 187.056 165.387 186.833 164.536C186.532 163.388 185.712 161.654 185.042 160.747C184.787 160.402 184.595 160.103 184.615 160.082C184.636 160.062 185.275 160 186.035 159.945C186.795 159.89 187.695 159.816 188.034 159.782C188.625 159.723 188.656 159.731 188.745 159.963C188.972 160.56 189.881 160.948 190.654 160.777C190.976 160.706 190.966 160.699 190.302 160.516C189.567 160.315 189.052 160.014 189.052 159.786C189.052 159.708 189.14 159.645 189.247 159.645C189.688 159.645 190.936 159.416 190.936 159.336C190.936 159.242 189.05 155.199 186.77 150.405C185.995 148.774 185.282 147.262 185.187 147.045C184.986 146.589 180.841 137.965 179.036 134.247C176.321 128.655 171.821 119.891 169.467 115.61C166.009 109.32 163.192 105.206 161.863 104.503C161.453 104.286 161.383 104.278 160.889 104.388C158.057 105.021 152.803 109.837 145.29 118.684C135.593 130.104 127.059 141.74 118.73 154.901C115.576 159.885 114.794 160.954 112.98 162.76C110.156 165.572 107.181 166.837 104.239 166.476C101.069 166.088 97.9375 163.957 94.8514 160.089C90.5572 154.707 86.3804 145.709 83.1766 134.94C82.8451 133.826 82.5623 132.901 82.5478 132.885C82.5334 132.869 81.992 133.012 81.3447 133.202C80.0149 133.593 77.1175 134.353 77.0854 134.32C77.0738 134.307 76.9468 133.653 76.8031 132.865C76.6595 132.076 76.5183 131.354 76.4895 131.258C76.4605 131.162 76.4955 131.066 76.5678 131.043C76.6397 131.02 77.7021 130.733 78.9288 130.406C90.4937 127.32 99.3001 123.657 102.569 120.574C102.951 120.214 103.285 119.92 103.313 119.921C103.381 119.922 104.644 122.205 104.679 122.391C104.716 122.585 101.955 124.415 99.6947 125.695C95.4815 128.079 89.4891 130.661 84.5043 132.238C83.6729 132.501 82.9927 132.765 82.9927 132.825C82.9927 133.097 85.3704 139.404 86.4317 141.948C91.4868 154.061 96.6909 161.661 101.628 164.139C102.935 164.796 103.677 164.994 105.05 165.053C106.482 165.115 107.43 164.918 108.763 164.282C110.22 163.587 111.189 162.865 112.731 161.327C114.669 159.395 114.664 159.402 121.602 149.367C131.574 134.943 137.438 126.726 141.806 121.056C147.369 113.834 152.836 107.83 156.293 105.146C159.236 102.86 161.093 102.209 162.544 102.954ZM164.635 120.067C164.606 121.981 164.529 123.632 164.429 124.465C164.152 126.779 163.612 129.724 163.227 131.03C163.147 131.298 163.083 131.59 163.083 131.68C163.083 131.77 163.788 132.818 164.651 134.009C168.324 139.08 172.033 144.497 175.135 149.318C177.562 153.091 181.304 159.398 181.185 159.516C181.077 159.624 178.837 156.848 176.344 153.518C171.328 146.817 166.263 138.855 163.655 133.572L162.955 132.154L162.629 133.226C161.826 135.86 161.113 137.636 159.973 139.835C159.294 141.146 157.955 143.3 157.871 143.216C157.85 143.195 158.101 142.447 158.43 141.554C160.689 135.408 162.057 129.877 163.634 120.512C164.041 118.094 164.405 115.981 164.442 115.818C164.592 115.162 164.679 117.082 164.635 120.067ZM104.062 118.261C103.729 118.735 103.995 119.326 104.542 119.326C105.118 119.326 105.387 118.753 105.042 118.261C104.934 118.108 104.786 118.042 104.552 118.042C104.317 118.042 104.169 118.108 104.062 118.261ZM103.463 125.803C104.901 127.628 106.256 130.25 106.784 132.232C106.899 132.662 107.01 133.068 107.032 133.135C107.059 133.218 107.329 133.132 107.893 132.86C108.562 132.537 108.721 132.492 108.747 132.617C108.848 133.095 105.267 136.429 102.249 138.668C101.019 139.581 99.1421 140.796 99.0715 140.725C99.0002 140.654 99.4961 139.86 100.162 138.979C101.365 137.388 103.472 135.503 105.543 134.165C106.088 133.813 106.574 133.489 106.623 133.446C106.673 133.403 106.464 133.1 106.152 132.764C105.018 131.543 103.555 129.029 102.814 127.026C102.519 126.231 102.125 124.772 102.124 124.47C102.123 124.266 102.721 124.861 103.463 125.803ZM107.575 124.959C107.168 125.365 107.441 126.046 108.011 126.046C108.201 126.046 108.406 125.971 108.501 125.865C108.862 125.468 108.555 124.761 108.021 124.761C107.885 124.761 107.684 124.85 107.575 124.959ZM184.806 160.758C185.42 161.71 186.005 162.895 185.942 163.059C185.914 163.132 185.743 163.267 185.563 163.36C185.383 163.453 185.068 163.634 184.863 163.763L184.49 163.997L184.69 164.266C185.454 165.297 185.295 168.92 184.342 172.188C184.149 172.85 183.899 173.79 183.787 174.276C183.671 174.777 183.532 175.159 183.465 175.159C183.179 175.159 181.115 174.037 180.561 173.579C179.82 172.968 179.038 171.979 178.644 171.156C178.178 170.182 178.053 169.461 178.051 167.736C178.05 166.094 177.903 164.974 177.548 163.894C177.244 162.969 176.727 161.887 176.267 161.215C176.047 160.895 175.879 160.628 175.893 160.621C175.907 160.615 176.789 160.532 177.852 160.438C179.455 160.295 179.811 160.288 179.937 160.396C180.359 160.757 181.368 160.954 181.705 160.741C181.801 160.681 181.686 160.621 181.326 160.544C181.042 160.484 180.713 160.379 180.595 160.312C180.394 160.198 180.411 160.185 180.825 160.129C181.071 160.096 181.963 160.063 182.808 160.056L184.344 160.042L184.806 160.758ZM43.7841 168.266C43.9109 168.864 44.0824 174.02 44.081 177.185C44.0792 180.952 43.9425 182.577 43.5618 183.361C42.9688 184.582 39.7168 185.548 34.0895 186.174C28.7963 186.763 19.7603 187.102 16.8532 186.82C15.3355 186.673 13.8062 186.198 13.8062 185.875C13.8062 185.535 15.7164 184.542 18.0378 183.675C19.9734 182.951 22.6655 182.136 26.1963 181.203C27.641 180.822 28.9122 180.486 29.0213 180.457C29.9804 180.204 24.8478 181.036 22.0332 181.59C16.0584 182.767 12.9097 183.886 12.2594 185.064C12.1215 185.313 10.2292 185.47 7.31375 185.473C5.21913 185.475 4.81045 185.448 3.89407 185.253C1.70191 184.786 0.749755 184.035 0.473306 182.553C0.411752 182.223 0.431477 182.177 0.687804 182.045C1.83513 181.454 5.97592 180.506 14.1531 178.962C16.3338 178.55 19.4115 177.967 20.9925 177.666C25.7814 176.754 28.5533 176.255 29.9307 176.057C31.6117 175.815 31.8671 175.632 32.3605 174.316C32.5652 173.77 32.5819 173.557 32.5857 171.453C32.5879 170.203 32.5595 169.047 32.5227 168.884L32.4558 168.588L35.6946 168.581C38.8104 168.575 40.6123 168.472 42.3761 168.198C43.6266 168.004 43.7295 168.009 43.7841 168.266ZM232.591 170.021C234.895 170.673 236.914 171.268 237.079 171.343C237.531 171.547 238.018 171.991 238.018 172.198C238.018 172.299 237.922 172.448 237.804 172.531C237.604 172.67 237.569 172.66 237.287 172.386C236.95 172.057 236.208 171.799 235.601 171.799C235.082 171.799 235.219 171.924 236.036 172.195C236.39 172.313 236.826 172.498 237.003 172.607L237.327 172.805L237.103 173.204C236.88 173.6 236.311 174.072 236.056 174.072C235.983 174.072 235.772 173.957 235.586 173.816C235.213 173.532 234.183 173.178 233.772 173.191C233.582 173.198 233.819 173.349 234.627 173.735C235.635 174.218 235.735 174.289 235.643 174.46C235.509 174.711 235.068 175.051 234.786 175.121C234.625 175.161 234.449 175.088 234.171 174.865C233.957 174.694 233.511 174.469 233.18 174.367C232.487 174.152 231.08 173.998 231.08 174.137C231.08 174.188 231.592 174.354 232.217 174.506C233.356 174.783 234.162 175.11 234.227 175.321C234.275 175.479 233.697 175.813 233.131 175.955C232.676 176.069 232.643 176.063 232.387 175.82C231.986 175.436 231.418 175.242 230.536 175.185C229.558 175.123 229.634 175.245 230.753 175.535C231.788 175.803 232.301 176.017 232.221 176.146C232.085 176.364 231.493 176.576 230.686 176.695C230.221 176.764 229.818 176.788 229.791 176.749C229.764 176.711 228.366 176.557 226.685 176.407C225.004 176.257 223.566 176.111 223.489 176.081C223.265 175.996 223.321 175.416 223.648 174.446C224.136 172.993 224.935 171.789 226.202 170.597C226.767 170.066 228.277 168.844 228.379 168.837C228.392 168.835 230.288 169.368 232.591 170.021Z" fill="#04014D"/>
</svg>
