<svg width="232" height="202" viewBox="0 0 232 202" fill="none" xmlns="http://www.w3.org/2000/svg">
<path fill-rule="evenodd" clip-rule="evenodd" d="M135.86 0.566063C134.172 0.736622 132.891 1.04995 131.88 1.53989C131.175 1.88166 131.031 1.99719 129.774 3.23215C128.352 4.63007 127.995 4.87594 127.385 4.87917C126.996 4.88119 126.973 4.90615 126.908 5.38002C126.757 6.48425 127.544 7.21949 129.154 7.47828C129.475 7.52975 129.747 7.57968 129.76 7.58937C129.772 7.59899 129.656 7.89559 129.501 8.24842C128.892 9.63762 128.503 10.8848 128.297 12.1089L128.202 12.6712L127.882 12.7352C127.485 12.8143 126.957 13.0423 126.957 13.1344C126.957 13.172 127.211 13.2029 127.521 13.2029H128.085V13.4438C128.085 13.5764 127.926 14.3126 127.732 15.0799C127.27 16.901 127.134 17.6109 127.074 18.495C127.047 18.8949 126.955 19.74 126.87 20.3728C126.484 23.245 126.784 24.7704 127.948 25.8592C128.226 26.1193 128.635 26.4299 128.855 26.5493C129.385 26.8358 130.484 27.1504 131.187 27.2165C132.063 27.2989 132.09 27.3097 132.143 27.604C132.248 28.1773 132.344 29.7409 132.29 29.9961L132.233 30.2668L130.904 30.6021L129.576 30.9375L129.471 31.5742C129.341 32.3656 129.152 32.7459 128.756 33.0144C128.586 33.1292 127.723 33.4683 126.836 33.768C122.545 35.2192 120.133 36.5175 119.096 37.9345C118.679 38.5042 118.457 39.0947 117.653 41.7689C115.966 47.3855 115.042 49.6917 113.624 51.8281C113.124 52.5817 112.039 53.843 111.892 53.843C111.817 53.843 110.755 51.2681 109.298 47.551C107.866 43.8994 107.178 42.0542 106.134 39.0651C103.89 32.6376 103.849 32.5463 102.858 31.7434C102.549 31.4926 102.17 31.1619 102.017 31.0085C100.318 29.3038 99.6277 29.0203 96.7333 28.8366C94.78 28.7126 93.8505 28.5532 92.9178 28.1821C92.5396 28.0317 92.1992 27.9562 91.8843 27.9529C91.4424 27.9484 91.3987 27.9658 91.1391 28.2498C90.9058 28.5051 90.8634 28.6109 90.8635 28.9366C90.8635 29.7489 91.5969 30.8444 92.4344 31.2835C92.8044 31.4774 92.9456 31.499 94.1666 31.5482C95.4482 31.5999 96.1724 31.7378 96.3067 31.9557C96.3317 31.9963 96.1781 32.1044 95.9652 32.1959C95.2851 32.4883 94.3024 33.2061 93.2303 34.1938L92.1875 35.1544L91.3609 34.3617C89.3536 32.4367 87.5573 31.4627 86.0147 31.4627C85.4123 31.4627 85.3579 31.4773 85.137 31.6988C85.0074 31.8287 84.9015 31.9991 84.9015 32.0773C84.9015 32.4298 85.2821 32.9554 86.1212 33.7618C86.6088 34.2303 86.9845 34.6137 86.9561 34.6137C86.9277 34.6137 86.3359 34.5077 85.6411 34.3782C83.876 34.049 82.3868 33.8531 82.1342 33.9166C81.988 33.9534 81.9205 34.0239 81.9205 34.1397C81.9205 34.4792 82.2452 34.7111 87.9822 38.4712C89.0157 39.1486 90.1048 39.9195 90.4024 40.1844C90.7698 40.5115 91.0389 40.6839 91.2416 40.722C92.1816 40.8988 94.5128 40.1067 98.2472 38.3416C99.5933 37.7053 99.8149 37.6641 100.373 37.9465C100.987 38.2571 101.065 38.5236 101.171 40.6733C101.33 43.9205 101.416 46.3835 101.498 50.0052C101.543 51.9605 101.615 53.9056 101.66 54.3278C101.893 56.5569 102.448 58.1352 103.49 59.5414C103.968 60.1848 106.381 62.7578 107.218 63.516C108.332 64.5241 109.723 65.4515 110.774 65.8861C111.423 66.1544 112.289 66.3987 112.355 66.3324C112.378 66.3087 112.329 66.2683 112.245 66.2425C111.715 66.08 110.725 65.6514 110.27 65.3878C108.949 64.622 107.933 63.7312 106.098 61.7305C103.988 59.4284 103.478 58.7258 103.034 57.5073C102.379 55.7054 102.306 55.0101 102.223 49.7628C102.156 45.4432 101.894 39.5631 101.735 38.7653C101.532 37.7505 100.56 37.0149 99.5969 37.1473C99.4079 37.1733 98.4364 37.6047 97.3402 38.1493C94.5327 39.5442 92.9785 40.1714 91.8965 40.3462C91.3285 40.4379 91.1017 40.3708 90.7022 39.993C90.2615 39.5761 89.693 39.1858 87.399 37.7258C84.8046 36.0745 83.0152 34.8675 82.5959 34.4859L82.2831 34.2011L82.6859 34.2497C83.5075 34.3487 84.6611 34.5554 86.1502 34.8705L87.681 35.1944L89.0103 35.8846C89.7415 36.2643 90.5028 36.6668 90.7022 36.7792C90.9016 36.8915 91.0285 36.9447 90.9842 36.8976C90.8743 36.7805 88.5973 35.1241 88.0224 34.7428C87.0545 34.1011 85.3716 32.3268 85.513 32.0972C85.5831 31.9835 86.3724 32.0192 86.8405 32.1573C88.051 32.5143 89.3519 33.4152 90.9899 35.0308C91.6133 35.6457 92.1685 36.1488 92.2236 36.1488C92.2786 36.1488 92.7606 35.7275 93.2947 35.2124C94.8758 33.6877 96.28 32.7554 96.9954 32.7554C97.4045 32.7554 97.6724 32.5281 97.6007 32.2419C97.5275 31.9491 97.0392 31.4197 96.6097 31.1673C96.0058 30.8123 95.5661 30.7192 94.2412 30.6653C93.0489 30.6168 92.9698 30.6032 92.6515 30.392C92.3281 30.1773 91.8849 29.5386 91.7785 29.1339C91.686 28.7821 91.8531 28.7602 92.5893 29.0273C93.6832 29.4243 94.7471 29.6052 96.4729 29.6877C99.0513 29.8109 99.6937 30.0316 100.992 31.2403C101.417 31.6367 102.012 32.1586 102.314 32.4C103.13 33.0529 103.152 33.0971 104.775 37.4415C107.026 43.4683 108.887 47.9492 111.049 52.5503C111.394 53.2835 111.67 53.9647 111.664 54.064C111.657 54.1634 111.853 54.5774 112.099 54.9842C113.125 56.6814 114.089 58.8282 114.389 60.0848C114.621 61.0522 114.626 61.0338 114.127 61.034C113.506 61.0341 113.2 61.2236 112.888 61.8014C112.252 62.9769 111.985 64.7861 112.318 65.653C112.448 65.9905 112.996 66.6112 113.241 66.6982C113.301 66.7195 113.24 67.0986 113.055 67.8529C112.607 69.6794 112.508 70.5539 112.563 72.1836C112.612 73.6157 112.732 74.5974 113.021 75.9319C113.212 76.8112 113.487 77.6826 113.613 77.8105C113.663 77.8614 113.912 77.9624 114.167 78.035C114.701 78.1872 114.686 78.1319 114.552 79.4148C114.51 79.8147 114.384 81.3054 114.273 82.7274C113.453 93.2075 113.101 101.316 113.101 109.673C113.102 120.962 113.687 126.433 116.238 139.019C117.837 146.904 120.957 159.777 123.618 169.468L124.303 171.963L123.246 174.934C122.665 176.568 121.809 178.973 121.344 180.28L120.499 182.655L121.149 183.31L121.799 183.965L121.441 184.761C120.513 186.827 119.222 188.551 117.815 189.601C117.027 190.189 116.256 190.58 114.993 191.032C112.848 191.799 111.587 192.649 111.442 193.423C111.345 193.942 111.682 194.427 112.276 194.621C112.858 194.811 115.658 195.307 116.967 195.452C118.329 195.603 119.691 195.521 120.624 195.232C120.924 195.139 121.992 194.623 122.996 194.085C125.073 192.973 126.37 192.365 127.36 192.038C128.076 191.801 128.807 191.754 130.341 191.846C130.673 191.866 131.049 191.853 131.177 191.817L131.408 191.753L131.184 192.141C130.272 193.721 129.101 195.036 127.884 195.848C127.176 196.32 126.715 196.531 125.064 197.14C122.812 197.97 121.717 198.906 121.919 199.829C121.978 200.097 122.309 200.44 122.625 200.56C122.963 200.688 125.583 201.182 126.749 201.337C128.11 201.519 130.197 201.47 130.993 201.237C131.285 201.151 132.318 200.658 133.289 200.141C136.394 198.488 137.63 197.962 138.921 197.746C139.384 197.669 139.625 197.674 140.266 197.778C141.056 197.906 141.553 197.868 141.96 197.65C142.268 197.484 142.762 196.979 142.932 196.655C143.117 196.301 143.151 195.728 143.07 194.346L143.03 193.66L143.634 193.608C144.351 193.548 145.118 193.356 145.628 193.11L145.997 192.932L145.981 192.205C145.898 188.241 145.496 179.24 145.044 171.239C144.19 156.134 143.247 145.49 142.022 137.116C141.721 135.055 141.188 131.918 141.096 131.665C141.075 131.608 141.148 131.008 141.257 130.332C142.256 124.153 142.908 116.429 143.066 108.912C143.279 98.7531 142.55 89.7013 140.805 80.8503C140.642 80.0231 140.637 79.9301 140.753 79.7999C140.845 79.6954 140.926 79.1924 141.053 77.9201C141.268 75.773 141.564 73.9831 141.771 73.5797C142.11 72.9156 142.735 72.5896 143.789 72.5268C144.169 72.5041 144.538 72.4556 144.609 72.4191C144.68 72.3825 145.128 71.6972 145.605 70.8961C146.575 69.2665 146.586 69.2198 146.045 68.8471C145.607 68.5459 145.369 68.0182 145.439 67.5052C145.556 66.6433 146.02 66.0147 148.637 63.174C151.983 59.5414 153.406 57.8539 154.819 55.8416C156.293 53.7432 157.124 52.0619 157.454 50.5094C157.647 49.6015 157.746 47.8799 157.652 47.051C157.491 45.6241 157.185 45.0686 155.72 43.5411C155.166 42.9632 154.446 42.1925 154.121 41.8285C153.433 41.0594 152.04 39.7709 149.269 37.3415C146.738 35.1225 145.377 33.7772 144.871 32.9956C144.214 31.9811 143.709 30.5085 143.56 29.1727C143.521 28.8236 143.458 28.5066 143.42 28.4685C143.382 28.4302 143.007 28.3885 142.586 28.3755L141.822 28.352L141.832 26.8169C141.844 25.1695 141.997 23.9455 142.269 23.3193C142.352 23.1286 142.744 22.6196 143.141 22.1882C144.918 20.2548 146.446 18.2789 147.351 16.746C149.437 13.2101 149.49 11.0295 147.557 8.20002C147.079 7.49937 145.437 5.82383 144.701 5.28492C144.255 4.95802 144.204 4.8921 144.202 4.63129C144.196 4.14312 143.77 3.4175 143.137 2.81888C141.537 1.30534 139.799 0.635143 137.29 0.564689C136.681 0.547561 136.037 0.548207 135.86 0.566063ZM191.853 1.6547C174.708 1.75456 169.986 1.82922 169.416 2.00947C167.706 2.54967 166.336 3.95236 165.913 5.5972C165.794 6.0591 165.778 7.25358 165.749 17.3125C165.732 23.4731 165.68 31.167 165.634 34.4101C165.578 38.3834 165.578 40.473 165.633 40.8171C165.954 42.8358 167.399 44.4348 169.422 45.0104C169.906 45.1481 170.395 45.1568 177.062 45.1459L184.186 45.1343L184.113 56.0937C184.001 72.7933 184.007 74.0695 184.189 74.6075C184.847 76.5451 186.261 77.8145 188.202 78.2115C188.817 78.3373 189.524 78.3441 196.768 78.2934C201.11 78.263 206.512 78.2047 208.772 78.1637C211.032 78.1227 215.927 78.0674 219.649 78.0406C223.548 78.0126 226.637 77.9573 226.937 77.9102C228.459 77.6714 229.801 76.7083 230.514 75.3429C230.979 74.454 231.055 74.0348 231.095 72.1432C231.218 66.3874 231.384 52.0303 231.397 46.0866L231.411 39.0978L231.173 38.413C230.569 36.6766 229.18 35.377 227.455 34.9346C226.86 34.782 226.537 34.7753 219.784 34.7753H212.734L212.786 32.2504C212.889 27.2777 213.015 12.9337 212.987 9.40549L212.959 5.81009L212.717 5.16373C212.397 4.31077 211.99 3.7124 211.268 3.03622C210.598 2.40941 209.79 1.96552 208.974 1.77719C208.181 1.5941 205.526 1.57512 191.853 1.6547ZM192.554 2.4629C209.855 2.55242 208.716 2.51396 209.779 3.0443C210.817 3.5618 211.784 4.80597 212.023 5.93129C212.066 6.13457 212.123 9.32276 212.153 13.1625C212.182 16.9397 212.257 23.3367 212.32 27.378C212.382 31.4194 212.426 34.7331 212.416 34.7419C212.406 34.7506 207.123 34.8019 200.675 34.8557C188.337 34.9588 188.276 34.961 187.291 35.3348C186.707 35.5562 185.787 36.2045 185.421 36.6523C184.984 37.188 184.575 37.9111 184.381 38.4919C184.219 38.9768 184.203 39.2261 184.163 41.7467L184.119 44.4764L177.404 44.4722C173.634 44.4698 170.454 44.4345 170.152 44.3915C168.365 44.1374 166.982 42.9498 166.434 41.1985C166.263 40.6515 166.255 40.4533 166.178 35.1793C166.134 32.1797 166.092 24.4718 166.085 18.0506C166.071 5.26408 166.044 6.00893 166.559 4.92134C167.164 3.64413 168.498 2.63257 169.909 2.38162C170.161 2.33694 171.692 2.3207 173.565 2.343C175.337 2.36409 183.882 2.41806 192.554 2.4629ZM139.561 6.29673C140.776 6.73949 141.66 8.83548 141.384 10.6197C141.265 11.3847 140.967 12.0491 140.566 12.4417L140.251 12.7509V15.4883V18.2258L140.576 17.9564C142.435 16.4168 143.522 15.9122 144.102 16.3196C144.336 16.4838 144.893 17.596 145.051 18.2124C145.274 19.0863 145.182 19.2348 142.876 21.7268C142.3 22.3489 141.555 23.0714 141.221 23.3323C139.423 24.7356 137.536 25.7801 135.945 26.2521C135.084 26.5076 135.414 26.5077 136.366 26.2521C137.702 25.8931 139.38 25.1073 140.873 24.1415C141.24 23.9041 141.54 23.7391 141.54 23.7746C141.54 23.8103 141.482 24.2185 141.411 24.6818C141.34 25.1451 141.258 26.231 141.229 27.0949L141.177 28.6654L140.734 28.774C139.83 28.9957 137.867 29.5321 137.672 29.6109C137.44 29.705 135.834 31.6999 133.725 34.5162C132.916 35.5956 132.244 36.4682 132.231 36.4553C132.218 36.4423 132.022 35.9119 131.794 35.2768C131.567 34.6416 131.147 33.536 130.86 32.8197C130.574 32.1035 130.349 31.5103 130.361 31.5014C130.372 31.4926 130.873 31.3699 131.475 31.2288C132.077 31.0877 132.646 30.9179 132.741 30.8515C132.97 30.6908 133.079 30.2607 133.08 29.5211C133.08 28.6831 132.856 26.9359 132.721 26.7293C132.625 26.5824 132.501 26.5522 131.813 26.5069C129.39 26.3477 128.007 25.448 127.564 23.7439C127.394 23.0881 127.407 21.6997 127.596 20.3395C127.681 19.725 127.774 18.8586 127.802 18.4142C127.829 17.9698 127.914 17.279 127.99 16.8791L128.129 16.1519L128.423 16.1777C128.748 16.2062 129.166 16.0268 129.244 15.8251C129.271 15.7532 129.294 15.5502 129.294 15.3741C129.294 14.9927 129.012 14.6572 128.691 14.6572C128.518 14.6572 128.492 14.6279 128.528 14.4754C128.551 14.3755 128.617 14.0573 128.673 13.7684L128.776 13.2433L129.196 13.2189C129.427 13.2054 129.616 13.1568 129.616 13.1109C129.616 13.065 129.432 12.9493 129.207 12.854L128.797 12.6806L128.849 12.3156C129.015 11.1243 129.541 9.45551 130.235 7.91522L130.542 7.23177L131.427 7.02195C132.765 6.7045 134.547 6.35781 135.537 6.22231C136.769 6.05385 139.008 6.09522 139.561 6.29673ZM175.275 7.62799C175.144 8.14492 174.921 11.9069 174.815 15.3844C174.685 19.6213 174.73 24.2823 174.942 28.6875L174.997 29.8308L173.94 29.8895C173.359 29.9217 172.9 29.9762 172.922 30.0104C172.943 30.0448 173.414 30.0991 173.969 30.1312C174.523 30.1632 174.991 30.2124 175.007 30.2403C175.024 30.2683 175.082 30.891 175.136 31.6243C175.191 32.3575 175.261 32.9861 175.293 33.0212C175.35 33.0829 175.539 31.1703 175.539 30.5376V30.2269L176.405 30.2843C180.038 30.5248 190.958 30.6448 196.123 30.5012C200.833 30.3701 205.59 30.1234 205.59 30.0101C205.59 29.9806 204.931 29.9137 204.126 29.8613C203.321 29.8089 202.649 29.7518 202.631 29.7344C202.614 29.7169 202.639 28.7443 202.688 27.573C202.737 26.4017 202.799 23.0481 202.826 20.1204L202.875 14.7975L199.822 14.8283L196.768 14.8592L196.746 13.7016L196.723 12.5439L193.805 12.5938C192.2 12.6212 190.728 12.6633 190.535 12.6873L190.182 12.7309L190.212 13.7546L190.242 14.7784L187.744 14.8283C186.371 14.8557 184.993 14.8829 184.683 14.8888L184.119 14.8995V17.3032V19.7069L181.621 19.7568C180.248 19.7842 178.883 19.8115 178.589 19.8174L178.055 19.8281L178.066 22.4742C178.072 23.9295 178.044 26.1425 178.004 27.3919L177.932 29.6637L176.808 29.7209C176.191 29.7523 175.668 29.7614 175.648 29.741C175.628 29.7206 175.649 28.8362 175.695 27.7756C175.968 21.5389 175.85 13.2178 175.424 8.51674C175.366 7.86699 175.305 7.50769 175.275 7.62799ZM133.544 12.0744C133.036 12.1602 132.387 12.3805 132.288 12.5004C132.227 12.5745 132.529 12.5985 133.591 12.6037C134.98 12.6106 135.367 12.6749 136.504 13.0884C136.631 13.1345 136.614 13.0916 136.424 12.8867C136.091 12.5284 135.307 12.171 134.642 12.0747C134.026 11.9852 134.073 11.9852 133.544 12.0744ZM196.129 13.1434C196.139 13.1539 196.173 16.8438 196.206 21.343L196.265 29.5236H195.502C195.083 29.5236 193.805 29.4994 192.662 29.47L190.585 29.4164L190.645 22.1176C190.689 16.7425 190.681 14.8188 190.614 14.8188C190.553 14.8188 190.524 14.5295 190.524 13.917V13.0152L193.318 13.0698C194.855 13.0998 196.12 13.133 196.129 13.1434ZM134.369 14.2295C133.688 14.4792 133.659 15.4857 134.326 15.7065C135.015 15.9346 135.563 15.2504 135.221 14.5881C135.057 14.2699 134.686 14.1135 134.369 14.2295ZM130.388 15.4059C130.315 15.8982 130.02 16.4888 129.576 17.0358C129.061 17.6701 128.972 17.8583 128.972 18.3213C128.971 18.6577 129.009 18.7511 129.239 18.9815C129.576 19.3196 129.968 19.4005 130.572 19.257C130.89 19.1813 130.965 19.1418 130.824 19.1249C129.383 18.9521 129.116 18.5284 129.833 17.5545C130.351 16.852 130.578 16.2732 130.581 15.6517C130.583 15.0655 130.462 14.9113 130.388 15.4059ZM189.986 15.3323C190.022 15.3407 190.072 18.519 190.096 22.3951L190.141 29.4428H187.847C186.585 29.4428 185.325 29.4666 185.048 29.4957L184.543 29.5486L184.573 24.6925C184.596 20.8831 184.581 19.8145 184.502 19.7353C184.426 19.6595 184.401 19.096 184.401 17.4824C184.401 16.2988 184.422 15.3095 184.447 15.2839C184.487 15.2439 189.805 15.2903 189.986 15.3323ZM200.514 15.3036H202.262L202.315 20.2523C202.344 22.9741 202.403 26.2174 202.445 27.4597C202.487 28.702 202.512 29.7285 202.5 29.741C202.487 29.7535 201.664 29.7271 200.67 29.6825C199.676 29.6378 198.382 29.58 197.795 29.5541L196.728 29.507L196.728 25.0918C196.728 22.6633 196.752 19.4441 196.781 17.9379L196.835 15.1993L197.801 15.2514C198.332 15.2801 199.553 15.3036 200.514 15.3036ZM142.696 18.3731C142.298 18.5343 142.153 19.0542 142.383 19.4991C142.52 19.7655 142.649 19.8281 143.063 19.8281C143.273 19.8281 143.414 19.7731 143.529 19.6463C144.115 18.9996 143.494 18.0504 142.696 18.3731ZM182.608 20.2832L183.998 20.3303L184.014 22.3616C184.034 25.0367 184.034 25.273 184.015 27.5518L183.998 29.4984L181.25 29.5559C179.738 29.5875 178.493 29.6023 178.482 29.5886C178.411 29.5004 178.273 22.6316 178.321 21.5232L178.378 20.1658L179.799 20.2009C180.58 20.2202 181.844 20.2572 182.608 20.2832ZM128.568 21.762C128.568 21.9408 128.756 22.3097 128.956 22.5247C129.252 22.8419 129.744 23.0563 130.18 23.0569C130.616 23.0576 130.868 22.9391 130.621 22.8498C130.075 22.6534 129.438 22.3123 129.074 22.0221C128.635 21.6713 128.568 21.6372 128.568 21.762ZM23.7516 26.2179C23.1289 26.3383 22.0961 26.9062 21.5863 27.4086C21.0656 27.9216 20.7617 28.4002 20.4547 29.1907L20.2469 29.7256L20.2256 45.7054C20.2067 59.8728 20.2184 61.7462 20.3286 62.2229C20.6917 63.7931 21.8385 65.035 23.4293 65.5807L23.953 65.7603L38.1254 65.7821L52.2978 65.8038L52.2451 68.8523C52.2161 70.529 52.1682 74.5004 52.1388 77.6777C52.0793 84.0817 52.0663 83.8749 52.6034 85.0067C53.2261 86.3191 54.6217 87.3708 56.0692 87.6185C56.7203 87.7299 68.1695 87.6813 75.3543 87.5366C77.3927 87.4955 81.9064 87.4383 85.3849 87.4093C90.3868 87.3676 91.817 87.3326 92.2239 87.2423C93.732 86.9073 95.1046 85.6166 95.5818 84.0845C95.6482 83.8713 95.72 83.3152 95.7413 82.8486C95.844 80.598 96.0415 65.0208 96.0502 58.4888L96.0599 51.1364L95.8486 50.5916C95.229 48.9946 93.9938 47.8561 92.3941 47.4081C91.8965 47.2686 91.3118 47.2633 80.6314 47.3001C74.45 47.3215 68.0691 47.339 66.4518 47.339H63.5111L63.4708 38.4919L63.4305 29.6448L63.2502 29.1655C62.6935 27.6859 61.5376 26.634 60.0499 26.2531C59.6267 26.1447 57.4673 26.1312 41.8419 26.139C32.0916 26.1439 23.951 26.1794 23.7516 26.2179ZM142.225 28.958H142.891L142.947 29.4226C143.068 30.4092 143.493 31.8381 143.915 32.6719L144.138 33.1136L143.869 33.3183C142.49 34.366 139.576 36.8048 139.294 37.1459C139.114 37.3636 139.064 37.3057 139.005 36.8154C138.897 35.9094 138.319 32.5918 138.073 31.4652C137.936 30.8364 137.836 30.285 137.851 30.2397C137.866 30.1946 138.602 29.8705 139.487 29.5196C140.622 29.0696 141.165 28.8929 141.328 28.9198C141.456 28.9408 141.859 28.958 142.225 28.958ZM137.873 33.6037C138.023 35.7111 138.289 38.1357 138.397 38.3909C138.456 38.5299 138.541 38.5727 138.756 38.5727C139.016 38.5727 139.185 38.4256 140.955 36.6538C142.01 35.5984 143.168 34.4018 143.53 33.9946L144.187 33.2544L144.639 33.8467C145.222 34.6101 147.178 36.5181 149.316 38.4111C150.947 39.8542 153.024 41.8239 153.619 42.491C153.777 42.6686 154.371 43.2977 154.938 43.8889C156.698 45.7224 156.904 46.2137 156.825 48.3828C156.738 50.776 156.223 52.1535 154.421 54.8178C153.035 56.8677 151.401 58.8343 147.982 62.5689C145.341 65.4526 144.771 66.2218 144.633 67.0868C144.604 67.2682 144.556 67.4167 144.526 67.4167C144.429 67.4167 142.491 65.6075 141.617 64.7015C141.15 64.2174 140.564 63.5667 140.315 63.2556C139.347 62.0471 138.465 60.3815 138.456 59.7451C138.447 59.0546 139.059 57.2586 139.749 55.9527C140.495 54.5421 142.407 51.5519 145.307 47.2601C145.984 46.2592 146.506 45.4403 146.467 45.4403C146.362 45.4403 145.128 46.7468 144.407 47.6218C142.97 49.3662 141.659 51.2488 140.836 52.7523C139.932 54.4041 138.848 56.9754 138.432 58.4578L138.213 59.2348L137.318 59.2793C135.755 59.3571 134.734 59.742 133.785 60.611C133.127 61.2137 133.094 61.267 133.086 61.7295L133.08 62.0617L130.401 62.1181C128.928 62.1492 126.979 62.2079 126.071 62.2487C125.163 62.2896 124.017 62.3238 123.525 62.3248L122.631 62.3265L122.341 62.0438C122.005 61.7164 121.689 61.6754 121.381 61.9189L121.18 62.0769L119.013 61.6827C117.821 61.4659 116.364 61.2234 115.774 61.1439L114.703 60.9993L114.753 60.6732C114.781 60.4938 115.053 59.0927 115.357 57.5596C116.303 52.7999 116.851 50.8777 117.898 48.6508C118.237 47.9293 118.732 46.8481 118.999 46.2482C120.041 43.8991 122.008 38.7519 121.941 38.549C121.903 38.4364 121.006 40.2148 119.422 43.5416C118.681 45.0969 117.754 47.0145 117.36 47.8029C116.94 48.645 116.498 49.6782 116.289 50.3076C115.952 51.3253 115.425 53.4553 115.313 54.2539C115.232 54.8269 115.163 54.89 114.896 54.6337C114.495 54.2489 113.945 54.0633 113.081 54.0213L112.297 53.9831L112.936 53.3054C114.425 51.7283 115.682 49.3421 117.037 45.5211C117.219 45.01 117.751 43.3921 118.221 41.9257C118.69 40.4592 119.143 39.103 119.226 38.9118C119.71 37.8058 121.739 36.4159 124.379 35.3812C125.277 35.0294 128.251 34.0254 128.285 34.0628C128.298 34.077 128.167 34.4521 127.994 34.8965C127.479 36.2183 127.345 36.5977 127.423 36.5124C127.465 36.4679 128.045 35.612 128.714 34.6102C129.714 33.1122 129.956 32.6917 130.079 32.2417L130.228 31.6945L130.376 32.326C130.522 32.947 131.401 36.2243 131.669 37.1436C131.771 37.4961 131.857 37.6365 132.011 37.7069C132.2 37.7934 132.24 37.7737 132.518 37.4592C133.094 36.8086 136.227 32.5917 137.274 31.0587L137.632 30.5335L137.689 31.1799C137.721 31.5354 137.803 32.6261 137.873 33.6037ZM58.2317 34.3107C58.2287 35.9388 57.8826 40.6711 57.7744 40.5627C57.7278 40.5158 57.4489 37.4169 57.3918 36.3104C57.3655 35.7994 57.3238 35.0865 57.2992 34.7263L57.2546 34.0713L55.8711 34.0183C55.1102 33.9891 54.0673 33.9428 53.5534 33.9152L52.6192 33.8651L52.5669 35.0675C52.538 35.7289 52.5497 36.779 52.5929 37.4011C52.636 38.0233 52.6955 38.9181 52.7251 39.3897L52.7788 40.2471L53.7944 40.2992C55.1653 40.3696 57.5345 40.5988 57.611 40.6684C57.7315 40.7781 54.1859 41.066 52.6145 41.0743L52.0304 41.0773V40.4323C52.0304 40.0775 52.0879 39.1777 52.1581 38.4326C52.2455 37.5063 52.2773 36.4903 52.2589 35.2197L52.2318 33.3614L52.9972 33.2991C53.6535 33.2457 56.2681 33.1317 57.7707 33.0911L58.234 33.0786L58.2317 34.3107ZM43.732 33.2389C46.1311 33.3339 48.5724 33.4809 49.0091 33.5566C49.7374 33.6832 44.9463 33.9349 40.308 34.014C37.2372 34.0663 32.2094 33.9667 29.7135 33.804C27.6007 33.6664 27.0499 33.6221 27.0796 33.5923C27.1335 33.5383 30.4582 33.3164 32.211 33.2498C34.722 33.1544 41.4355 33.1481 43.732 33.2389ZM227.49 35.8769C228.249 36.1264 228.803 36.4863 229.357 37.089C229.914 37.6952 230.203 38.2283 230.406 39.0239C230.554 39.6026 230.566 39.9306 230.567 43.4535C230.569 47.4771 230.655 55.5125 230.817 66.7401C230.909 73.1596 230.907 73.5701 230.772 74.1329C230.554 75.0436 230.143 75.7655 229.441 76.4699C228.8 77.1136 228.053 77.5486 227.222 77.763C226.751 77.8845 218.971 77.8804 211.391 77.7545C208.887 77.713 202.679 77.6412 197.594 77.5951C188.816 77.5155 188.325 77.5034 187.846 77.355C186.478 76.9313 185.401 75.8868 184.906 74.5049C184.698 73.9234 184.697 73.9047 184.637 70.5273C184.604 68.6609 184.549 62.1844 184.516 56.1351L184.456 45.1363L187.067 45.0841C192.667 44.9721 200.649 44.875 204.274 44.8749C208.557 44.8747 208.916 44.8407 209.941 44.338C210.78 43.9262 211.734 42.9693 212.145 42.1277C212.577 41.2404 212.677 40.6398 212.679 38.8958C212.68 38.0738 212.704 36.9918 212.733 36.4916L212.785 35.5821L219.842 35.6324L226.9 35.6827L227.49 35.8769ZM42.6444 36.7944C45.8548 36.8804 49.3558 37.0804 49.264 37.1725C49.201 37.2357 46.0879 37.4356 43.8686 37.5189C41.0522 37.6248 35.2181 37.6264 32.5736 37.522C30.1914 37.428 27.8683 37.2858 27.4173 37.2061C27.1186 37.1534 27.1392 37.1452 27.6993 37.0939C31.1826 36.7751 37.3307 36.6519 42.6444 36.7944ZM41.9999 40.2714C43.728 40.3156 45.9682 40.406 46.9781 40.4722C47.9879 40.5384 48.8671 40.5926 48.9318 40.5926C48.9965 40.5926 49.0494 40.623 49.0494 40.6602C49.0494 40.7531 46.9191 40.8972 43.9334 41.0061C41.1512 41.1077 32.1547 41.0517 30.1566 40.9204C29.4919 40.8767 28.5765 40.8164 28.1223 40.7865C27.6681 40.7566 27.2965 40.7059 27.2965 40.6739C27.2965 40.5616 30.8105 40.3535 34.0238 40.2754C37.7776 40.1842 38.5817 40.1838 41.9999 40.2714ZM128.884 40.2922C128.694 40.438 128.568 40.7128 128.568 40.9803C128.568 41.744 129.689 41.9855 129.981 41.2849C130.217 40.7194 129.886 40.186 129.303 40.1912C129.143 40.1925 128.954 40.238 128.884 40.2922ZM35.9157 46.3492C35.9149 48.0934 35.8794 50.7384 35.8367 52.2271C35.7585 54.949 35.5234 60.2435 35.4786 60.2885C35.4654 60.3017 35.4301 59.8113 35.4002 59.1987C35.1501 54.0839 35.0971 52.4505 35.0555 48.5795L35.0081 44.1644L33.4686 44.1185C32.6218 44.0934 30.8233 44.0399 29.4718 43.9997C28.1203 43.9595 26.9989 43.9404 26.9799 43.9573C26.9609 43.9742 26.9149 44.9783 26.8777 46.1887C26.8066 48.5036 26.8309 49.929 27.0192 54.4894C27.0825 56.0225 27.1345 57.8804 27.1349 58.6182L27.1353 59.9596L28.8071 60.0157C29.7266 60.0467 31.4577 60.1245 32.6541 60.1888C33.8506 60.253 34.9171 60.3058 35.0242 60.3061C35.1312 60.3064 35.2012 60.3243 35.1797 60.346C35.1059 60.42 31.0442 60.6311 28.6736 60.6841L26.3044 60.7371L26.3547 57.593C26.3825 55.8638 26.4468 53.5946 26.4977 52.5503C26.5549 51.3775 26.5736 49.2727 26.5466 47.045L26.503 43.4385L27.9672 43.3778C28.7725 43.3445 30.7004 43.2921 32.2513 43.2613C33.8022 43.2305 35.2614 43.1993 35.4941 43.1917L35.9171 43.178L35.9157 46.3492ZM50.701 45.7224C52.0578 45.8755 52.3277 45.9566 51.7378 46.0339C48.69 46.4331 43.7228 46.474 40.4691 46.1266C39.8487 46.0603 39.3049 46.005 39.2606 46.0035C39.2163 46.0021 39.2344 45.9694 39.3009 45.931C39.4268 45.858 40.5894 45.7185 42.0401 45.6023C43.4933 45.4859 49.3212 45.5668 50.701 45.7224ZM125.048 47.9459C124.849 48.0261 124.621 48.4145 124.621 48.6721C124.621 48.9043 124.828 49.288 124.987 49.3491C125.059 49.3766 125.253 49.3993 125.419 49.3993C125.808 49.3993 126.083 49.1239 126.094 48.7234C126.113 48.0835 125.618 47.7158 125.048 47.9459ZM78.3756 48.107C90.4947 48.1731 91.9156 48.194 92.3136 48.3127C93.6645 48.7155 94.7526 49.8591 95.0859 51.2263C95.1791 51.6089 95.2117 52.919 95.2525 57.9232C95.2803 61.3449 95.3553 67.2894 95.4189 71.1332C95.577 80.6823 95.5743 83.4177 95.4063 83.9852C94.9732 85.4483 93.938 86.5352 92.4747 87.063L91.951 87.252L86.9156 87.2317C84.1461 87.2205 79.7774 87.1735 77.2074 87.1272C74.6373 87.0809 68.8546 87.0109 64.357 86.9717C56.3992 86.9024 56.1651 86.8959 55.6438 86.732C54.2753 86.302 53.2114 85.143 52.877 83.718C52.702 82.9721 52.5788 72.3925 52.6096 60.751L52.6346 51.298L52.8279 50.8132C53.377 49.436 54.4443 48.46 55.8336 48.0644C56.1986 47.9605 56.8819 47.9495 60.5704 47.9882C62.9411 48.013 70.9534 48.0665 78.3756 48.107ZM49.3717 49.08C50.9135 49.181 52.1329 49.3292 52.0537 49.406C51.7613 49.6894 45.0841 49.9113 42.3106 49.7298C40.6012 49.618 39.3656 49.4849 39.2775 49.4033C39.1513 49.2864 42.1755 49.0215 44.2557 48.9672C45.502 48.9347 47.991 48.9896 49.3717 49.08ZM210.846 50.2969C210.657 50.3906 210.427 50.5736 210.335 50.7035C210.197 50.8977 207.276 56.797 205.966 59.5279L205.622 60.2438L204.548 57.8968C203.45 55.4994 203.245 55.1684 202.745 54.9791C202.431 54.8605 201.929 54.8719 201.619 55.0046C201.124 55.2171 200.948 55.5211 200.114 57.5977C199.669 58.7059 199.277 59.6408 199.242 59.6754C199.208 59.7099 198.752 58.798 198.23 57.649C197.257 55.5102 197.041 55.168 196.541 54.9791C195.999 54.7741 195.333 54.9279 194.938 55.3491C194.57 55.7424 190.235 66.831 190.389 66.9854C190.45 67.0457 190.69 66.5531 192.01 63.6708C193.333 60.7815 194.17 58.8893 194.839 57.2768C195.413 55.8959 195.463 55.8131 195.803 55.7007C196.342 55.5224 196.437 55.6394 197.657 57.9818C198.265 59.1494 198.794 60.1392 198.833 60.1814C198.966 60.3265 198.902 60.6182 198.53 61.5723C198.041 62.8242 196.566 66.8604 196.566 66.946C196.566 66.9827 201.808 67.0127 208.214 67.0127H219.861L219.804 66.8309C219.627 66.2707 216.815 59.6083 215.343 56.2649L215.004 55.4954L216.108 53.3741C216.715 52.2074 217.288 51.1993 217.381 51.1339C217.608 50.9741 217.943 50.9841 218.144 51.1566C218.234 51.2343 218.778 52.316 219.353 53.5602C221.185 57.5272 223.843 62.95 225.59 66.2855C225.898 66.8741 226.054 67.1089 226.054 66.9841C226.054 66.6447 220.158 52.9807 219.155 50.9954C218.909 50.5078 218.455 50.1965 217.913 50.1444C217.393 50.0943 216.85 50.2977 216.594 50.6386C216.489 50.7791 215.997 51.7077 215.502 52.7022C215.007 53.6968 214.575 54.4785 214.541 54.4393C214.507 54.4002 214.124 53.5758 213.689 52.6074C213.255 51.639 212.825 50.7527 212.735 50.6379C212.352 50.149 211.466 49.9891 210.846 50.2969ZM211.939 51.1566C212.029 51.2343 212.545 52.253 213.087 53.4203L214.071 55.5427L213.704 56.3289C211.951 60.0803 209.423 65.219 209.275 65.3344C208.982 65.561 208.617 65.5942 208.272 65.4253C207.927 65.2564 207.934 65.2684 206.676 62.5526L205.902 60.8799L206.38 60.0075C207.196 58.5185 209.318 54.5238 210.149 52.9139C210.585 52.0695 211.023 51.2969 211.122 51.197C211.34 50.9778 211.711 50.9595 211.939 51.1566ZM48.1217 52.3086C49.9383 52.39 51.4505 52.5155 51.9498 52.6261C52.2172 52.6854 52.2214 52.6913 52.0304 52.7405C50.9078 53.0299 45.1967 53.2117 42.5235 53.0431C40.9086 52.9412 39.5945 52.805 39.3456 52.7137C39.1489 52.6416 40.1927 52.5059 41.8387 52.3897C44.1281 52.2282 45.8351 52.2061 48.1217 52.3086ZM65.3971 53.7663C62.9569 53.8282 59.939 53.9804 59.2008 54.0786L58.7577 54.1376L59.3619 54.1966C62.3214 54.4854 69.1093 54.6281 73.8901 54.5019C77.565 54.4049 79.5379 54.3152 80.6314 54.1952L81.1551 54.1377L80.712 54.0784C79.3684 53.8987 72.7777 53.6745 69.473 53.6961C68.4981 53.7025 66.664 53.7341 65.3971 53.7663ZM86.1905 53.769C85.4151 53.8037 84.5871 53.8557 84.3505 53.8846C83.9611 53.9322 83.9245 53.9537 83.9624 54.1123C84.0649 54.5409 84.1019 57.1129 84.0197 58.0848C83.9708 58.6625 83.9078 59.6953 83.8799 60.38L83.8289 61.625L85.3119 61.5696C86.9511 61.5084 89.5057 61.2926 89.5844 61.2086C89.7267 61.057 90.1463 54.1101 90.0312 53.8095C89.9892 53.6998 89.8114 53.6832 88.7913 53.6937C88.1364 53.7004 86.966 53.7343 86.1905 53.769ZM113.019 54.442C113.963 54.6582 114.658 54.9038 114.937 55.1198L115.122 55.2636L114.954 56.5531C114.862 57.2622 114.745 58.397 114.695 59.0748L114.602 60.3071L114.456 59.7291C114.193 58.6903 113.728 57.5471 112.892 55.8831C112.44 54.9832 112.093 54.2473 112.121 54.2477C112.15 54.2481 112.554 54.3355 113.019 54.442ZM87.54 54.5408C88.5794 54.577 89.0912 54.624 89.0917 54.6834C89.0966 55.2501 89.2801 58.2688 89.3833 59.4808C89.4562 60.3376 89.4947 61.0597 89.4689 61.0857C89.443 61.1116 88.7583 61.0754 87.9472 61.0053C87.1361 60.9352 86.0466 60.8534 85.5258 60.8236L84.5792 60.7694L84.5775 60.5582C84.5766 60.4421 84.523 59.7108 84.4583 58.9331C84.331 57.4005 84.3069 56.0082 84.3905 55.0161L84.4435 54.3872L85.2163 54.4372C85.6414 54.4646 86.687 54.5113 87.54 54.5408ZM122.451 55.0255C122.263 55.2657 122.228 55.8225 122.388 56.0315C122.676 56.4084 123.168 56.4438 123.499 56.1115C123.766 55.8439 123.806 55.5095 123.617 55.1416C123.479 54.874 123.35 54.8126 122.928 54.8126C122.689 54.8126 122.58 54.8614 122.451 55.0255ZM49.2105 55.4602C50.6107 55.5567 51.8302 55.692 52.0568 55.776C52.2365 55.8428 51.3365 55.9603 49.4522 56.1162C48.0295 56.2339 43.356 56.2337 41.9193 56.1159C40.303 55.9833 39.2203 55.8474 39.2605 55.7822C39.2987 55.7203 40.6935 55.5631 42.0804 55.4645C43.3989 55.3708 47.8731 55.368 49.2105 55.4602ZM202.525 55.7402C202.703 55.8324 202.926 56.188 203.501 57.2955C203.91 58.0851 204.495 59.1982 204.802 59.7691L205.358 60.8071L204.737 62.1122C203.378 64.9713 203.206 65.2817 202.904 65.4254C202.554 65.5919 202.422 65.5919 202.072 65.4256C201.846 65.3181 201.724 65.1549 201.43 64.5668C200.961 63.6304 199.628 60.7252 199.628 60.6394C199.628 60.5718 201.407 56.3821 201.584 56.0323C201.669 55.8641 202.034 55.6333 202.23 55.6237C202.266 55.622 202.399 55.6743 202.525 55.7402ZM66.3309 57.3228C63.5103 57.3776 61.784 57.4511 59.4425 57.6162C58.4115 57.689 58.7763 57.7583 60.8121 57.8766C66.434 58.2031 73.6425 58.2035 79.141 57.8775C81.1427 57.7589 81.4965 57.6886 80.4703 57.6133C77.9191 57.4263 77.1965 57.4016 70.9635 57.2888C70.1437 57.2739 68.0591 57.2893 66.3309 57.3228ZM49.412 58.7712C50.8277 58.8616 52.0993 59.0104 52.1491 59.0913C52.187 59.1527 51.0747 59.2898 49.4522 59.4238C48.1307 59.533 43.4231 59.5334 42.0401 59.4244C40.4448 59.2988 39.3009 59.1615 39.3009 59.0954C39.3009 59.0277 40.5737 58.8682 41.839 58.7776C43.1266 58.6853 48.0029 58.6813 49.412 58.7712ZM138.352 60.0845C138.53 61.6788 139.533 63.377 141.352 65.1629C142.191 65.9863 143.516 67.0419 144.186 67.4194C144.466 67.5772 144.512 67.6456 144.561 67.9726C144.639 68.4938 144.781 68.8017 145.117 69.1745L145.406 69.4959L144.791 70.5569C144.224 71.5336 144.156 71.618 143.94 71.618C143.811 71.618 143.461 71.6585 143.162 71.708C142.629 71.7963 142.609 71.7932 142.099 71.5366C139.455 70.2055 137.374 68.3865 135.862 66.0829C135.037 64.8276 134.163 62.7977 133.996 61.7533C133.946 61.4365 133.958 61.4134 134.43 60.9532C135.264 60.1394 136.587 59.6231 137.924 59.589L138.296 59.5795L138.352 60.0845ZM63.4305 60.872C60.9377 60.9833 58.7871 61.1363 58.8543 61.1977C58.9314 61.268 61.1752 61.4143 63.7931 61.5197C66.2699 61.6196 73.6911 61.6192 76.2003 61.5191C78.8243 61.4145 80.9788 61.2719 81.0592 61.1976C81.0951 61.1645 80.7507 61.1124 80.2939 61.082C79.837 61.0517 78.9013 60.9897 78.2144 60.9443C76.6415 60.8405 65.3723 60.7853 63.4305 60.872ZM116.014 61.5225C116.443 61.6096 117.757 61.9329 118.934 62.2411C121.095 62.8066 122.004 63.0036 122.889 63.0976C123.609 63.1742 129.072 62.7729 131.764 62.4456C133.264 62.2634 133.129 62.2112 133.184 62.9931C133.309 64.7628 134.2 67.4563 135.494 69.9776C135.84 70.6529 136.103 71.2256 136.079 71.2502C135.988 71.3414 134.049 71.2907 133.094 71.1722C129.152 70.6827 123.082 68.8269 118.618 66.7465C116.831 65.9135 116.229 65.8038 115.207 66.125C114.354 66.3931 113.522 66.3048 113.074 65.8987C112.99 65.8226 112.844 65.6149 112.751 65.4372C112.5 64.9629 112.507 63.7289 112.766 62.8921C113.026 62.0505 113.329 61.518 113.623 61.3837C113.929 61.2436 114.924 61.3014 116.014 61.5225ZM61.2149 63.8752C59.6862 63.9131 58.3991 63.9572 58.3548 63.9732C58.3013 63.9925 58.2985 64.9357 58.3465 66.7801C58.4032 68.9546 58.3895 70.3911 58.2841 73.3955C58.21 75.5063 58.1503 78.1388 58.1514 79.2454L58.1534 81.2576L60.6308 81.2086C63.0437 81.1609 66.0746 81.0334 66.9028 80.9448L67.3137 80.9009L67.3673 79.5923C67.54 75.3832 67.5876 74.0228 67.6602 71.214C67.7514 67.6876 67.7652 64.4081 67.6905 64.0333L67.6401 63.7809L65.8173 63.7936C64.8147 63.8006 62.7437 63.8373 61.2149 63.8752ZM62.7698 64.5508C64.5512 64.5755 66.1937 64.6142 66.4199 64.637L66.8311 64.6783L66.8796 69.2187C66.9062 71.7159 66.9824 75.068 67.049 76.6677C67.1155 78.2675 67.1806 79.8491 67.1936 80.1823L67.2171 80.7883L66.5726 80.7857C66.0091 80.7835 64.234 80.7162 60.0384 80.5382L58.9022 80.4899L58.8525 77.3669C58.8251 75.6492 58.7628 73.2986 58.714 72.1432C58.6308 70.1713 58.6759 64.6442 58.7766 64.4783C58.8 64.4397 58.9794 64.4302 59.1751 64.4571C59.3709 64.484 60.9885 64.5262 62.7698 64.5508ZM135.217 66.7703C136.749 69.0764 139.105 70.8198 142.136 71.8914C142.267 71.9376 142.236 71.9797 141.93 72.1742C141.174 72.655 140.853 73.297 140.613 74.806C140.47 75.7029 140.279 77.3804 140.204 78.3913C140.172 78.8262 140.11 79.1583 140.058 79.1756C139.771 79.2722 135.993 79.5531 133.966 79.6287C128.199 79.8439 121.47 79.2803 116.428 78.16C115.37 77.925 113.907 77.5478 113.863 77.4986C113.793 77.4205 113.33 75.8136 113.191 75.1673C112.786 73.2837 112.666 70.9513 112.895 69.4281C113.003 68.7077 113.393 66.8532 113.448 66.7985C113.461 66.7852 113.696 66.8162 113.97 66.8674C114.369 66.9417 114.571 66.9378 114.973 66.8479C115.25 66.786 115.766 66.7342 116.121 66.7326L116.765 66.7299L118.618 67.6338C121.184 68.8854 122.462 69.3915 124.886 70.1163C129.018 71.3522 132.719 71.8589 135.177 71.5253C136.298 71.3732 136.179 71.3225 136.72 72.1836C136.985 72.6057 137.232 72.9831 137.27 73.0223C137.308 73.0614 136.983 72.3832 136.548 71.5151C136.112 70.647 135.575 69.4697 135.353 68.8988C134.944 67.8458 134.356 65.9458 134.257 65.3564C134.206 65.0561 134.226 65.0762 134.535 65.6392C134.718 65.9724 135.025 66.4814 135.217 66.7703ZM75.878 66.1298C73.965 66.201 71.6651 66.357 71.2741 66.442C71.0233 66.4966 71.0387 66.5049 71.4872 66.5563C73.8676 66.8291 79.3483 66.9703 83.133 66.8563C85.9463 66.7717 87.6395 66.6808 88.7284 66.5564C89.1878 66.5039 89.1978 66.4982 88.9298 66.4414C88.4907 66.3483 86.3587 66.2104 84.0152 66.1234C81.6267 66.0347 78.3627 66.0373 75.878 66.1298ZM75.2738 69.6033C73.2075 69.6906 71.044 69.8525 71.044 69.9199C71.044 70.1024 75.9931 70.3219 80.1078 70.3219C84.2788 70.3219 89.3053 70.0958 89.1145 69.9168C89.0311 69.8385 87.0372 69.6951 84.6598 69.5964C82.5202 69.5075 77.4544 69.5112 75.2738 69.6033ZM17.0645 70.8955C6.63724 70.9694 4.84375 71.0082 4.22162 71.1732C3.00434 71.496 1.81244 72.4396 1.25194 73.5241C0.684189 74.6228 0.709807 74.1808 0.707148 82.9262C0.705779 87.2606 0.670734 93.2429 0.629242 96.2203C0.510971 104.703 0.518948 107.038 0.667996 107.602C1.02362 108.949 1.9834 110.122 3.20713 110.705C3.58377 110.885 4.08409 111.071 4.31886 111.12C4.93512 111.247 14.0603 111.232 22.9862 111.09C27.0628 111.025 32.628 110.955 35.3531 110.935C40.8592 110.895 40.7524 110.905 41.8313 110.337C43.0151 109.715 43.8549 108.553 44.094 107.207C44.3213 105.927 44.6641 76.0409 44.4645 74.8967C44.1951 73.3516 43.2784 72.111 41.8585 71.37C40.7592 70.7962 41.0141 70.8114 32.7347 70.8249C28.6581 70.8316 21.6065 70.8633 17.0645 70.8955ZM120.216 71.4146C119.91 71.5458 119.787 71.7519 119.787 72.1333C119.787 72.5666 120.083 72.8667 120.512 72.8667C120.954 72.8667 121.237 72.5683 121.237 72.1028C121.237 71.5326 120.733 71.193 120.216 71.4146ZM18.9176 71.6209C25.1433 71.6636 32.4166 71.6985 35.0803 71.6987C38.0178 71.6987 40.0941 71.7311 40.3574 71.7808C41.4547 71.9882 42.6594 72.8514 43.1508 73.7824C43.7082 74.8383 43.6714 74.1998 43.7373 83.9797C43.7701 88.8456 43.8359 94.8992 43.8834 97.4322C44.037 105.61 44.0345 106.974 43.8652 107.527C43.3678 109.154 42.2015 110.281 40.5899 110.693C40.1144 110.815 39.4472 110.822 33.339 110.773C29.639 110.743 24.9077 110.685 22.825 110.644C20.7424 110.602 15.8117 110.543 11.868 110.512C5.47153 110.462 4.64354 110.442 4.19704 110.319C2.83032 109.942 1.67435 108.719 1.31776 107.273C1.15897 106.628 1.03087 96.4069 1.03143 84.4209C1.03183 74.3973 1.01072 74.8568 1.5191 73.8387C2.11698 72.6415 3.30453 71.7804 4.68528 71.543C4.9136 71.5039 5.66239 71.4879 6.34922 71.5076C7.03604 71.5273 12.6918 71.5783 18.9176 71.6209ZM74.6695 72.9161C72.7347 73.0112 70.9344 73.171 71.0554 73.2368C71.3628 73.4042 76.6513 73.6351 80.1883 73.6355C83.7003 73.6359 88.9283 73.4058 89.2398 73.2371C89.3672 73.1681 87.6073 73.0184 85.3849 72.9093C83.5783 72.8206 76.5209 72.825 74.6695 72.9161ZM75.737 75.9862C73.3247 76.0639 70.8832 76.2506 70.9821 76.3497C70.9983 76.366 71.8255 76.4438 72.8204 76.5225C75.4062 76.7274 84.7448 76.7291 87.3509 76.5251C88.3215 76.4492 89.1319 76.3708 89.1518 76.3509C89.2653 76.237 87.1172 76.0777 84.1711 75.9815C81.5107 75.8947 78.5262 75.8964 75.737 75.9862ZM22.3014 79.2634C19.3575 79.638 16.8032 80.9012 14.8161 82.965C14.3126 83.4879 14.237 83.6012 14.3327 83.6893C14.3951 83.7467 15.9145 84.9333 17.7091 86.3261C19.5037 87.7189 21.5204 89.2864 22.1907 89.8092C22.8611 90.3321 23.4439 90.7705 23.486 90.7834C23.5281 90.7964 24.5756 89.5526 25.8139 88.0195C27.0521 86.4864 28.6808 84.4708 29.4332 83.5404C30.1855 82.6101 30.83 81.8014 30.8653 81.7433C30.9482 81.6068 29.8344 80.8714 28.8069 80.3842C27.183 79.6143 25.8124 79.2986 23.9127 79.2567C23.1816 79.2406 22.4565 79.2436 22.3014 79.2634ZM75.1932 79.2975C73.2181 79.389 71.1245 79.5515 71.0846 79.6164C71.0648 79.6485 71.3285 79.6974 71.6707 79.7251C74.5369 79.9572 75.2766 79.9793 80.148 79.9793C85.022 79.9793 85.7595 79.9572 88.6318 79.7245C88.9776 79.6965 89.2313 79.647 89.1958 79.6145C89.1158 79.5413 87.1846 79.3955 84.9417 79.2933C83.0151 79.2057 77.1216 79.2081 75.1932 79.2975ZM116.645 80.499C117.771 80.7199 119.458 80.9977 120.31 81.1024C120.488 81.1241 121.031 81.1966 121.519 81.2633C125.464 81.8037 131.261 82.0969 136.222 82.0069C137.751 81.9792 139.328 81.9349 139.727 81.9085C140.822 81.8358 140.491 81.9931 139.123 82.1955C136.419 82.5955 135.009 82.7006 131.747 82.7448C127.77 82.7987 125.198 82.6167 121.881 82.0465C121.15 81.9209 120.546 81.8228 120.538 81.8286C120.531 81.8344 120.462 82.5299 120.385 83.3741C120.21 85.2821 120.186 89.2802 120.34 90.807C120.482 92.2175 120.773 93.7858 121.165 95.2402C121.92 98.0468 122.41 100.928 122.843 105.108C123.188 108.44 123.299 110.342 123.535 116.985C123.813 124.766 124.142 130.584 124.826 139.769C126.002 155.59 128.161 172.373 130.546 184.245C130.827 185.643 131.045 186.8 131.03 186.815C130.998 186.847 130.212 183.642 129.859 182.04C128.194 174.48 126.404 163.354 125.354 154.029C123.901 141.138 123.167 130.748 122.768 117.429C122.591 111.504 122.497 109.239 122.32 106.643C122.091 103.291 121.714 100.124 121.271 97.8362C121.101 96.9565 121.083 96.907 120.941 96.907C120.675 96.907 119.853 96.3814 119.442 95.9481C118.046 94.4772 117.361 91.6553 117.477 87.8579C117.542 85.7017 117.821 83.6149 118.262 81.9693C118.35 81.6412 118.41 81.3607 118.396 81.346C118.381 81.3312 117.936 81.1937 117.406 81.0403C116.349 80.7342 115.033 80.2717 115.033 80.2063C115.033 80.1835 115.115 80.1848 115.215 80.2094C115.314 80.2339 115.958 80.3642 116.645 80.499ZM120.647 80.8439C120.622 80.9083 120.603 80.8891 120.599 80.795C120.595 80.7099 120.614 80.6622 120.641 80.689C120.668 80.7158 120.671 80.7856 120.647 80.8439ZM118.446 81.7915C118.414 82.0396 118.385 84.1878 118.382 86.5652C118.377 90.6775 118.386 90.9435 118.559 92.0336C118.882 94.0637 119.355 95.3253 120.086 96.1095C120.433 96.4808 120.968 96.8803 121.033 96.8152C121.049 96.7991 120.902 96.1314 120.706 95.3315C120.141 93.016 120.02 92.0463 119.97 89.4171C119.921 86.8222 120.058 84.5129 120.4 82.1426C120.436 81.8905 120.42 81.7914 120.34 81.7669C120.279 81.7486 119.842 81.6452 119.368 81.537L118.506 81.3403L118.446 81.7915ZM30.3858 83.7575C29.7312 84.5685 28.5793 85.9956 27.8258 86.9288C27.0723 87.862 25.9192 89.291 25.2633 90.1044L24.0706 91.5834L24.4274 94.1038C24.6236 95.49 24.9948 98.1437 25.2522 100.001C25.5096 101.858 25.7411 103.411 25.7666 103.453C25.8236 103.545 26.8645 103.303 27.6993 103.004C28.0317 102.884 28.6923 102.588 29.1675 102.346C32.6096 100.589 34.927 97.4193 35.6552 93.4732C35.8574 92.3773 35.8372 90.4113 35.6121 89.2716C35.1822 87.0954 34.2859 85.1757 32.9707 83.6146C32.5033 83.0597 31.7173 82.283 31.6232 82.283C31.5972 82.283 31.0403 82.9466 30.3858 83.7575ZM13.3355 84.818C12.6312 85.8817 12.0317 87.3158 11.6932 88.7467C11.3932 90.0148 11.3415 92.1226 11.5768 93.5032C12.3269 97.9064 15.2494 101.414 19.4842 102.993C20.7095 103.45 21.6564 103.618 23.2935 103.67C24.1045 103.696 24.7601 103.684 24.8011 103.643C24.8795 103.565 23.2276 91.7377 23.126 91.6506C23.0934 91.6227 21.2721 90.2059 19.0787 88.5023C16.8853 86.7987 14.7954 85.175 14.4345 84.8943C14.0737 84.6135 13.7434 84.3837 13.7007 84.3837C13.658 84.3837 13.4936 84.5792 13.3355 84.818ZM122.328 184.416C123.033 185.146 125.085 186.775 126.361 187.615C127.97 188.675 129.863 189.464 131.011 189.554C131.563 189.598 132.194 189.836 132.194 190.002C132.194 190.185 131.845 190.723 131.611 190.9C131.148 191.251 130.788 191.297 129.93 191.116C129.513 191.028 129.01 190.955 128.81 190.955C127.326 190.952 125.165 191.793 122.244 193.509C121.491 193.952 120.716 194.377 120.522 194.455C119.832 194.73 119.1 194.84 117.646 194.886C116.105 194.935 114.568 194.812 113.047 194.518C112.255 194.365 111.935 194.207 111.797 193.904C111.465 193.173 112.596 192.394 114.912 191.758C116.382 191.354 117.013 191.095 117.786 190.581C119.458 189.467 121 187.233 121.602 185.055C121.881 184.045 121.867 184.085 121.943 184.085C121.98 184.085 122.153 184.234 122.328 184.416ZM133.309 190.587C136.124 192.215 139.744 193.465 142.063 193.609L142.869 193.66L142.841 194.306C142.782 195.652 142.697 196.125 142.454 196.472C142 197.118 141.315 197.303 140.291 197.055C138.524 196.627 136.39 197.316 132.582 199.546C130.542 200.741 130.099 200.854 127.481 200.843C125.74 200.837 124.523 200.714 123.094 200.401C122.544 200.281 122.204 199.97 122.204 199.589C122.204 199.38 122.284 199.248 122.592 198.95C123.07 198.489 123.734 198.2 125.477 197.698C127.495 197.116 128.18 196.743 129.401 195.563C130.394 194.604 131.183 193.399 131.738 191.994C131.854 191.7 132.077 191.268 132.233 191.035C132.39 190.802 132.539 190.524 132.566 190.418C132.592 190.312 132.63 190.226 132.65 190.226C132.669 190.226 132.966 190.388 133.309 190.587Z" fill="#04014D"/>
</svg>
