<svg width="208" height="171" viewBox="0 0 208 171" fill="none" xmlns="http://www.w3.org/2000/svg">
<path fill-rule="evenodd" clip-rule="evenodd" d="M22.8886 0.654966C11.2263 1.05823 5.07445 1.9486 2.0632 3.66931C0.660458 4.47077 0.129121 5.51369 0.559587 6.62058C0.641523 6.8313 1.12653 7.62375 1.63757 8.38168C3.5254 11.1822 4.98445 14.1338 6.38518 17.9864C7.27697 20.4394 8.42376 24.6775 8.9596 27.5008C9.10865 28.2863 9.25021 28.9289 9.27413 28.9289C9.29806 28.9289 9.42294 28.6875 9.55169 28.3923C10.1621 26.9929 11.8026 25.1016 13.3742 23.9852C18.0997 20.6285 25.9163 18.2109 36.5303 16.8234C39.8694 16.3869 45.0423 15.9144 45.2278 16.0289C45.2689 16.0542 45.3573 16.2064 45.424 16.3669C45.6506 16.9114 47.8791 21.9549 49.2148 24.9462C54.746 37.3334 56.5239 41.2758 59.4472 47.6358C60.1795 49.2289 61.1851 51.4194 61.6819 52.5036C62.9402 55.2499 65.6079 61.024 66.9046 63.8082C67.5023 65.0916 67.9794 66.1536 67.9649 66.1684C67.925 66.2091 66.248 65.2727 65.0652 64.5494C64.4545 64.1759 63.8973 63.8926 63.7288 63.8699C63.1985 63.7982 62.6885 64.203 62.6885 64.6955C62.6885 64.9957 63.0443 65.5779 63.4202 65.8925C63.5716 66.0193 64.2538 66.665 64.9361 67.3276L66.1766 68.5321L66.0067 69.0668C65.706 70.013 65.651 70.3121 65.647 71.0252C65.6435 71.6565 65.6687 71.7769 65.9054 72.2571C66.1763 72.8068 66.538 73.1464 67.1196 73.3973C67.6205 73.6133 69.1438 73.9673 70.3423 74.1463C70.9848 74.2422 71.5838 74.3346 71.6735 74.3516C71.8638 74.3878 71.8664 74.3928 73.5255 77.9289C74.7529 80.5449 76.5164 84.2454 78.3375 88.0266C78.8703 89.1329 79.6239 90.708 80.0122 91.5266C80.4004 92.3453 81.052 93.7031 81.4603 94.5439C81.8686 95.3847 82.539 96.7786 82.9502 97.6416C83.3614 98.5045 84.3176 100.472 85.0751 102.013L86.4525 104.816L85.3001 106.318C76.3925 117.926 67.221 131.115 61.3716 140.728L60.6861 141.854L60.942 142.082C61.0828 142.208 62.05 142.928 63.0913 143.683C64.1326 144.439 65.232 145.237 65.5343 145.459L66.0841 145.861L65.6083 146.352C65.3465 146.622 64.7501 147.277 64.283 147.808C63.3571 148.861 62.5139 149.696 62.2183 149.853C62.1148 149.908 62.0506 149.974 62.0757 149.999C62.1008 150.024 62.3506 149.932 62.6309 149.794C63.4751 149.379 64.9276 147.818 65.7913 146.398C65.9522 146.134 66.1015 145.917 66.1229 145.917C66.1444 145.917 66.749 146.32 67.4666 146.812C68.1841 147.305 68.8075 147.721 68.8518 147.738C68.8961 147.755 69.0367 147.604 69.1641 147.402C69.4673 146.922 69.5961 146.799 69.7404 146.855C69.9234 146.925 69.8836 147.094 69.5769 147.549C69.4218 147.779 69.2949 147.991 69.2949 148.019C69.2949 148.087 71.9772 149.842 73.1017 150.511C73.578 150.794 73.9678 151.053 73.9678 151.088C73.9678 151.122 73.614 151.575 73.1815 152.094C72.1571 153.324 71.4267 154.262 70.9116 155.009L70.4957 155.613L69.7946 155.709C69.409 155.761 68.7309 155.917 68.2878 156.055C67.8188 156.201 67.2099 156.325 66.8307 156.352C64.5534 156.516 62.4708 154.936 61.9114 152.62C61.8166 152.228 61.7862 151.799 61.8039 151.107C61.8654 148.704 61.857 148.567 61.6219 148.118C61.1984 147.309 60.4697 146.954 59.6068 147.134C59.0464 147.251 58.094 147.75 57.4763 148.249C57.2018 148.471 56.9069 148.653 56.821 148.653C56.6184 148.653 46.4641 146.612 43.997 146.076C41.4048 145.512 41.022 145.445 40.0466 145.384C38.7233 145.302 37.6724 145.55 37.0281 146.097C36.894 146.211 36.5798 146.709 36.3224 147.216C35.5741 148.69 35.5136 149.734 36.0924 151.178C36.4437 152.054 36.9696 152.808 37.9143 153.79C40.2078 156.175 43.9416 158.455 49.1263 160.637C54.4115 162.862 57.5947 164.933 59.0457 167.09C60.6343 169.452 62.4625 170.598 64.1865 170.313C64.4819 170.264 64.9817 170.101 65.2972 169.951C66.8929 169.19 67.8691 167.71 68.0936 165.711C68.2798 164.052 69.1742 162.407 70.5952 161.11C71.8838 159.933 72.6788 158.783 72.7974 157.922C72.9521 156.798 72.1887 155.87 70.9622 155.69L70.5751 155.633L71.1677 155.02C72.3041 153.843 73.318 152.534 73.8487 151.561C73.9726 151.333 74.0974 151.147 74.1261 151.147C74.1547 151.147 74.575 151.364 75.0599 151.629C75.965 152.124 77.1421 152.598 77.4564 152.593C77.601 152.591 77.8996 152.158 79.0798 150.24C87.8771 135.939 96.003 122.929 98.1621 119.688C98.6485 118.957 99.3072 118.034 99.626 117.636C100.758 116.221 103.607 113.152 107.282 109.388C116.248 100.205 119.995 96.1235 120.879 94.578C120.978 94.405 121.083 94.2632 121.112 94.2629C121.142 94.2625 121.264 94.5248 121.384 94.8456C122.667 98.2785 125.204 103.731 127.102 107.136C131.55 115.115 136.295 120.69 140.985 123.447C143.314 124.815 145.898 125.577 147.799 125.456C149.075 125.374 152.051 124.742 155.299 123.862C161.18 122.268 168.741 119.707 176.408 116.71C177.338 116.347 178.111 116.039 178.124 116.027C178.168 115.987 178.455 114.035 178.661 112.372C178.773 111.469 178.874 110.723 178.885 110.715C179.012 110.625 182.981 110.329 184.526 110.295L186.521 110.251L186.306 110.635C186.146 110.919 186.081 111.169 186.053 111.596C185.997 112.481 186.294 112.945 187.204 113.39C187.685 113.625 188.158 113.734 189.151 113.84L190.047 113.935L192.003 116.509C193.66 118.691 196.353 122.278 199.133 126.006C199.932 127.077 201.129 128.242 201.789 128.591C202.053 128.731 202.49 128.889 202.759 128.941C203.224 129.032 203.284 129.024 204.007 128.777C205.605 128.232 206.384 127.622 206.967 126.459C207.472 125.45 207.587 124.82 207.586 123.067C207.584 120.975 207.247 119.14 206.369 116.443C205.688 114.349 205.088 112.93 202.894 108.222C201.585 105.413 200.825 102.908 200.598 100.654C200.528 99.9626 200.532 99.5317 200.615 98.7189C200.741 97.4866 200.69 95.8798 200.504 95.2013C199.987 93.3167 198.556 92.2483 196.553 92.252C195.145 92.2545 193.992 92.742 192.763 93.8542C192.125 94.4318 191.096 94.9645 190.024 95.2734C189.437 95.4423 189.021 95.4959 187.848 95.5536C185.825 95.6531 184.759 95.9514 184.11 96.6005C183.696 97.0137 183.583 97.2981 183.583 97.9232C183.583 98.5228 183.727 98.9041 184.136 99.3892L184.338 99.6297L183.487 99.6847C182.406 99.7544 180.88 100.012 179.995 100.275C178.901 100.599 179.011 100.629 178.805 99.9467C178.687 99.555 178.513 99.2067 178.305 98.9432C177.873 98.3972 177.459 98.2967 176.174 98.4249C172.064 98.8352 163.719 101.685 151.087 106.993L148.969 107.882L148.762 107.69C148.13 107.105 147.029 105.566 146.15 104.038C143.969 100.247 142.372 95.1868 141.649 89.7775C141.26 86.864 141.21 85.9123 141.202 81.1875C141.195 77.2834 141.175 76.5636 141.051 75.7967C140.444 72.0377 139.192 69.1078 137.041 66.4114C136.302 65.4845 134.918 64.1709 133.784 63.3206C133.277 62.9402 132.862 62.6 132.862 62.5647C132.862 62.5295 132.948 62.3061 133.052 62.0682C133.417 61.2417 133.538 60.7048 133.539 59.9059C133.541 59.2822 133.507 59.0659 133.358 58.7307C133.137 58.2364 132.729 57.8224 132.154 57.5086C131.732 57.2784 130.693 56.3273 127.787 53.5094C123.087 48.9528 117.588 43.7462 116.412 42.7399C115.939 42.335 115.549 41.9772 115.546 41.9448C115.543 41.9125 116.274 41.3359 117.171 40.6637C118.069 39.9913 118.831 39.4023 118.864 39.3547C118.898 39.307 118.911 39.2047 118.892 39.1272C118.873 39.048 118.904 38.9864 118.963 38.9864C119.325 38.9864 122.652 41.7476 127.207 45.8295L127.885 46.4369L127.873 48.1628C127.862 49.6633 127.882 49.972 128.025 50.5265C128.221 51.287 128.679 52.0455 129.047 52.2215C129.38 52.3806 130.193 52.3766 131.012 52.2117L131.663 52.0807L131.88 52.2823C132.183 52.5647 132.404 52.6646 132.726 52.6646C132.948 52.6646 133.063 52.5999 133.292 52.3459L133.581 52.0272L133.819 52.2654C134.193 52.6388 134.627 52.5712 135.052 52.0731L135.268 51.8197L135.539 52.0812C135.937 52.4655 136.304 52.448 136.665 52.0272L136.935 51.7117L137.134 51.8645C137.25 51.9531 137.465 52.0181 137.646 52.0191C137.901 52.0206 138.008 51.9683 138.228 51.7357C138.624 51.3166 138.743 50.8133 138.742 49.5723C138.74 47.6971 138.383 46.8799 137.446 46.6021C137.266 46.5487 136.712 45.6853 135.667 43.831C133.222 39.4937 129.363 33.5504 126.748 30.0956C125.75 28.7775 124.637 27.4923 123.737 26.6202C122.402 25.3265 121.533 24.85 120.643 24.9238C119.804 24.9933 118.155 25.9947 116.611 27.3735L116.029 27.892L115.91 27.6059C115.82 27.391 115.742 27.3197 115.597 27.3197C115.476 27.3197 114.474 27.9711 112.914 29.0624C105.375 34.3387 100.01 38.6189 98.3283 40.6996L98.0817 41.0048L97.6274 40.8351C96.9897 40.5968 96.3483 40.1481 95.4752 39.3293C94.8875 38.7782 94.7575 38.6852 94.8796 38.903C94.9655 39.0564 95.3259 39.476 95.6804 39.8355C96.3564 40.521 97.0647 40.9533 97.6704 41.05C98.0196 41.1058 98.0133 41.0949 97.8656 41.3841C97.8046 41.5036 97.7298 41.9272 97.6992 42.3255C97.4686 45.3357 96.5996 47.9026 95.4642 48.9269C95.2822 49.0911 94.8939 49.3331 94.6012 49.4647C94.3085 49.5962 93.9476 49.7953 93.7991 49.9071C93.5482 50.0961 93.5055 50.1035 93.1948 50.0129C92.6966 49.8675 91.8048 49.3692 91.0198 48.7975C90.6364 48.5183 90.3245 48.2694 90.3268 48.2444C90.3289 48.2195 90.5117 48.0542 90.733 47.8772C91.6505 47.143 92.522 45.9109 92.9098 44.7999C93.4436 43.2702 93.023 41.414 91.802 39.9117C90.8719 38.7672 90.5942 37.5969 90.9667 36.3922C91.2393 35.5109 92.0153 34.722 92.6098 34.722C93.3428 34.722 94.2584 35.9116 94.2951 36.9115C94.3069 37.232 94.2529 37.4657 94.0762 37.8588C93.9051 38.2393 93.8397 38.5135 93.8345 38.8722C93.8261 39.4538 93.7393 39.5836 93.1828 39.8468L92.78 40.0374L93.111 40.0038C93.5575 39.9586 94.0103 39.7333 94.0799 39.5218C94.1113 39.4264 94.1302 39.0226 94.1219 38.6243L94.1069 37.9002L94.4188 38.2495L94.7308 38.5989L94.7839 38.33C94.813 38.1821 95.0343 37.6628 95.2756 37.1761C95.9379 35.84 96.0672 35.1819 95.8777 34.1133C95.6764 32.9778 95.0908 31.6679 94.3391 30.671C93.6028 29.6947 91.891 28.0385 91.0553 27.4938C89.2589 26.323 87.6557 26.0289 85.6881 26.5093C83.4499 27.0557 81.9384 27.8087 80.821 28.9337C79.687 30.0753 79.124 31.575 79.124 33.4542C79.124 34.2186 79.132 34.2573 79.265 34.1418C79.4942 33.9429 79.8028 33.9115 80.1999 34.0466L80.5723 34.1733L80.7663 33.9448C81.0681 33.5894 81.7553 33.221 82.5341 32.9971C83.3802 32.7538 85.1992 32.5804 86.0025 32.6663C86.5436 32.7241 86.5494 32.7273 86.4968 32.9364C86.3916 33.3548 86.0445 33.9848 85.8483 34.1131C85.6583 34.2374 85.6543 34.2558 85.7678 34.4749C86.0777 35.0735 87.3055 35.799 88.0086 35.799C88.3777 35.799 88.4186 35.8211 88.7252 36.1867C89.251 36.814 89.7991 37.7953 90.0493 38.5576C90.2628 39.2081 90.2821 39.363 90.2783 40.3944C90.2742 41.4953 90.2667 41.5428 89.9459 42.4864C89.3405 44.2676 88.8683 45.0373 88.2225 45.2953C87.6922 45.5072 87.3426 45.4072 86.3112 44.7487C85.7094 44.3646 84.8577 44.0047 84.3634 43.9258C84.014 43.87 83.9695 43.8104 84.1594 43.6531C84.308 43.5299 84.313 43.0994 84.1681 42.9088C84.024 42.7192 83.9317 42.7295 84.0357 42.9236C84.1404 43.119 84.143 43.458 84.0415 43.6476C83.9954 43.7336 83.8282 43.8142 83.6302 43.8458C82.9279 43.9579 82.6689 44.2398 82.6689 44.8918C82.6689 45.5568 83.6559 47.1288 84.6974 48.1224C85.5824 48.9669 86.2893 49.3044 87.2708 49.3512C88.1632 49.3939 88.8358 49.2036 89.6644 48.6742L90.2549 48.2968L90.6131 48.7057C91.2604 49.4448 92.5816 50.1703 93.2799 50.1703H93.4836L93.2106 50.472C92.0957 51.7046 91.1763 53.5969 90.6538 55.734C90.1931 57.6186 90.1222 58.3752 90.1217 61.4105C90.1215 63.1386 90.1513 64.1921 90.2019 64.2425C90.2556 64.2959 90.2828 63.5931 90.2833 62.1344C90.2843 59.7218 90.3916 58.6078 90.8043 56.7278C91.2215 54.8264 91.8531 53.2486 92.7162 51.9508C93.2877 51.0915 94.1522 50.2212 94.569 50.0858C94.7371 50.0313 95.0379 49.9028 95.2373 49.8004C95.7153 49.555 96.5897 49.4222 97.2917 49.4886C97.9425 49.55 98.8896 49.8436 99.3987 50.1415C99.7628 50.3546 99.9907 50.3497 99.9907 50.1289C99.9907 49.9719 98.8591 49.4204 98.1812 49.2471C97.9171 49.1796 97.3642 49.1243 96.9525 49.1243C96.5408 49.1243 96.2041 49.102 96.2041 49.0748C96.2041 49.0475 96.3266 48.8574 96.4764 48.6524C97.4264 47.3519 98.1079 45.1407 98.3715 42.5039C98.443 41.7882 98.4763 41.6812 98.7376 41.3255C98.8957 41.1105 99.4413 40.5349 99.9501 40.0465C102.255 37.8339 106.575 34.4939 113.092 29.8881C115.103 28.4668 115.379 28.288 115.379 28.4084C115.379 28.4413 115.799 30.0112 116.312 31.8969C117.777 37.2828 118.199 38.8709 118.199 38.9993C118.199 39.0916 114.972 41.6818 114.857 41.6818C114.842 41.6818 114.437 41.3859 113.956 41.0242C112.705 40.0823 111.309 39.2118 110.102 38.6208C108.962 38.0626 108.079 37.7828 108.962 38.2593C109.221 38.3993 110.29 39.0486 111.338 39.7023C112.386 40.3559 113.595 41.099 114.025 41.3537C114.467 41.616 114.816 41.8779 114.83 41.9578C114.844 42.0354 115.327 42.4971 115.903 42.9837C117.353 44.2091 122.011 48.4477 125.126 51.3772C127.43 53.5446 131.198 57.1346 131.369 57.3264C131.457 57.4244 131.724 57.5972 131.964 57.7104C132.941 58.1719 133.314 58.8674 133.244 60.0986C133.195 60.9593 132.801 62.1731 132.51 62.3558C132.416 62.4154 131.867 62.5611 131.291 62.6797C129.153 63.1197 126.619 63.8255 124.12 64.6773C119.471 66.2619 114.459 68.9719 111.777 71.3505L111.359 71.7212L110.87 71.6073C109.414 71.2681 108.683 70.4438 108.404 68.8248C108.168 67.4605 107.831 66.7556 107.044 65.9807C106.184 65.1333 105.365 64.8017 103.731 64.6398C103.179 64.5852 102.692 64.5185 102.649 64.4918C102.6 64.4618 102.645 64.1496 102.765 63.6757C103.091 62.3907 103.228 60.5315 103.057 59.7048C103.02 59.5278 102.984 59.4011 102.976 59.4232C102.969 59.4453 102.842 60.5777 102.696 61.9396C102.496 63.7902 102.397 64.4511 102.303 64.5553C102.233 64.632 102.097 64.9841 102.001 65.3377C101.904 65.6913 101.815 65.9926 101.801 66.0074C101.788 66.022 101.112 65.9054 100.3 65.7483C98.1609 65.3346 96.1594 65.0155 94.2302 64.7805C93.2997 64.6672 92.0753 64.5145 91.5094 64.4411C90.9435 64.3678 90.4607 64.3274 90.4367 64.3515C90.4126 64.3755 90.5766 64.4204 90.801 64.4512C91.0254 64.482 91.2085 64.531 91.2078 64.5601C91.2073 64.5891 90.9404 65.6085 90.6148 66.8255C90.2892 68.0424 89.9198 69.4726 89.7938 70.0036C89.6679 70.5347 89.5569 70.9815 89.5472 70.9965C89.5375 71.0116 89.1816 70.9436 88.7564 70.8454C88.0621 70.6852 87.8664 70.6731 86.8367 70.7273C84.6869 70.8403 84.581 70.8333 83.3842 70.5006C82.7806 70.3328 80.5383 69.6441 78.4014 68.9701L74.5161 67.7446L74.1578 67.2649C72.8229 65.4779 71.145 64.4681 69.2961 64.3388L68.6125 64.291L67.8204 62.5611C66.8666 60.4779 64.4199 55.2233 62.7066 51.5784C62.0201 50.118 61.2683 48.5068 61.0359 47.9979C60.8034 47.489 60.2425 46.2942 59.7893 45.3427C59.3362 44.3913 58.6103 42.8525 58.176 41.9232C57.7418 40.9939 57.1075 39.6542 56.7663 38.9462C56.4251 38.2381 55.6103 36.5364 54.9558 35.1646C54.3012 33.7927 52.9042 30.8781 51.8513 28.6876C50.7984 26.497 49.5112 23.8177 48.991 22.7335C48.4708 21.6493 47.4763 19.6036 46.7811 18.1876C46.0858 16.7715 45.0291 14.6172 44.4329 13.4002C43.8366 12.1832 42.3059 8.85221 41.0311 5.9979L38.7133 0.808244L37.4679 0.756026C36.0658 0.69721 24.0712 0.614012 22.8886 0.654966ZM193.125 20.5645C192.527 20.6914 191.421 20.9258 190.668 21.0855C183.617 22.5801 169.409 26.2316 161.987 28.4569C159.526 29.1945 158.305 29.584 158.341 29.6199C158.442 29.7206 167.507 27.6694 173.145 26.2704C175.973 25.5687 183.367 23.6209 185.991 22.8864C188.229 22.26 194.186 20.5014 194.535 20.3642C194.796 20.2616 194.061 20.3659 193.125 20.5645ZM121.581 25.6359C122.166 25.9473 123.335 26.9923 124.094 27.883C126.132 30.2745 131.95 38.8113 134.957 43.8222C135.955 45.4841 136.521 46.3442 136.859 46.7113C136.988 46.8517 137.022 46.949 136.972 47.0303C136.913 47.1247 136.844 47.0898 136.609 46.8484C136.362 46.5947 136.266 46.5496 135.971 46.5496C135.731 46.5496 135.53 46.6133 135.321 46.7547C135.043 46.943 135.007 46.9494 134.878 46.8328C134.479 46.4721 133.833 46.5314 133.47 46.962L133.267 47.2027L132.956 46.8761C132.73 46.6393 132.58 46.5496 132.409 46.5496C131.877 46.5496 131.573 47.0026 131.573 47.7927C131.573 48.2923 131.563 48.3197 131.383 48.3197C131.279 48.3197 131.084 48.2815 130.95 48.2348C130.725 48.1566 130.703 48.1141 130.669 47.7084C130.647 47.4408 130.569 47.1813 130.471 47.0492C130.28 46.7915 129.827 46.4692 129.656 46.4692C129.589 46.4692 129.655 46.5507 129.801 46.6502C130.236 46.9456 130.4 47.2329 130.445 47.7743C130.479 48.1932 130.518 48.2875 130.712 48.4323C130.919 48.5861 131.077 48.605 132.462 48.6416C133.779 48.6764 134.004 48.701 134.127 48.8247C134.258 48.9553 134.26 48.9865 134.147 49.1868C133.936 49.5634 132.737 50.0458 131.409 50.2882C131.297 50.3086 130.935 50.5807 130.604 50.8925L130.002 51.4597L130.686 50.9773C131.063 50.712 131.433 50.4943 131.509 50.4936C131.666 50.4919 131.762 50.8608 131.72 51.3007C131.695 51.5623 131.672 51.5804 131.25 51.6776C131.007 51.7337 130.485 51.7865 130.091 51.7949C129.421 51.809 129.365 51.7975 129.217 51.6145C128.951 51.2865 128.697 50.7186 128.588 50.2105C128.482 49.7116 128.459 47.3209 128.554 46.6202C128.613 46.1825 128.697 46.2746 126.618 44.4938C123.44 41.7715 120.281 39.4042 119.045 38.8174C118.912 38.7543 118.803 38.6616 118.803 38.6115C118.803 38.5614 119.093 38.3131 119.447 38.0597C120.335 37.4258 121.327 36.5757 121.652 36.1718L121.923 35.8347L121.675 35.9632C121.299 36.1574 119.924 37.2161 119.28 37.8074L118.709 38.3315L117.81 34.8572C117.316 32.9464 116.715 30.6294 116.474 29.7084L116.036 28.0339L116.831 27.4432C117.268 27.1184 117.945 26.6555 118.335 26.4145C120.089 25.3315 120.723 25.1793 121.581 25.6359ZM180.718 32.723C175.397 33.8422 173.012 34.3954 166.377 36.0487C161.382 37.2936 160.199 37.6048 154.897 39.0684C149.811 40.4723 145.322 41.8067 145.493 41.8636C145.697 41.9315 154.663 39.9119 159.564 38.6941C164.901 37.368 170.853 35.7899 175.176 34.5546C177.398 33.9197 181.715 32.6273 181.758 32.5841C181.825 32.5171 181.475 32.5639 180.718 32.723ZM79.124 34.4476C79.124 34.7537 79.3972 36.7446 79.5301 37.4063C79.7273 38.3892 80.1085 39.6277 80.3544 40.0842C80.5196 40.391 81.4604 41.255 81.4604 41.0998C81.4604 41.0626 81.2804 40.855 81.0604 40.6386C80.4409 40.0292 80.1806 39.2502 79.5213 36.0322C79.2349 34.6349 79.124 34.1924 79.124 34.4476ZM187.244 37.3765C184.367 38.0083 179.491 39.304 176.327 40.2776C173.211 41.2369 168.576 42.8651 168.823 42.9143C169.366 43.0226 175.891 41.3704 181 39.8311C184.033 38.9174 188.302 37.4523 188.835 37.1426C188.965 37.0669 188.963 37.0605 188.815 37.0637C188.727 37.0655 188.02 37.2063 187.244 37.3765ZM86.1379 38.3525C84.9702 38.4876 83.6536 38.9647 83.2732 39.3905L83.112 39.5709L83.4452 39.4025C83.8193 39.2132 85.2873 38.7586 86.234 38.5387C86.5774 38.459 86.8584 38.3642 86.8584 38.328C86.8584 38.2919 86.8311 38.2669 86.798 38.2727C86.7648 38.2784 86.4677 38.3143 86.1379 38.3525ZM80.9623 39.8826C81.5419 40.1691 81.59 40.3057 81.4647 41.3088C81.304 42.5952 81.27 43.5602 81.3733 43.9042C81.4914 44.2982 81.8008 44.54 82.1763 44.5318C82.4783 44.5252 82.4619 44.506 82.0823 44.4223C81.5551 44.306 81.4088 43.4786 81.6618 42.0439C81.8401 41.033 81.8229 40.427 81.608 40.1542C81.4292 39.9271 81.0142 39.7105 80.758 39.7106C80.6791 39.7106 80.771 39.788 80.9623 39.8826ZM84.5824 39.8779C84.4204 39.9721 84.3931 40.3543 84.5381 40.4991C84.7005 40.6613 84.9922 40.61 85.1336 40.3944C85.2558 40.2081 85.2558 40.1785 85.1336 39.9921C84.9941 39.7796 84.8151 39.7425 84.5824 39.8779ZM132.91 47.145C133.15 47.3846 133.184 47.4695 133.184 47.8289C133.184 48.2007 133.167 48.2394 133.003 48.24C132.903 48.2403 132.631 48.2635 132.399 48.2914L131.976 48.3422V47.8043C131.976 47.3405 132.003 47.2392 132.173 47.069C132.438 46.8047 132.584 46.8198 132.91 47.145ZM134.662 47.2939L134.997 47.6358L135 48.9634C135.001 49.6936 135.048 50.5367 135.103 50.8371L135.204 51.3832L134.953 51.7323C134.667 52.1305 134.373 52.3005 134.164 52.189C134.088 52.1483 133.936 51.9399 133.827 51.726C133.651 51.3835 133.63 51.2531 133.653 50.6365C133.676 50.0199 133.698 49.93 133.84 49.8852C133.928 49.8572 134.125 49.7251 134.277 49.5916C134.501 49.3955 134.554 49.2907 134.554 49.0444C134.554 48.6436 134.363 48.4352 133.87 48.2962C133.495 48.1905 133.461 48.1591 133.364 47.8289C133.261 47.4755 133.261 47.4745 133.543 47.2134C133.95 46.8372 134.236 46.8577 134.662 47.2939ZM136.543 47.1224C136.729 47.2374 136.804 47.3336 136.772 47.4177C136.551 47.9903 136.534 49.6193 136.735 50.7725C136.819 51.2565 136.813 51.3128 136.636 51.6283C136.532 51.814 136.389 52.0018 136.318 52.0455C136.112 52.1732 135.8 52.0452 135.564 51.736C135.345 51.4499 135.344 51.444 135.324 49.9447C135.313 49.1173 135.276 48.2564 135.242 48.0315C135.18 47.6312 135.186 47.6155 135.498 47.2873C135.868 46.8987 136.117 46.8595 136.543 47.1224ZM137.873 47.359C138.217 47.7232 138.357 48.3048 138.401 49.5578C138.444 50.7885 138.381 51.1403 138.049 51.5345C137.78 51.8542 137.525 51.8494 137.178 51.518L136.905 51.2565L136.96 49.245C136.99 48.1387 137.043 47.1894 137.077 47.1356C137.176 46.9771 137.633 47.1053 137.873 47.359ZM133.368 50.7752C133.496 51.3672 133.496 51.3865 133.328 51.6804C132.91 52.4127 132.642 52.4576 132.138 51.8801C131.809 51.5038 131.804 51.4906 131.849 51.0217C131.875 50.7598 131.908 50.5323 131.924 50.5164C131.955 50.4859 133 50.2001 133.15 50.1813C133.197 50.1752 133.295 50.4425 133.368 50.7752ZM101.763 50.7014C101.763 50.7723 101.995 51.0802 102.278 51.3856C102.845 51.9971 103.378 52.9418 103.534 53.6125C103.589 53.8462 103.621 54.3169 103.605 54.6584C103.578 55.2344 103.588 55.2795 103.736 55.2795C103.923 55.2795 103.995 55.035 104.01 54.351C104.033 53.267 103.458 52.042 102.417 50.9548C102.05 50.5716 101.763 50.4604 101.763 50.7014ZM133.001 64.1384C132.974 64.1652 132.905 64.1681 132.847 64.1448C132.782 64.1191 132.802 64.1001 132.895 64.0962C132.98 64.0927 133.028 64.1117 133.001 64.1384ZM65.5491 65.1468C68.0405 66.5198 68.8544 66.9034 69.2801 66.9048C69.6866 66.9061 69.9394 66.7927 69.9394 66.6088C69.9394 66.4389 69.4216 65.7746 68.8562 65.219C68.6101 64.9772 68.4087 64.7455 68.4087 64.7043C68.4087 64.5717 69.5993 64.7236 70.2454 64.9386C71.5041 65.3575 72.7396 66.3213 73.6344 67.5825L74.0963 68.2335L75.9023 68.8612C79.414 70.0817 82.4706 70.9972 84.1962 71.3454C85.031 71.5139 85.0456 71.514 85.8075 71.367C86.7911 71.177 88.2146 71.1767 88.9934 71.3662C89.9167 71.591 91.1998 72.2801 92.6066 73.3068C93.3089 73.8194 93.8991 74.2232 93.9182 74.2041C93.9695 74.153 91.8698 72.3684 91.3198 71.9957C91.0594 71.8193 90.5835 71.5428 90.2623 71.3814C89.9411 71.22 89.6782 71.0611 89.6782 71.0285C89.6782 70.996 89.8754 70.3718 90.1166 69.6417C90.3576 68.9114 90.7933 67.5662 91.0848 66.6523L91.6147 64.9906L91.9556 65.0287C93.1031 65.1571 100.292 66.2273 100.577 66.3122C100.739 66.3606 100.752 66.1446 100.428 68.7967C99.6398 75.2448 97.8445 80.4314 96.0915 81.3245C94.7794 81.993 89.8293 80.4912 78.5112 75.9904L74.8772 74.5454L73.9795 74.4667C72.4586 74.3334 68.9846 73.5876 67.7802 73.1359C67.0323 72.8553 66.6958 72.6006 66.4309 72.1145C66.2377 71.76 66.204 71.6068 66.2061 71.0919C66.2088 70.432 66.359 69.7578 66.6841 68.9462C66.8881 68.4369 66.8896 68.42 66.7446 68.2583C66.5275 68.0164 64.2442 65.9464 63.7974 65.5866C63.2687 65.1607 63.0426 64.7834 63.161 64.5241C63.2424 64.3455 63.4829 64.1888 63.6961 64.1754C63.7406 64.1726 64.5745 64.6098 65.5491 65.1468ZM131.009 64.6194C130.056 64.8623 128.842 65.188 128.31 65.3432C127.369 65.6175 124.629 66.5001 124.579 66.5446C124.565 66.5568 124.609 66.7787 124.677 67.0377C124.787 67.4603 124.788 67.5211 124.677 67.6297C124.567 67.7376 124.542 67.7346 124.443 67.6026C124.383 67.521 124.309 67.3103 124.279 67.1343C124.249 66.9583 124.173 66.7942 124.108 66.7696C123.917 66.6963 119.08 68.6759 118.786 68.9479C118.582 69.1371 119.552 71.166 120.438 72.4005C120.963 73.132 122.061 74.2154 122.751 74.683C123.787 75.3852 125.008 75.9042 126.325 76.203C126.785 76.3072 127.176 76.4078 127.195 76.4265C127.214 76.4453 127.303 76.7225 127.394 77.0427C127.563 77.6389 127.528 77.8407 127.273 77.7428C127.145 77.6937 126.781 76.6071 126.854 76.4901C126.877 76.4527 126.662 76.3981 126.377 76.3689C125.056 76.2338 123.538 75.6757 122.373 74.897C120.722 73.7933 119.267 71.7302 118.717 69.7095C118.64 69.4288 118.55 69.1677 118.516 69.1295C118.371 68.966 114.73 71.1101 113.163 72.2813C112.897 72.48 112.752 72.5603 112.841 72.4597C113.33 71.9044 116.15 69.9989 117.866 69.0641C118.451 68.7449 118.458 68.7374 118.414 68.4652C118.388 68.3024 118.4 68.2088 118.445 68.2365C118.487 68.2622 118.521 68.3475 118.521 68.426C118.521 68.5045 118.542 68.5902 118.569 68.6164C118.595 68.6425 118.966 68.5012 119.394 68.3023C120.566 67.7579 122.165 67.0823 123.113 66.7314C123.579 66.5592 124.032 66.3886 124.12 66.3524C124.491 66.201 126.694 65.5207 127.661 65.259C128.567 65.0138 131.559 64.3235 132.137 64.2261C132.909 64.0961 132.494 64.2407 131.009 64.6194ZM103.823 65.1736C105.246 65.3645 105.727 65.5697 106.533 66.3292C107.229 66.9846 107.59 67.6846 107.765 68.7163C107.947 69.7865 108.09 70.2101 108.454 70.7546C108.999 71.5692 109.61 71.9558 110.821 72.2523L111.552 72.4311L111.645 72.8266C111.696 73.0441 111.741 73.2837 111.746 73.3591C111.75 73.4345 111.416 73.8871 111.003 74.3649C110.591 74.8427 109.238 76.4465 107.998 77.9289C101.021 86.2688 95.0227 93.7218 88.2293 102.49C87.4145 103.542 86.7226 104.375 86.6918 104.341C86.6609 104.307 86.4142 103.766 86.1435 103.137C85.5376 101.731 82.7351 95.4182 80.6318 90.722C77.6791 84.1292 76.6778 81.9073 75.0113 78.2508C74.0937 76.2373 73.3564 74.575 73.3729 74.5567C73.3894 74.5385 73.7132 74.5696 74.0923 74.626C74.607 74.7025 74.9694 74.82 75.5228 75.0898C78.5278 76.5552 82.9554 78.461 86.1106 79.647C90.3065 81.2242 94.2458 82.2436 95.5019 82.0772C96.4745 81.9483 97.1999 81.2909 97.919 79.8864C98.4445 78.8603 98.8867 77.5808 99.3477 75.753C99.7562 74.1332 100.441 70.7089 100.85 68.2462L101.153 66.4141L101.652 66.4674C102.094 66.5147 102.155 66.5038 102.193 66.3714C102.57 65.0843 102.583 65.0554 102.763 65.0554C102.861 65.0554 103.338 65.1086 103.823 65.1736ZM136.205 66.8312C136.028 66.9173 135.598 67.1151 135.25 67.2708C134.748 67.4949 134.626 67.5825 134.66 67.6924C134.685 67.7688 134.957 68.4134 135.266 69.125C136.111 71.0739 136.958 73.6375 137.168 74.8887C137.212 75.1494 137.257 75.198 137.518 75.2704C138.16 75.4486 139.047 75.3124 139.807 74.9185C140.019 74.8084 140.193 74.7329 140.193 74.7508C140.193 74.8449 139.405 75.3041 139.011 75.4395C138.506 75.6131 137.553 75.6496 137.153 75.5106C136.938 75.4357 136.899 75.3712 136.819 74.9669C136.769 74.7146 136.583 74.0251 136.404 73.4347C136.128 72.5211 135.798 71.5923 134.451 67.9337C134.358 67.6804 134.307 67.4474 134.338 67.4159C134.404 67.3502 136.326 66.6747 136.447 66.6746C136.491 66.6745 136.383 66.745 136.205 66.8312ZM125.162 68.9362C125.285 69.4062 125.302 69.58 125.231 69.6503C125.052 69.8294 124.905 69.6507 124.766 69.0849C124.616 68.4721 124.643 68.2463 124.862 68.2884C124.96 68.3072 125.048 68.4959 125.162 68.9362ZM125.509 70.3858C125.62 70.5288 125.866 71.5663 125.809 71.6575C125.747 71.7588 125.553 71.7544 125.488 71.6502C125.46 71.6045 125.368 71.3266 125.284 71.0329C125.171 70.6381 125.154 70.471 125.22 70.392C125.33 70.2587 125.408 70.257 125.509 70.3858ZM126.081 72.4376C126.121 72.515 126.202 72.7707 126.261 73.0059C126.354 73.3739 126.353 73.4438 126.252 73.5076C126.029 73.6485 125.966 73.5819 125.825 73.0538C125.716 72.6449 125.705 72.4976 125.778 72.4101C125.904 72.2591 125.993 72.2672 126.081 72.4376ZM126.812 75.0031C126.941 75.4471 126.966 75.6418 126.903 75.7053C126.741 75.8665 126.554 75.643 126.402 75.1078C126.24 74.5359 126.256 74.3887 126.482 74.3887C126.601 74.3887 126.671 74.5191 126.812 75.0031ZM115.936 82.0726C116.793 83.9312 117.873 86.339 118.338 87.4232C119.727 90.6685 120.623 92.8338 120.59 92.8666C120.499 92.9576 112.297 74.8754 112.323 74.6397C112.337 74.5109 114.539 79.042 115.936 82.0726ZM127.952 78.9908C128.126 79.575 128.116 79.7795 127.914 79.7795C127.758 79.7795 127.72 79.7097 127.54 79.0789C127.431 78.6986 127.411 78.5154 127.471 78.4427C127.63 78.2518 127.784 78.4272 127.952 78.9908ZM128.533 81.0015C128.703 81.5717 128.679 81.8196 128.457 81.7768C128.368 81.7596 128.264 81.5585 128.149 81.1843C127.956 80.5518 127.968 80.4027 128.209 80.4388C128.335 80.4577 128.41 80.5873 128.533 81.0015ZM129.147 83.018C129.298 83.4829 129.326 83.6643 129.258 83.7325C129.082 83.9083 128.922 83.726 128.752 83.1555C128.57 82.5456 128.586 82.3257 128.808 82.3685C128.899 82.3861 129.012 82.6021 129.147 83.018ZM129.623 84.587C129.924 85.3846 129.966 85.6025 129.841 85.727C129.735 85.8336 129.706 85.834 129.612 85.7306C129.463 85.5675 129.204 84.6472 129.263 84.4924C129.34 84.2935 129.531 84.3439 129.623 84.587ZM116.46 85.541C116.665 85.6195 116.611 85.7679 116.205 86.2508C115.946 86.5586 115.773 86.6976 115.667 86.6819C115.398 86.6418 115.442 86.4946 115.872 85.9863C116.102 85.7145 116.3 85.4921 116.312 85.4921C116.323 85.4921 116.39 85.5141 116.46 85.541ZM130.388 86.9704C130.592 87.5749 130.575 87.7828 130.327 87.7328C130.234 87.714 130.128 87.5175 130.008 87.1391C129.812 86.5207 129.818 86.3772 130.041 86.3772C130.152 86.3772 130.237 86.5224 130.388 86.9704ZM115.198 87.2631C115.21 87.329 115.023 87.6002 114.783 87.8657C114.379 88.3117 114.335 88.3386 114.212 88.219C114.088 88.0989 114.108 88.0534 114.493 87.5908C114.898 87.1051 115.147 86.9893 115.198 87.2631ZM131.017 88.9417C131.198 89.5048 131.186 89.7565 130.978 89.7565C130.854 89.7565 130.414 88.5834 130.492 88.4584C130.515 88.4201 130.603 88.3887 130.687 88.3887C130.803 88.3887 130.88 88.5168 131.017 88.9417ZM113.848 88.8867C113.848 89.0341 113.09 89.837 112.951 89.837C112.602 89.837 112.687 89.6196 113.281 88.9864C113.554 88.6951 113.644 88.6417 113.735 88.7169C113.797 88.7685 113.848 88.8449 113.848 88.8867ZM112.448 90.3563C112.499 90.4899 112.386 90.6696 111.959 91.1304C111.653 91.4602 111.492 91.5002 111.445 91.2581C111.414 91.0983 112.126 90.2393 112.289 90.2393C112.352 90.2393 112.423 90.2919 112.448 90.3563ZM131.471 90.4203C131.515 90.4757 131.628 90.7548 131.723 91.0406C131.877 91.5023 131.882 91.5738 131.775 91.6808C131.61 91.8462 131.532 91.7489 131.298 91.0817C131.159 90.6832 131.127 90.4926 131.186 90.4207C131.292 90.293 131.371 90.2929 131.471 90.4203ZM111.09 92.013C111.103 92.0804 110.914 92.3505 110.669 92.6132C110.25 93.0628 110.216 93.0828 110.087 92.9541C109.937 92.8042 109.922 92.8286 110.582 92.1075C110.829 91.8367 111.049 91.796 111.09 92.013ZM132.376 92.9529C132.528 93.3934 132.553 93.5565 132.483 93.6271C132.316 93.7937 132.177 93.6479 131.985 93.1054C131.786 92.5433 131.803 92.3022 132.036 92.3456C132.13 92.3633 132.243 92.5633 132.376 92.9529ZM109.739 93.584C109.739 93.7324 109.091 94.4791 108.903 94.5468C108.72 94.6131 108.593 94.4434 108.694 94.2666C108.733 94.1978 108.926 93.9693 109.123 93.7587C109.366 93.4996 109.523 93.3919 109.61 93.4254C109.681 93.4526 109.739 93.524 109.739 93.584ZM132.893 94.4433C132.956 94.5428 133.073 94.8349 133.153 95.0922C133.278 95.4976 133.282 95.5701 133.18 95.634C133.116 95.6746 133.028 95.6968 132.985 95.6832C132.863 95.6446 132.503 94.5528 132.562 94.3994C132.635 94.2114 132.755 94.2275 132.893 94.4433ZM197.686 95.4451C199.407 98.0559 200.833 102.04 201.135 105.084C201.201 105.748 201.345 106.635 201.455 107.055C201.874 108.653 203.012 111.757 204.292 114.793C205.257 117.08 205.326 117.273 205.58 118.36C205.777 119.202 205.806 119.485 205.803 120.573C205.802 121.585 205.769 121.936 205.632 122.435C205.3 123.644 204.604 124.709 203.724 125.354C202.862 125.986 202.492 126.535 202.413 127.298C202.362 127.797 202.479 128.147 202.775 128.38C202.993 128.551 202.958 128.589 202.708 128.455C202.622 128.409 202.475 128.221 202.381 128.037C202.244 127.768 202.218 127.606 202.249 127.213C202.31 126.458 202.597 125.987 203.596 125.006C204.307 124.307 204.517 124.044 204.758 123.55C205.455 122.118 205.494 120.247 204.875 117.998C204.784 117.666 204.336 116.525 203.88 115.463C201.713 110.413 200.788 107.635 200.613 105.647C200.419 103.461 200.091 101.846 199.45 99.9347C198.807 98.0163 197.866 95.9208 197.21 94.9462C197.003 94.6379 196.951 94.5213 197.068 94.6237C197.168 94.7119 197.446 95.0815 197.686 95.4451ZM108.351 95.1522C108.385 95.3245 107.541 96.2383 107.418 96.1626C107.244 96.0548 107.318 95.8538 107.694 95.4135C108.06 94.9866 108.301 94.8907 108.351 95.1522ZM133.807 96.8564C134.017 97.4234 134.005 97.6718 133.771 97.6268C133.623 97.5983 133.186 96.548 133.247 96.3657C133.266 96.3101 133.354 96.2758 133.444 96.2894C133.564 96.3075 133.66 96.4578 133.807 96.8564ZM107 96.7306C107 96.904 106.257 97.7199 106.098 97.721C105.758 97.7236 105.876 97.4505 106.505 96.7772C106.75 96.5138 107 96.4903 107 96.7306ZM105.599 98.2401C105.657 98.3915 105.582 98.5163 105.159 98.9663C104.807 99.3406 104.646 99.392 104.597 99.1447C104.567 98.9896 105.288 98.1243 105.447 98.1243C105.506 98.1243 105.575 98.1765 105.599 98.2401ZM134.522 98.7577C134.757 99.3825 134.767 99.5726 134.564 99.5726C134.342 99.5726 133.897 98.4994 134.03 98.2853C134.151 98.0898 134.339 98.27 134.522 98.7577ZM193.504 98.8303C193.81 99.0904 195.394 100.526 196.033 101.123C196.372 101.439 196.519 101.65 196.625 101.971C197.026 103.179 196.514 104.707 195.618 104.974C194.53 105.3 192.848 103.713 192.133 101.686C191.928 101.105 191.884 100.853 191.881 100.257C191.876 99.4053 192.032 99.0023 192.481 98.7029C192.825 98.4739 193.129 98.5118 193.504 98.8303ZM104.231 99.8523C104.3 100.032 103.55 100.874 103.348 100.844C103.075 100.803 103.114 100.672 103.541 100.193C103.955 99.7294 104.147 99.6345 104.231 99.8523ZM184.897 100.048C185.152 100.221 185.828 100.59 186.4 100.867C187.308 101.308 187.519 101.45 188.055 101.981C189.125 103.04 189.619 104.419 189.434 105.827C189.265 107.11 188.753 108.043 187.575 109.217L186.738 110.051L186.367 109.998C184.262 109.694 181.836 109.836 179.631 110.394C179.232 110.495 178.897 110.57 178.886 110.56C178.875 110.551 178.902 110.256 178.946 109.905C179.09 108.746 179.268 105.598 179.268 104.204C179.268 103.064 179.22 102.223 179.083 100.908C179.068 100.771 179.193 100.737 180.315 100.574C181.659 100.378 183.275 100.056 183.86 99.8667C184.377 99.6996 184.385 99.7009 184.897 100.048ZM135.288 100.667C135.551 101.246 135.561 101.463 135.325 101.463C135.213 101.463 135.111 101.318 134.938 100.912C134.698 100.346 134.693 100.136 134.919 100.136C134.999 100.136 135.138 100.335 135.288 100.667ZM102.891 101.463C102.891 101.611 102.152 102.469 102.025 102.469C101.856 102.469 101.815 102.242 101.95 102.046C102.233 101.634 102.643 101.265 102.765 101.312C102.835 101.338 102.891 101.406 102.891 101.463ZM135.898 102.167C135.934 102.223 136.061 102.485 136.18 102.749C136.395 103.23 136.379 103.435 136.126 103.435C136 103.435 135.496 102.326 135.554 102.177C135.607 102.039 135.812 102.034 135.898 102.167ZM101.503 103.037C101.516 103.105 101.329 103.377 101.088 103.64C100.682 104.082 100.639 104.109 100.515 103.989C100.391 103.869 100.412 103.823 100.797 103.361C101.204 102.873 101.45 102.76 101.503 103.037ZM136.981 104.518C137.234 105.057 137.257 105.325 137.05 105.325C136.891 105.325 136.363 104.308 136.431 104.132C136.536 103.857 136.738 103.998 136.981 104.518ZM100.152 104.615C100.152 104.796 99.4146 105.607 99.2502 105.607C99.0115 105.607 99.0807 105.351 99.4356 104.922C99.6177 104.701 99.8048 104.497 99.8512 104.468C99.9738 104.391 100.152 104.479 100.152 104.615ZM179.147 105.124C179.147 105.252 178.335 105.678 178.034 105.71C177.91 105.722 177.852 105.678 177.835 105.561C177.815 105.427 177.902 105.353 178.277 105.184C178.786 104.956 179.147 104.931 179.147 105.124ZM177.214 105.929C177.214 106.059 176.422 106.478 176.113 106.512C175.976 106.527 175.918 106.487 175.901 106.367C175.882 106.232 175.972 106.162 176.384 105.987C176.931 105.757 177.214 105.737 177.214 105.929ZM137.63 105.956C137.688 106.015 137.843 106.287 137.973 106.56C138.148 106.927 138.186 107.081 138.119 107.147C138.07 107.197 137.972 107.216 137.903 107.189C137.731 107.123 137.256 106.141 137.318 105.979C137.379 105.82 137.487 105.812 137.63 105.956ZM98.7512 106.125C98.8093 106.277 98.7337 106.401 98.3108 106.851C97.9588 107.226 97.7974 107.277 97.7493 107.03C97.7192 106.875 98.4395 106.009 98.5987 106.009C98.6581 106.009 98.7267 106.062 98.7512 106.125ZM175.28 106.734C175.28 106.864 174.489 107.283 174.179 107.317C174.042 107.331 173.985 107.292 173.967 107.168C173.947 107.031 174.032 106.959 174.41 106.789C174.916 106.562 175.28 106.539 175.28 106.734ZM173.31 107.421C173.447 107.586 173.324 107.698 172.752 107.927C172.245 108.13 172.051 108.146 171.99 107.987C171.932 107.836 172.04 107.755 172.621 107.512C173.213 107.266 173.183 107.27 173.31 107.421ZM97.4126 107.751C97.4126 107.95 96.6989 108.745 96.5201 108.745C96.2744 108.745 96.336 108.518 96.7076 108.054C97.0556 107.619 97.4126 107.466 97.4126 107.751ZM138.857 108.215C139.155 108.747 139.205 108.941 139.066 109.026C138.884 109.139 138.19 108.076 138.285 107.83C138.382 107.577 138.571 107.704 138.857 108.215ZM191.798 108.609C191.018 109.724 190.357 111.404 190.146 112.808C190.018 113.662 189.987 113.744 189.888 113.492C189.736 113.107 189.715 111.801 189.852 111.221C190.125 110.068 190.806 108.977 191.639 108.36C191.894 108.172 192.117 108.033 192.134 108.05C192.152 108.068 192.001 108.319 191.798 108.609ZM171.399 108.216C171.459 108.372 171.319 108.473 170.72 108.708C170.268 108.885 170.198 108.894 170.09 108.786C169.926 108.622 170.046 108.511 170.631 108.287C171.176 108.077 171.34 108.062 171.399 108.216ZM169.399 109.023C169.399 109.135 169.276 109.228 168.956 109.36C168.387 109.594 168.069 109.606 168.069 109.394C168.069 109.281 168.182 109.198 168.492 109.084C168.725 108.998 168.97 108.907 169.036 108.882C169.245 108.803 169.399 108.862 169.399 109.023ZM96.0233 109.349C96.048 109.541 95.2899 110.385 95.1379 110.335C94.9215 110.263 94.999 110.017 95.3726 109.59C95.7665 109.14 95.9859 109.059 96.0233 109.349ZM139.972 110.019C140.311 110.545 140.352 110.757 140.116 110.757C139.925 110.757 139.271 109.839 139.338 109.665C139.432 109.422 139.674 109.558 139.972 110.019ZM167.449 109.658C167.515 109.83 167.415 109.91 166.893 110.097C166.341 110.295 166.17 110.314 166.091 110.186C166.011 110.057 166.201 109.903 166.659 109.724C167.145 109.534 167.393 109.513 167.449 109.658ZM165.491 110.435C165.491 110.541 165.333 110.637 164.893 110.797C164.275 111.022 164.122 111.015 164.122 110.758C164.122 110.645 164.261 110.562 164.706 110.413C165.332 110.203 165.491 110.207 165.491 110.435ZM94.6566 110.93C94.6903 111.105 93.8462 112.009 93.7209 111.932C93.5474 111.825 93.6222 111.623 93.9982 111.184C94.367 110.752 94.6047 110.661 94.6566 110.93ZM163.504 111.032C163.565 111.191 163.441 111.27 162.803 111.48C162.345 111.63 162.238 111.642 162.18 111.551C162.062 111.364 162.142 111.286 162.637 111.103C163.201 110.895 163.444 110.875 163.504 111.032ZM141.168 111.683C141.528 112.133 141.606 112.365 141.42 112.427C141.224 112.492 140.465 111.567 140.545 111.361C140.629 111.14 140.809 111.233 141.168 111.683ZM161.505 111.645C161.6 111.797 161.383 111.945 160.861 112.087C160.32 112.233 160.093 112.21 160.093 112.009C160.093 111.932 160.275 111.831 160.597 111.729C161.17 111.548 161.43 111.524 161.505 111.645ZM194.911 112.091C194.406 112.61 193.948 113.464 192.951 115.745C192.473 116.838 192.439 116.892 192.415 116.601C192.385 116.234 192.586 115.188 192.818 114.502C193.285 113.126 194.204 111.917 194.954 111.695C195.167 111.632 195.349 111.588 195.36 111.596C195.37 111.605 195.168 111.827 194.911 112.091ZM159.489 112.321C159.489 112.576 158.251 112.899 158.115 112.68C158.027 112.538 158.247 112.385 158.724 112.256C159.29 112.103 159.489 112.12 159.489 112.321ZM93.3011 112.515C93.2997 112.588 93.1243 112.843 92.9112 113.083C92.6356 113.393 92.4851 113.504 92.3901 113.468C92.169 113.383 92.2354 113.206 92.6634 112.738C93.0616 112.303 93.3069 112.217 93.3011 112.515ZM157.477 112.772C157.574 112.929 157.348 113.074 156.791 113.21C156.227 113.348 156.065 113.33 156.065 113.13C156.065 112.987 156.162 112.93 156.619 112.805C157.087 112.675 157.41 112.663 157.477 112.772ZM142.515 113.008C142.678 113.141 142.902 113.319 143.013 113.406C143.203 113.553 143.207 113.57 143.078 113.701C142.948 113.833 142.924 113.83 142.634 113.632C142.038 113.226 141.872 113.056 141.929 112.908C142.007 112.706 142.177 112.735 142.515 113.008ZM155.445 113.278C155.518 113.47 155.391 113.55 154.791 113.685C154.164 113.827 154.051 113.81 154.051 113.577C154.051 113.325 155.355 113.046 155.445 113.278ZM153.391 113.791C153.41 113.923 153.368 113.979 153.23 114.009C152.249 114.216 152.169 114.222 152.045 114.098C151.87 113.923 152.01 113.815 152.574 113.69C153.198 113.552 153.36 113.572 153.391 113.791ZM144.504 113.962C144.958 114.078 145.068 114.136 145.068 114.262C145.068 114.475 144.807 114.499 144.242 114.335C143.76 114.195 143.644 114.104 143.714 113.922C143.767 113.785 143.821 113.787 144.504 113.962ZM91.932 114.013C92.0121 114.109 91.9656 114.223 91.6775 114.635C91.3202 115.147 91.0867 115.296 90.9992 115.068C90.9507 114.942 91.6359 113.894 91.7671 113.894C91.8038 113.894 91.878 113.948 91.932 114.013ZM151.338 114.09C151.414 114.287 151.183 114.387 150.544 114.435C149.929 114.482 149.928 114.482 149.955 114.289C149.977 114.132 150.043 114.086 150.304 114.047C150.918 113.953 151.292 113.969 151.338 114.09ZM147.122 114.337C147.202 114.434 147.201 114.483 147.115 114.587C147.026 114.694 146.909 114.707 146.44 114.662C145.832 114.603 145.703 114.541 145.779 114.342C145.848 114.165 146.975 114.16 147.122 114.337ZM149.27 114.34C149.342 114.53 149.257 114.568 148.629 114.626C147.973 114.686 147.847 114.66 147.847 114.462C147.847 114.24 147.919 114.216 148.588 114.216C149.085 114.216 149.232 114.243 149.27 114.34ZM197.424 115.282C197.155 115.559 196.816 115.961 196.672 116.175C196.318 116.702 195.724 117.99 195.293 119.165L194.938 120.13L194.915 119.508C194.847 117.73 195.907 115.696 197.25 115.026C197.521 114.89 197.782 114.78 197.829 114.78C197.876 114.78 197.694 115.006 197.424 115.282ZM90.7778 115.787C90.8643 116.012 90.1494 116.973 89.9516 116.897C89.7696 116.828 89.8196 116.65 90.1646 116.143C90.4876 115.668 90.6874 115.552 90.7778 115.787ZM89.5968 117.474C89.6782 117.572 89.6483 117.668 89.4324 118.004C89.0258 118.637 88.7906 118.803 88.686 118.531C88.6412 118.414 89.3098 117.354 89.4284 117.354C89.4663 117.354 89.5421 117.408 89.5968 117.474ZM88.4697 119.259C88.4697 119.428 87.9021 120.314 87.7575 120.37C87.6143 120.426 87.5029 120.351 87.5029 120.198C87.5029 119.986 88.1586 119.124 88.3203 119.124C88.4061 119.124 88.4697 119.181 88.4697 119.259ZM87.0988 121.46C86.7783 121.958 86.6428 122.101 86.4901 122.101C86.2994 122.101 86.3597 121.791 86.6279 121.392C86.9758 120.874 87.101 120.78 87.2493 120.928C87.3506 121.03 87.3311 121.098 87.0988 121.46ZM86.1333 122.746C86.1333 122.942 85.6026 123.761 85.4336 123.826C85.291 123.88 85.1665 123.818 85.1665 123.691C85.1665 123.642 85.3158 123.372 85.4982 123.093C85.8379 122.572 86.1333 122.411 86.1333 122.746ZM84.9717 124.463C85.033 124.623 84.36 125.561 84.1843 125.561C83.961 125.561 84.0079 125.34 84.3407 124.824C84.6356 124.367 84.8808 124.227 84.9717 124.463ZM83.8222 126.155C83.8763 126.295 83.1862 127.331 83.0384 127.331C82.7972 127.331 82.8439 127.067 83.1739 126.566C83.502 126.067 83.7323 125.921 83.8222 126.155ZM82.6377 127.929C82.7047 128.103 82.0512 129.021 81.8603 129.021C81.6237 129.021 81.6649 128.81 82.0042 128.284C82.3021 127.822 82.5444 127.686 82.6377 127.929ZM81.4887 129.622C81.5458 129.771 80.9027 130.742 80.7253 130.775C80.4781 130.82 80.4882 130.546 80.7479 130.161C81.2033 129.486 81.3856 129.354 81.4887 129.622ZM80.3305 131.415C80.3271 131.646 79.7315 132.438 79.5396 132.466C79.2767 132.505 79.3211 132.296 79.6909 131.752C80.0168 131.273 80.3349 131.105 80.3305 131.415ZM79.1734 133.079C79.2245 133.212 78.6083 134.157 78.4247 134.227C78.2377 134.299 78.1541 134.088 78.2768 133.853C78.4895 133.447 78.8857 132.963 79.0062 132.963C79.0737 132.963 79.149 133.015 79.1734 133.079ZM77.9961 134.881C77.9961 135.118 77.4088 135.897 77.208 135.926C76.9401 135.964 76.9822 135.759 77.3545 135.212C77.6841 134.727 77.9961 134.566 77.9961 134.881ZM76.7874 136.502C76.8928 136.568 76.8884 136.614 76.7528 136.866C76.3894 137.54 75.9013 137.903 75.9013 137.5C75.9013 137.364 76.5209 136.423 76.6093 136.424C76.6409 136.425 76.721 136.46 76.7874 136.502ZM75.6596 138.328C75.6596 138.402 75.5237 138.673 75.3575 138.93C75.1371 139.272 75.0064 139.399 74.8741 139.399C74.607 139.401 74.6469 139.21 75.0268 138.669C75.3549 138.202 75.6596 138.037 75.6596 138.328ZM74.4043 139.932C74.4743 139.959 74.5317 140.019 74.5317 140.066C74.5317 140.199 73.9403 141.082 73.8195 141.129C73.6772 141.184 73.5649 141.11 73.5649 140.96C73.5649 140.849 74.1761 139.883 74.2461 139.883C74.263 139.883 74.3342 139.905 74.4043 139.932ZM73.3481 141.763C73.3943 141.883 72.8388 142.769 72.6518 142.873C72.5797 142.914 72.498 142.893 72.4363 142.819C72.355 142.721 72.3984 142.606 72.6785 142.176C73.0109 141.667 73.2537 141.517 73.3481 141.763ZM72.166 143.463C72.2373 143.649 71.5772 144.63 71.3813 144.63C71.1928 144.63 71.232 144.357 71.4748 143.979C71.8831 143.344 72.0673 143.206 72.166 143.463ZM71.0117 145.223C71.0578 145.343 70.5023 146.229 70.3154 146.333C70.244 146.373 70.1628 146.354 70.1049 146.285C70.03 146.195 70.082 146.063 70.3577 145.644C70.691 145.137 70.9219 144.989 71.0117 145.223ZM38.4915 146.411C38.7925 146.594 39.1935 147.194 39.3165 147.647C39.4272 148.055 39.4281 148.635 39.3193 149.416C39.0465 151.375 40.0578 153.249 42.3016 154.942C43.1613 155.591 43.5607 155.805 46.414 157.142C47.9305 157.852 49.9705 158.913 51.3888 159.729C52.7813 160.53 53.8466 161.303 54.7124 162.141C57.0411 164.395 61.136 166.811 64.0201 167.631C64.329 167.719 64.4911 167.794 64.3803 167.797C63.7463 167.814 61.6415 167.076 59.8283 166.201C57.5566 165.104 55.8543 163.989 54.4528 162.68C52.9033 161.234 50.3753 159.758 45.0912 157.217C43.1256 156.271 42.1967 155.68 41.2041 154.741C39.3229 152.963 38.6234 151.122 39.0506 149.072C39.2131 148.293 39.1632 147.68 38.8941 147.15C38.6 146.57 38.276 146.321 37.8074 146.314C37.521 146.31 37.4694 146.292 37.592 146.238C37.8025 146.147 38.173 146.218 38.4915 146.411ZM49.8757 148.17C50.6248 149.266 50.9609 150.267 50.9557 151.389C50.9531 151.979 50.9118 152.257 50.7749 152.608C50.4612 153.413 50.4025 153.344 50.3982 152.166C50.3937 150.938 50.2757 150.425 49.5911 148.655C49.3596 148.056 49.1427 147.494 49.1091 147.406C49.0093 147.144 49.5255 147.658 49.8757 148.17ZM53.9431 149.172C54.9517 150.872 55.2171 152.942 54.5397 153.824C54.4454 153.947 54.4303 153.859 54.4295 153.18C54.4285 152.286 54.3289 151.862 53.5787 149.561C53.316 148.755 53.1011 148.071 53.1011 148.041C53.1011 147.941 53.6508 148.679 53.9431 149.172ZM58.0726 149.65C59.2338 150.876 59.7595 152.878 59.279 154.245L59.1658 154.567L59.1098 154.124C58.8611 152.161 58.3429 150.8 57.1659 149.019L57.0088 148.781L57.2783 148.938C57.4264 149.025 57.7839 149.345 58.0726 149.65ZM62.0551 158.677C64.3202 159.386 65.7919 161.089 64.9507 162.028L64.7153 162.291L62.5711 162.275C60.481 162.26 60.4158 162.255 59.9941 162.062C58.8947 161.559 58.1223 160.022 58.5545 159.196C58.9653 158.411 60.4851 158.186 62.0551 158.677ZM64.9225 167.851C64.8957 167.878 64.8262 167.881 64.7681 167.857C64.7038 167.832 64.7229 167.813 64.8168 167.809C64.9017 167.805 64.9492 167.824 64.9225 167.851Z" fill="#04014D"/>
</svg>
