<svg width="494" height="338" viewBox="0 0 494 338" fill="none" xmlns="http://www.w3.org/2000/svg">
<g clip-path="url(#clip0)">
<path d="M199.326 36.4291C199.326 36.4291 186.565 31.0865 195.67 21.1468C196.548 20.5859 197.529 20.205 198.555 20.0263C199.582 19.8476 200.634 19.8746 201.651 20.1059C202.667 20.3371 203.627 20.7679 204.475 21.3732C205.323 21.9785 206.042 22.7462 206.59 23.6317" fill="#04014D"/>
<path d="M169.352 264.72C162.76 261.315 159.401 130.906 159.401 130.906C158.516 124.505 159.929 117.998 163.39 112.54C166.851 107.081 172.136 103.023 178.307 101.087L214.724 89.6563C220.076 87.9724 225.816 87.9724 231.167 89.6563L267.584 101.087C273.755 103.023 279.04 107.081 282.501 112.54C285.962 117.998 287.375 124.505 286.49 130.906C286.49 130.906 281.515 196.806 279.55 260.992C279.649 260.918 226.789 294.489 169.352 264.72Z" fill="white"/>
<path d="M219.426 278.312C201.786 278.323 184.407 274.06 168.779 265.888C162.063 262.409 159.028 161.744 158.257 130.981C157.335 124.302 158.817 117.514 162.439 111.825C166.061 106.136 171.587 101.917 178.033 99.9193L214.451 88.4637C220.044 86.6987 226.046 86.6987 231.64 88.4637L268.057 99.9193C274.519 101.929 280.055 106.17 283.674 111.884C287.292 117.597 288.758 124.411 287.808 131.105C287.808 131.702 282.833 197.651 280.893 261.067V261.738L280.321 262.086C261.737 272.586 240.776 278.171 219.426 278.312ZM169.974 263.651C222.958 290.985 272.634 263.651 278.43 260.272C280.271 197.005 285.296 131.453 285.345 130.807C286.225 124.68 284.893 118.441 281.589 113.205C278.285 107.97 273.224 104.079 267.311 102.23L230.893 90.7747C225.782 89.1846 220.308 89.1846 215.197 90.7747L178.779 102.23C172.875 104.069 167.819 107.946 164.514 113.168C161.21 118.39 159.874 124.616 160.745 130.732C161.964 179.984 165.571 259.402 169.974 263.651Z" fill="#04014D"/>
<path d="M290.52 238.156L282.112 189.948L313.878 186.991L319.773 229.334" fill="white"/>
<path d="M290.52 239.423C290.226 239.421 289.942 239.315 289.719 239.124C289.496 238.932 289.348 238.669 289.301 238.379L280.893 190.146C280.84 189.807 280.92 189.46 281.117 189.177C281.226 189.042 281.362 188.931 281.516 188.85C281.67 188.769 281.839 188.72 282.012 188.705L313.753 185.748C314.07 185.726 314.384 185.823 314.633 186.021C314.882 186.219 315.047 186.503 315.096 186.817L321.017 229.06C321.063 229.39 320.976 229.724 320.776 229.99C320.575 230.256 320.277 230.431 319.947 230.477C319.617 230.523 319.282 230.436 319.017 230.236C318.751 230.036 318.575 229.738 318.529 229.408L312.783 188.233L283.579 191.066L291.763 237.956C291.814 238.282 291.736 238.615 291.546 238.884C291.355 239.153 291.068 239.337 290.743 239.398L290.52 239.423Z" fill="#04014D"/>
<path d="M298.977 234.528L236.316 228.962C235.279 228.849 234.255 228.641 233.256 228.34C230.62 227.346 222.709 223.619 217.684 223.097C217.37 223.024 217.039 223.064 216.751 223.21C216.463 223.357 216.236 223.601 216.111 223.899C215.986 224.196 215.97 224.529 216.067 224.837C216.164 225.145 216.367 225.409 216.64 225.582C218.754 227.396 222.261 229.359 222.61 230.552C222.61 230.552 223.455 232.863 219.202 232.614C214.401 232.316 203.555 231.248 196.963 230.13C196.679 230.084 196.389 230.145 196.147 230.3C195.905 230.455 195.729 230.694 195.652 230.97C195.575 231.247 195.603 231.542 195.73 231.8C195.857 232.057 196.075 232.259 196.341 232.366C203.136 234.66 210.097 236.429 217.162 237.659L216.764 237.932C210.222 237.51 198.207 236.168 191.889 235.099C191.608 235.064 191.324 235.131 191.089 235.289C190.855 235.447 190.685 235.684 190.612 235.957C190.54 236.23 190.568 236.52 190.693 236.774C190.818 237.027 191.031 237.227 191.292 237.336C198.906 239.901 206.707 241.878 214.625 243.25C214.625 243.25 214.625 243.474 214.625 243.573C209.177 243.2 200.496 242.057 194.874 241.088C194.59 241.043 194.299 241.103 194.057 241.258C193.816 241.414 193.639 241.652 193.563 241.929C193.486 242.205 193.513 242.501 193.64 242.758C193.768 243.016 193.985 243.217 194.252 243.325C201.497 245.608 208.907 247.336 216.416 248.493L216.615 248.816C212.926 249.06 209.221 248.758 205.62 247.922C204.177 247.648 203.605 250.084 205.023 250.407C211.926 252.429 218.945 254.03 226.043 255.202L233.057 256.395L304.201 265.888C306.675 266.219 309.192 265.974 311.555 265.171C313.918 264.368 316.063 263.03 317.822 261.261C319.58 259.492 320.905 257.34 321.693 254.974C322.48 252.608 322.708 250.092 322.36 247.623L319.872 229.26" fill="white"/>
<path d="M306.365 267.353C305.533 267.363 304.701 267.305 303.878 267.179L232.734 257.712L225.669 256.494C218.522 255.316 211.453 253.706 204.5 251.673C203.885 251.468 203.375 251.031 203.078 250.456C202.78 249.88 202.719 249.212 202.908 248.592C203.029 248.009 203.356 247.489 203.829 247.126C200.413 246.296 197.042 245.293 193.729 244.119C193.261 243.888 192.877 243.516 192.632 243.055C192.388 242.594 192.294 242.067 192.366 241.55C192.438 241.033 192.67 240.552 193.031 240.175C193.392 239.797 193.863 239.543 194.376 239.447C193.108 239.05 191.889 238.627 190.695 238.205C190.215 237.934 189.84 237.511 189.627 237.004C189.414 236.496 189.376 235.933 189.518 235.401C189.66 234.87 189.975 234.4 190.413 234.067C190.851 233.733 191.388 233.554 191.938 233.558C194.252 233.956 197.237 234.378 200.396 234.776C198.804 234.304 197.237 233.782 195.744 233.235C195.166 233.047 194.686 232.639 194.406 232.1C194.127 231.56 194.072 230.933 194.252 230.353C194.425 229.779 194.799 229.287 195.307 228.967C195.814 228.648 196.42 228.522 197.013 228.613C203.381 229.806 214.127 230.874 219.102 231.098C220.918 231.098 221.242 230.775 221.242 230.775C220.437 229.9 219.516 229.139 218.505 228.514C217.523 227.852 216.577 227.138 215.67 226.377C215.227 226.031 214.915 225.545 214.784 224.999C214.653 224.453 214.711 223.879 214.948 223.37C215.151 222.843 215.528 222.401 216.016 222.116C216.505 221.832 217.075 221.722 217.635 221.804C222.373 222.715 226.978 224.218 231.341 226.277L233.53 227.172C234.434 227.43 235.357 227.613 236.291 227.719L298.977 233.285C299.141 233.3 299.3 233.348 299.445 233.425C299.59 233.503 299.718 233.608 299.822 233.735C299.926 233.862 300.004 234.009 300.051 234.166C300.098 234.323 300.114 234.488 300.097 234.652C300.084 234.814 300.039 234.972 299.964 235.117C299.89 235.262 299.787 235.39 299.661 235.494C299.536 235.599 299.391 235.677 299.235 235.724C299.079 235.771 298.915 235.787 298.753 235.77L236.142 230.204C235.012 230.075 233.896 229.842 232.809 229.508L230.47 228.613C226.337 226.687 221.985 225.269 217.51 224.389L216.59 225.557L217.386 224.612C218.182 225.283 219.152 225.954 220.072 226.625C222.187 228.116 223.406 229.11 223.729 230.03C223.897 230.437 223.953 230.883 223.892 231.319C223.831 231.756 223.654 232.168 223.381 232.515C222.83 233.067 222.152 233.475 221.406 233.705C220.66 233.934 219.869 233.978 219.102 233.832C214.127 233.533 203.157 232.44 196.714 231.347C203.48 233.453 210.377 235.114 217.361 236.316C217.605 236.361 217.829 236.477 218.007 236.649C218.184 236.822 218.306 237.043 218.356 237.286C218.406 237.525 218.383 237.774 218.29 238C218.197 238.226 218.038 238.418 217.834 238.553H217.411C217.191 238.722 216.916 238.802 216.64 238.777C210.272 238.354 198.232 237.037 191.764 235.919C199.364 238.339 207.118 240.248 214.973 241.634C215.234 241.686 215.472 241.82 215.651 242.017C215.83 242.214 215.941 242.463 215.968 242.728C215.994 242.93 215.979 243.136 215.923 243.332C215.868 243.529 215.773 243.712 215.645 243.871C215.531 244.026 215.386 244.155 215.219 244.249C215.052 244.343 214.866 244.401 214.674 244.417C209.277 244.045 200.545 242.902 194.774 241.932C201.956 244.208 209.287 245.985 216.714 247.25C216.892 247.278 217.06 247.346 217.207 247.45C217.353 247.553 217.474 247.689 217.56 247.847C217.682 248.046 217.758 248.269 217.784 248.501C217.81 248.733 217.784 248.967 217.709 249.188C217.535 249.561 217.262 249.984 216.864 250.033C213.041 250.286 209.203 249.976 205.471 249.114C205.471 249.114 205.471 249.313 205.471 249.362C212.302 251.309 219.237 252.877 226.242 254.059L233.281 255.252L304.375 264.719C306.66 265.03 308.985 264.807 311.169 264.069C313.353 263.331 315.336 262.097 316.963 260.465C318.59 258.833 319.816 256.846 320.545 254.661C321.274 252.476 321.487 250.152 321.166 247.871L318.678 229.508C318.632 229.178 318.719 228.844 318.92 228.578C319.12 228.313 319.418 228.137 319.748 228.091C320.078 228.045 320.413 228.132 320.679 228.332C320.944 228.533 321.12 228.83 321.166 229.16L323.654 247.524C324.01 249.991 323.832 252.505 323.13 254.897C322.429 257.289 321.221 259.503 319.589 261.388C317.956 263.273 315.938 264.786 313.669 265.824C311.4 266.861 308.935 267.4 306.44 267.403L306.365 267.353Z" fill="#04014D"/>
<path d="M314.275 252.493C314.275 252.493 309.649 257.09 312.335 257.91C315.022 258.731 314.126 255.426 314.126 255.426" fill="white"/>
<path d="M313.106 259.277C312.719 259.271 312.334 259.213 311.962 259.103C311.565 259.006 311.201 258.802 310.912 258.512C310.622 258.223 310.418 257.86 310.32 257.463C309.798 255.45 312.31 252.692 313.405 251.599C313.637 251.371 313.95 251.244 314.276 251.244C314.601 251.244 314.914 251.371 315.146 251.599C315.263 251.714 315.355 251.852 315.418 252.003C315.482 252.155 315.514 252.317 315.514 252.481C315.514 252.645 315.482 252.807 315.418 252.959C315.355 253.11 315.263 253.248 315.146 253.363C314.873 253.636 314.574 253.96 314.325 254.258C314.562 254.298 314.782 254.403 314.962 254.561C315.142 254.719 315.275 254.923 315.345 255.152C315.536 255.735 315.584 256.356 315.484 256.961C315.384 257.567 315.141 258.14 314.773 258.631C314.552 258.844 314.291 259.011 314.005 259.122C313.719 259.232 313.413 259.285 313.106 259.277ZM313.106 256.121C312.961 256.355 312.867 256.618 312.833 256.892H313.256C313.256 256.892 313.057 256.444 313.007 256.121H313.106Z" fill="#04014D"/>
<path d="M280.893 193.352C280.893 193.352 297.584 203.888 315.942 201.826L314.972 193.104L280.893 193.352Z" fill="#04014D"/>
<path d="M267.684 101.038C307.111 115.301 316.415 145.567 316.415 145.567C316.415 145.567 324.947 162.962 323.629 189.551C309.897 196.183 294.268 197.784 279.475 194.073C279.475 194.073 274.724 191.986 273.952 163.558" fill="white"/>
<path d="M295.544 197.179C290.042 197.176 284.559 196.542 279.201 195.29C278.057 194.818 273.455 191.414 272.709 163.582H275.196C275.843 187.637 279.425 192.358 280.022 192.979C294.223 196.383 309.157 194.93 322.435 188.854C323.299 174.277 320.859 159.692 315.295 146.188C315.146 145.716 305.594 116.145 267.261 102.279L268.107 99.9434C283.779 105.301 297.59 115.027 307.907 127.973C312.12 133.187 315.432 139.066 317.708 145.368C317.982 145.915 326.29 163.259 324.972 189.798V190.469L324.375 190.817C315.42 195.233 305.528 197.416 295.544 197.179Z" fill="#04014D"/>
<path d="M156.566 238.156L164.973 189.948L133.208 186.991L127.312 229.334" fill="white"/>
<path d="M156.566 239.423H156.367C156.205 239.396 156.049 239.337 155.91 239.25C155.771 239.162 155.651 239.048 155.556 238.914C155.461 238.78 155.394 238.629 155.358 238.469C155.322 238.309 155.318 238.143 155.347 237.981L163.531 191.091L134.327 188.333L128.606 229.508C128.584 229.672 128.53 229.83 128.447 229.972C128.364 230.115 128.253 230.24 128.121 230.339C127.989 230.439 127.839 230.511 127.678 230.552C127.518 230.593 127.351 230.601 127.188 230.576C126.859 230.527 126.563 230.351 126.363 230.086C126.163 229.821 126.075 229.489 126.118 229.16L132.038 186.916C132.088 186.602 132.253 186.318 132.502 186.12C132.75 185.922 133.064 185.825 133.382 185.848L165.148 188.805C165.318 188.818 165.483 188.867 165.633 188.948C165.783 189.03 165.914 189.142 166.018 189.277C166.12 189.414 166.193 189.571 166.231 189.738C166.27 189.905 166.274 190.078 166.242 190.246L157.784 238.379C157.737 238.669 157.589 238.933 157.366 239.124C157.143 239.315 156.859 239.421 156.566 239.423Z" fill="#04014D"/>
<path d="M148.133 234.528L210.844 228.962C211.889 228.85 212.921 228.642 213.928 228.34C216.54 227.346 224.475 223.619 229.475 223.097C229.79 223.024 230.121 223.064 230.409 223.21C230.697 223.357 230.924 223.601 231.049 223.899C231.174 224.196 231.19 224.529 231.093 224.837C230.996 225.145 230.793 225.409 230.52 225.582C228.406 227.396 224.923 229.359 224.575 230.552C224.575 230.552 223.704 232.863 227.958 232.614C232.759 232.316 243.629 231.248 250.346 230.13C250.63 230.084 250.92 230.145 251.162 230.3C251.404 230.455 251.58 230.694 251.657 230.97C251.734 231.247 251.706 231.542 251.579 231.8C251.452 232.057 251.234 232.259 250.968 232.366C244.165 234.66 237.196 236.429 230.122 237.659L230.52 237.932C237.062 237.51 249.077 236.168 255.395 235.099C255.676 235.064 255.96 235.131 256.195 235.289C256.429 235.447 256.599 235.684 256.672 235.957C256.745 236.23 256.716 236.52 256.591 236.774C256.466 237.027 256.253 237.227 255.993 237.336C248.37 239.902 240.561 241.879 232.635 243.25C232.635 243.25 232.635 243.474 232.635 243.573C238.057 243.2 246.739 242.057 252.361 241.088C252.644 241.043 252.935 241.103 253.177 241.258C253.419 241.414 253.595 241.652 253.672 241.929C253.749 242.205 253.721 242.501 253.594 242.758C253.467 243.015 253.249 243.217 252.983 243.325C245.696 245.615 238.245 247.343 230.694 248.493C230.643 248.609 230.576 248.718 230.495 248.816C234.193 249.06 237.906 248.759 241.515 247.922C242.958 247.648 243.505 250.084 242.112 250.407C235.208 252.426 228.189 254.028 221.092 255.202L214.077 256.395L142.934 265.888C140.459 266.218 137.942 265.972 135.578 265.17C133.214 264.367 131.068 263.029 129.307 261.261C127.547 259.492 126.219 257.341 125.429 254.976C124.638 252.61 124.406 250.094 124.75 247.623L127.238 229.26" fill="white"/>
<path d="M140.745 267.353C138.248 267.354 135.779 266.818 133.508 265.782C131.236 264.745 129.214 263.233 127.579 261.348C125.944 259.462 124.734 257.247 124.031 254.853C123.329 252.46 123.149 249.943 123.506 247.474L125.994 229.11C126.049 228.787 126.227 228.497 126.492 228.302C126.756 228.108 127.086 228.023 127.412 228.066C127.735 228.116 128.027 228.288 128.227 228.547C128.426 228.807 128.517 229.133 128.481 229.458L125.994 247.822C125.673 250.102 125.886 252.426 126.615 254.611C127.344 256.796 128.57 258.783 130.197 260.415C131.823 262.047 133.807 263.281 135.991 264.019C138.175 264.757 140.5 264.98 142.785 264.669L213.928 255.227L220.918 254.059C227.951 252.873 234.911 251.288 241.764 249.313C241.764 249.313 241.764 249.139 241.614 249.064C237.941 249.973 234.146 250.3 230.371 250.033C230.165 250.004 229.969 249.925 229.801 249.804C229.632 249.683 229.495 249.523 229.401 249.337C229.303 249.154 229.251 248.949 229.251 248.741C229.251 248.533 229.303 248.328 229.401 248.145C229.641 247.74 230.008 247.425 230.445 247.25C237.873 245.995 245.191 244.167 252.336 241.783C245.763 243.088 239.117 244.001 232.435 244.517C232.251 244.527 232.066 244.497 231.894 244.428C231.722 244.359 231.567 244.254 231.44 244.119C231.315 243.989 231.22 243.832 231.164 243.659C231.108 243.487 231.092 243.304 231.117 243.125C231.117 242.578 231.615 241.833 232.162 241.734C240.009 240.359 247.742 238.398 255.296 235.869C248.754 237.136 236.714 238.354 230.421 238.876C230.136 238.906 229.852 238.826 229.625 238.652L229.227 238.379C229.021 238.246 228.863 238.052 228.774 237.825C228.685 237.598 228.669 237.348 228.729 237.112C228.775 236.871 228.892 236.651 229.065 236.478C229.238 236.305 229.459 236.188 229.699 236.142C236.695 234.913 243.588 233.16 250.321 230.899C242.92 232.262 235.444 233.183 227.933 233.657C227.166 233.806 226.375 233.764 225.629 233.534C224.882 233.304 224.204 232.894 223.654 232.34C223.381 231.994 223.205 231.582 223.143 231.145C223.082 230.708 223.138 230.263 223.306 229.856C223.605 228.886 224.824 227.992 226.963 226.501C227.883 225.83 228.853 225.159 229.625 224.488V224.264C225.127 225.18 220.758 226.641 216.615 228.613L214.326 229.557C213.228 229.883 212.105 230.116 210.968 230.253L148.232 235.77C148.07 235.787 147.906 235.771 147.75 235.724C147.594 235.677 147.449 235.598 147.324 235.494C147.199 235.39 147.096 235.262 147.021 235.117C146.946 234.972 146.901 234.814 146.889 234.651C146.861 234.323 146.962 233.996 147.171 233.741C147.38 233.486 147.681 233.322 148.008 233.285L210.719 227.719C211.664 227.617 212.597 227.426 213.505 227.147L215.669 226.277C220.019 224.246 224.607 222.768 229.326 221.879C229.882 221.822 230.442 221.942 230.925 222.224C231.408 222.505 231.789 222.933 232.013 223.444C232.256 223.948 232.321 224.519 232.199 225.064C232.078 225.61 231.775 226.099 231.341 226.451C230.425 227.213 229.47 227.926 228.48 228.588C227.487 229.23 226.562 229.971 225.719 230.8C225.719 230.8 226.117 231.272 227.883 231.173C232.858 230.874 243.605 229.806 249.997 228.688C250.542 228.688 251.072 228.867 251.506 229.197C251.939 229.527 252.252 229.99 252.396 230.515C252.54 231.041 252.507 231.598 252.303 232.103C252.099 232.608 251.735 233.032 251.266 233.31C249.774 233.856 248.206 234.378 246.59 234.85C249.774 234.453 252.759 234.03 255.047 233.633C255.598 233.629 256.134 233.808 256.573 234.141C257.011 234.475 257.325 234.944 257.468 235.476C257.61 236.007 257.572 236.571 257.359 237.078C257.146 237.586 256.77 238.008 256.291 238.279C255.122 238.702 253.803 239.124 252.634 239.522C253.146 239.621 253.614 239.878 253.972 240.257C254.33 240.636 254.56 241.118 254.628 241.634C254.697 242.151 254.602 242.676 254.355 243.135C254.109 243.594 253.725 243.965 253.256 244.194C249.944 245.371 246.573 246.374 243.157 247.2C243.622 247.574 243.954 248.089 244.102 248.666C244.29 249.289 244.226 249.961 243.923 250.537C243.621 251.113 243.105 251.548 242.485 251.748C235.556 253.752 228.511 255.337 221.391 256.494L214.376 257.687L143.183 267.179C142.376 267.304 141.561 267.362 140.745 267.353Z" fill="#04014D"/>
<path d="M132.81 252.493C132.81 252.493 137.461 257.09 134.775 257.91C132.088 258.731 132.959 255.426 132.959 255.426" fill="white"/>
<path d="M133.979 259.278C133.676 259.287 133.374 259.234 133.091 259.123C132.809 259.012 132.553 258.845 132.337 258.631C131.969 258.14 131.726 257.567 131.626 256.962C131.526 256.356 131.574 255.736 131.765 255.153C131.833 254.922 131.964 254.716 132.145 254.558C132.326 254.399 132.547 254.295 132.785 254.258C132.511 253.96 132.238 253.637 131.939 253.363C131.823 253.248 131.731 253.11 131.668 252.959C131.606 252.807 131.573 252.645 131.573 252.481C131.573 252.317 131.606 252.155 131.668 252.004C131.731 251.852 131.823 251.715 131.939 251.599C132.055 251.483 132.193 251.391 132.344 251.329C132.496 251.266 132.658 251.234 132.822 251.234C132.986 251.234 133.148 251.266 133.3 251.329C133.452 251.391 133.589 251.483 133.705 251.599C134.8 252.692 137.287 255.451 136.79 257.464C136.681 257.859 136.469 258.219 136.176 258.507C135.884 258.795 135.521 259.001 135.123 259.104C134.752 259.217 134.367 259.275 133.979 259.278ZM133.979 255.923C133.941 256.17 133.941 256.421 133.979 256.668H134.302C134.291 256.416 134.223 256.17 134.103 255.948L133.979 255.923Z" fill="#04014D"/>
<path d="M166.217 193.352C166.217 193.352 149.501 203.888 131.143 201.826L132.113 193.104L166.217 193.352Z" fill="#04014D"/>
<path d="M179.476 100.714C140.048 114.977 130.67 145.443 130.67 145.443C130.67 145.443 122.163 162.837 123.456 189.426C137.182 196.101 152.819 197.746 167.635 194.073C167.635 194.073 172.361 191.985 173.133 163.558" fill="white"/>
<path d="M151.516 197.154C141.569 197.33 131.728 195.097 122.835 190.643L122.262 190.296V189.625C120.969 163.086 129.252 145.741 129.601 144.896C129.601 144.896 139.551 113.735 179.103 99.4217L179.948 101.758C141.566 115.748 131.964 145.617 131.839 145.94C126.236 159.52 123.787 174.192 124.675 188.854C137.949 194.942 152.884 196.404 167.088 193.004C167.685 192.383 171.242 187.662 171.889 163.607H174.376C173.63 191.339 169.153 194.818 168.133 195.216C162.686 196.493 157.111 197.144 151.516 197.154Z" fill="#04014D"/>
<path d="M212.759 69.2299L208.953 96.1914C208.471 99.4468 209.162 102.768 210.902 105.562C212.642 108.356 215.319 110.442 218.456 111.449C220.752 112.077 223.174 112.077 225.47 111.449C228.734 110.589 231.573 108.571 233.454 105.772C235.336 102.973 236.132 99.5843 235.694 96.2411L232.56 70.5718C226.031 72.6732 218.944 72.1929 212.759 69.2299Z" fill="white"/>
<path d="M222.212 113.238C220.828 113.244 219.451 113.034 218.132 112.617C214.713 111.529 211.792 109.262 209.892 106.221C207.992 103.18 207.236 99.5637 207.759 96.0174L211.764 67.3165L213.331 68.1365C219.211 70.9306 225.935 71.3837 232.137 69.4038L233.605 68.882L236.938 96.2162C237.421 99.8579 236.554 103.55 234.502 106.598C232.449 109.646 229.352 111.84 225.794 112.766C224.626 113.08 223.421 113.238 222.212 113.238ZM213.754 70.9942L210.222 96.3653C209.78 99.3336 210.411 102.362 212.002 104.908C213.593 107.453 216.04 109.349 218.903 110.256C220.979 110.829 223.171 110.829 225.247 110.256C228.217 109.477 230.8 107.64 232.509 105.091C234.218 102.541 234.935 99.4556 234.525 96.415L231.54 72.0875C225.662 73.7058 219.415 73.3567 213.754 71.0936V70.9942Z" fill="#04014D"/>
<path d="M233.53 81.4811C233.53 81.4811 224.003 83.2205 219.724 78.5986C217.191 75.8798 215.161 72.733 213.729 69.3049H232.51L233.53 81.4811Z" fill="#04014D"/>
<path d="M224.326 71.8888C238.985 71.8888 250.868 60.018 250.868 45.3746C250.868 30.7312 238.985 18.8604 224.326 18.8604C209.667 18.8604 197.784 30.7312 197.784 45.3746C197.784 60.018 209.667 71.8888 224.326 71.8888Z" fill="white"/>
<path d="M224.326 73.1312C218.83 73.1361 213.455 71.5124 208.882 68.4655C204.31 65.4185 200.745 61.0852 198.638 56.0138C196.531 50.9424 195.977 45.3607 197.046 39.9748C198.116 34.5889 200.76 29.6408 204.645 25.7565C208.53 21.8721 213.481 19.2261 218.871 18.1531C224.262 17.0801 229.85 17.6283 234.929 19.7284C240.007 21.8285 244.348 25.3861 247.403 29.9512C250.457 34.5163 252.087 39.8838 252.087 45.3746C252.08 52.7298 249.154 59.7822 243.95 64.9855C238.746 70.1887 231.689 73.1181 224.326 73.1312ZM224.326 20.1029C219.322 20.0979 214.428 21.5759 210.264 24.3498C206.101 27.1237 202.854 31.0689 200.936 35.6863C199.017 40.3036 198.513 45.3857 199.486 50.2896C200.459 55.1935 202.867 59.6988 206.404 63.2356C209.941 66.7724 214.449 69.1817 219.357 70.1589C224.265 71.136 229.353 70.637 233.977 68.725C238.601 66.8129 242.553 63.5738 245.334 59.4174C248.115 55.2609 249.6 50.3739 249.6 45.3746C249.593 38.6784 246.929 32.258 242.191 27.5208C237.454 22.7836 231.029 20.116 224.326 20.1029Z" fill="#04014D"/>
<path d="M207.212 33.0246C207.212 33.0246 194.451 19.8793 203.058 6.83347C211.665 -6.21241 233.033 10.3372 233.033 10.3372C233.033 10.3372 233.679 0.79509 246.764 3.9758C246.764 3.9758 256.167 6.16254 248.978 21.4945C248.978 21.4945 260.769 12.8221 263.007 24.7995C263.007 24.7995 265.495 39.7091 250.246 52.904C250.246 52.904 249.301 48.8039 247.759 49.6488C246.216 50.4937 244.873 52.755 242.784 52.904C240.694 53.0531 241.167 33.0246 241.167 33.0246H207.212Z" fill="#04014D"/>
<path d="M238.231 18.5122C238.1 18.5139 237.971 18.4739 237.864 18.398C237.757 18.3221 237.676 18.2142 237.634 18.0898C236.869 15.2754 235.275 12.7558 233.057 10.8587C232.983 10.8117 232.919 10.7494 232.87 10.676C232.822 10.6025 232.789 10.5195 232.775 10.4326C232.761 10.3456 232.766 10.2567 232.788 10.1716C232.811 10.0866 232.852 10.0074 232.908 9.93924C232.964 9.87153 233.034 9.81702 233.114 9.7796C233.194 9.74218 233.28 9.72278 233.368 9.72278C233.456 9.72278 233.543 9.74218 233.623 9.7796C233.702 9.81702 233.772 9.87153 233.828 9.93924C236.268 11.9828 238.008 14.7369 238.804 17.8165C238.85 17.9746 238.831 18.1447 238.752 18.2891C238.672 18.4336 238.539 18.5407 238.381 18.5868L238.231 18.5122Z" fill="white"/>
<path d="M226.963 6.41107C224.422 3.35294 220.916 1.24743 217.021 0.43934C213.125 -0.36875 209.07 0.168481 205.52 1.96305C205.52 1.96305 196.366 7.45474 199.252 21.4946C199.252 21.4946 187.436 18.8854 185.197 30.8628C185.197 30.8628 182.71 39.6843 197.958 52.9041C197.958 52.9041 198.928 48.8039 200.446 49.6488C201.963 50.4937 203.306 52.755 205.421 52.9041C207.535 53.0532 207.013 33.0247 207.013 33.0247" fill="#04014D"/>
<path d="M245.246 24.8497H244.998C244.921 24.8151 244.853 24.7655 244.796 24.7038C244.74 24.6421 244.696 24.5697 244.668 24.4907C244.64 24.4118 244.629 24.3281 244.634 24.2446C244.639 24.1611 244.661 24.0795 244.699 24.0048C248.704 15.7797 244.152 11.0086 243.953 10.8098C243.863 10.6902 243.819 10.5422 243.83 10.3931C243.841 10.2439 243.905 10.1036 244.011 9.99781C244.116 9.89207 244.257 9.82802 244.406 9.81742C244.556 9.80682 244.704 9.85038 244.823 9.9401C244.823 9.9401 250.221 15.4815 245.819 24.5515C245.762 24.6507 245.678 24.7316 245.576 24.7845C245.475 24.8373 245.36 24.86 245.246 24.8497Z" fill="white"/>
<path d="M212.66 26.2655C203.505 25.9176 203.257 13.1202 203.257 12.996C203.263 12.9095 203.286 12.8253 203.327 12.7486C203.367 12.6719 203.423 12.6045 203.491 12.5507C203.559 12.4969 203.637 12.4578 203.721 12.4361C203.805 12.4144 203.893 12.4104 203.978 12.4244C204.143 12.4244 204.301 12.4899 204.418 12.6064C204.534 12.7229 204.6 12.8809 204.6 13.0457C204.6 13.0457 204.824 24.7745 212.809 25.0727C212.972 25.0853 213.124 25.1588 213.234 25.2787C213.345 25.3985 213.406 25.5557 213.406 25.7188C213.397 25.8056 213.37 25.8896 213.327 25.9653C213.284 26.041 213.225 26.1068 213.155 26.1584C213.084 26.21 213.004 26.2461 212.919 26.2646C212.833 26.283 212.745 26.2833 212.66 26.2655Z" fill="white"/>
<path d="M253.405 47.0396H253.132C253.058 47.0027 252.992 46.9515 252.938 46.8888C252.884 46.8261 252.843 46.7533 252.817 46.6746C252.792 46.5959 252.782 46.5129 252.789 46.4305C252.796 46.3481 252.82 46.2679 252.858 46.1947C258.878 34.3664 258.629 29.4711 257.833 27.6074C257.46 26.5389 256.888 26.2904 256.863 26.2904C256.715 26.22 256.6 26.0962 256.54 25.944C256.48 25.7918 256.48 25.6226 256.54 25.4704C256.567 25.3969 256.609 25.3295 256.663 25.2722C256.717 25.2149 256.781 25.1687 256.853 25.1364C256.925 25.1041 257.002 25.0862 257.081 25.0838C257.159 25.0814 257.237 25.0946 257.311 25.1225C257.701 25.3117 258.049 25.5792 258.331 25.9084C258.614 26.2376 258.825 26.6214 258.953 27.0359C259.948 29.5208 259.848 34.9628 253.828 46.7662C253.781 46.8387 253.719 46.9005 253.646 46.9476C253.573 46.9947 253.491 47.026 253.405 47.0396Z" fill="white"/>
<path d="M196.516 47.0393C196.404 47.0396 196.294 47.0097 196.197 46.9529C196.101 46.896 196.022 46.8143 195.968 46.7162C189.948 34.9128 189.874 29.4708 190.844 26.9859C190.971 26.5714 191.183 26.1876 191.465 25.8584C191.748 25.5292 192.095 25.2617 192.486 25.0725C192.562 25.0412 192.644 25.026 192.727 25.0281C192.81 25.0301 192.891 25.0492 192.966 25.0843C193.04 25.1193 193.107 25.1695 193.162 25.2316C193.216 25.2938 193.257 25.3665 193.282 25.4452C193.339 25.597 193.335 25.7651 193.27 25.9137C193.205 26.0622 193.084 26.1795 192.933 26.2404C192.448 26.5336 192.099 27.0073 191.963 27.5574C191.292 29.4211 191.043 34.3164 196.938 46.1447C196.977 46.2179 197 46.2981 197.007 46.3805C197.014 46.4629 197.005 46.5459 196.979 46.6246C196.954 46.7033 196.913 46.7761 196.859 46.8388C196.805 46.9015 196.739 46.9527 196.665 46.9896L196.516 47.0393Z" fill="white"/>
<path d="M244.948 51.8849C244.948 51.8849 247.858 42.9143 250.843 45.3744C258.306 51.4873 248.555 56.9045 248.555 56.9045" fill="white"/>
<path d="M248.555 58.1474C248.331 58.148 248.111 58.0883 247.919 57.9746C247.726 57.8609 247.568 57.6974 247.46 57.5013C247.306 57.2132 247.268 56.8764 247.356 56.5615C247.445 56.2466 247.651 55.9779 247.933 55.8116C249.102 55.1655 252.162 52.9291 252.386 50.469C252.371 49.6413 252.149 48.8304 251.74 48.11C251.332 47.3897 250.75 46.7826 250.047 46.344C249.848 46.1452 249.749 46.1949 249.699 46.1949C248.754 46.5179 247.012 49.6986 246.266 52.1836C246.167 52.5131 245.941 52.7899 245.638 52.953C245.335 53.1161 244.979 53.1522 244.649 53.0533C244.319 52.9544 244.042 52.7287 243.879 52.4258C243.716 52.1229 243.68 51.7676 243.779 51.4381C244.152 50.295 246.266 44.5797 249.027 43.7348C249.482 43.6116 249.96 43.6015 250.42 43.7054C250.88 43.8094 251.307 44.0242 251.664 44.3312C252.689 45.0214 253.521 45.9606 254.082 47.0603C254.643 48.1601 254.916 49.3843 254.873 50.6181C254.5 54.8921 249.4 57.7995 249.177 57.9238C248.993 58.053 248.778 58.1302 248.555 58.1474Z" fill="#04014D"/>
<path d="M203.257 51.8849C203.257 51.8849 200.346 42.9143 197.361 45.3744C189.899 51.4873 199.675 56.9045 199.675 56.9045" fill="white"/>
<path d="M199.675 58.1471C199.458 58.1482 199.245 58.097 199.053 57.998C198.829 57.8738 193.754 54.9664 193.356 50.6923C193.324 49.4656 193.596 48.25 194.147 47.1533C194.698 46.0565 195.512 45.1127 196.515 44.4055C196.877 44.0964 197.308 43.8804 197.772 43.7765C198.236 43.6725 198.718 43.6837 199.177 43.8091C202.038 44.654 204.152 50.3693 204.401 51.5124C204.496 51.8255 204.467 52.1633 204.318 52.4551C204.17 52.7469 203.914 52.9701 203.605 53.0779C203.448 53.1278 203.283 53.1462 203.119 53.1319C202.955 53.1176 202.796 53.071 202.65 52.9947C202.504 52.9185 202.375 52.8141 202.27 52.6876C202.165 52.5611 202.086 52.415 202.038 52.2578C201.167 49.5741 199.55 46.5177 198.481 46.1946C198.481 46.1946 198.331 46.1946 198.107 46.3437C197.409 46.7853 196.832 47.3936 196.428 48.1138C196.024 48.8339 195.806 49.6433 195.794 50.4687C196.018 52.9536 199.053 55.1652 200.222 55.8113C200.508 55.9731 200.719 56.2418 200.808 56.5586C200.896 56.8753 200.856 57.2142 200.695 57.501C200.595 57.688 200.449 57.8458 200.27 57.9591C200.091 58.0724 199.886 58.1372 199.675 58.1471Z" fill="#04014D"/>
<path d="M164.75 170.963H286.639C288.783 170.963 290.839 171.814 292.355 173.328C293.872 174.843 294.723 176.897 294.723 179.039V258.432C294.723 259.506 294.296 260.537 293.536 261.296C292.775 262.056 291.744 262.483 290.669 262.483H160.695C159.633 262.463 158.62 262.028 157.876 261.27C157.132 260.513 156.715 259.494 156.715 258.432V179.039C156.715 176.905 157.56 174.859 159.065 173.346C160.571 171.833 162.614 170.976 164.75 170.963Z" fill="white"/>
<path d="M290.644 263.675H160.695C159.3 263.669 157.964 263.116 156.973 262.136C155.982 261.155 155.416 259.825 155.396 258.432V179.039C155.403 176.565 156.391 174.195 158.145 172.448C159.898 170.701 162.273 169.72 164.75 169.72H286.639C287.867 169.717 289.084 169.955 290.22 170.422C291.356 170.889 292.389 171.574 293.26 172.439C294.131 173.305 294.822 174.333 295.295 175.465C295.769 176.597 296.014 177.812 296.017 179.039V258.432C295.997 259.838 295.421 261.179 294.414 262.162C293.407 263.145 292.051 263.689 290.644 263.675ZM164.75 172.205C162.933 172.205 161.191 172.924 159.904 174.205C158.617 175.486 157.891 177.224 157.884 179.039V258.432C157.891 259.175 158.189 259.885 158.714 260.411C159.24 260.936 159.951 261.234 160.695 261.24H290.644C291.018 261.247 291.39 261.179 291.739 261.041C292.087 260.903 292.404 260.698 292.673 260.437C292.941 260.176 293.155 259.864 293.302 259.52C293.449 259.176 293.526 258.806 293.529 258.432V179.039C293.523 177.224 292.797 175.486 291.51 174.205C290.223 172.924 288.48 172.205 286.664 172.205H164.75Z" fill="#04014D"/>
<path d="M290.619 262.433H160.695C158.456 262.433 156.64 264.247 156.64 266.484V270.782C156.64 273.019 158.456 274.833 160.695 274.833H290.619C292.858 274.833 294.674 273.019 294.674 270.782V266.484C294.674 264.247 292.858 262.433 290.619 262.433Z" fill="white"/>
<path d="M290.644 276.051H160.695C159.307 276.051 157.974 275.507 156.983 274.536C155.992 273.564 155.423 272.244 155.396 270.857V266.558C155.403 265.159 155.964 263.819 156.957 262.832C157.95 261.844 159.294 261.29 160.695 261.29H290.644C292.045 261.29 293.389 261.844 294.382 262.832C295.375 263.819 295.936 265.159 295.942 266.558V270.857C295.916 272.244 295.347 273.564 294.356 274.536C293.365 275.507 292.032 276.051 290.644 276.051ZM160.695 263.626C159.954 263.626 159.243 263.918 158.716 264.44C158.19 264.961 157.891 265.669 157.884 266.409V270.857C157.884 271.602 158.18 272.316 158.707 272.843C159.234 273.369 159.949 273.665 160.695 273.665H290.644C291.019 273.675 291.393 273.61 291.742 273.473C292.092 273.336 292.411 273.131 292.68 272.869C292.949 272.608 293.163 272.295 293.309 271.949C293.454 271.604 293.53 271.232 293.529 270.857V266.558C293.523 265.818 293.224 265.11 292.697 264.589C292.171 264.067 291.46 263.775 290.718 263.775L160.695 263.626Z" fill="#04014D"/>
<path d="M225.669 234.602C234.407 234.602 241.49 227.526 241.49 218.798C241.49 210.07 234.407 202.994 225.669 202.994C216.932 202.994 209.849 210.07 209.849 218.798C209.849 227.526 216.932 234.602 225.669 234.602Z" fill="#04014D"/>
<path d="M221.689 123.053C218.702 123.233 215.711 122.767 212.92 121.686C210.13 120.605 207.606 118.936 205.52 116.791C197.834 108.293 199.376 94.5759 199.451 94.0044C199.47 93.8412 199.522 93.6835 199.603 93.5403C199.683 93.397 199.791 93.271 199.921 93.1695C200.05 93.068 200.198 92.9929 200.356 92.9485C200.515 92.9042 200.68 92.8914 200.844 92.911C201.007 92.9306 201.165 92.9821 201.308 93.0627C201.452 93.1432 201.578 93.2511 201.68 93.3804C201.781 93.5096 201.856 93.6575 201.901 93.8158C201.945 93.974 201.958 94.1394 201.938 94.3026C201.938 94.4268 200.471 107.498 207.411 115.126C209.331 117.098 211.667 118.619 214.248 119.577C216.83 120.536 219.593 120.908 222.336 120.668C225.054 120.801 227.767 120.32 230.273 119.262C232.78 118.204 235.015 116.595 236.814 114.555C243.306 106.603 240.993 93.4826 240.968 93.3583C240.937 93.1951 240.938 93.0275 240.972 92.8649C241.006 92.7023 241.071 92.5479 241.165 92.4106C241.259 92.2733 241.378 92.1558 241.517 92.0647C241.656 91.9736 241.812 91.9108 241.975 91.8798C242.139 91.8488 242.306 91.8502 242.469 91.884C242.632 91.9178 242.786 91.9833 242.924 92.0768C243.061 92.1702 243.179 92.2898 243.27 92.4287C243.361 92.5675 243.424 92.723 243.455 92.8862C243.455 93.4826 245.943 107.299 238.804 116.145C236.773 118.461 234.248 120.292 231.416 121.505C228.583 122.717 225.515 123.281 222.436 123.153L221.689 123.053Z" fill="#04014D"/>
<path d="M267.41 332.508C267.41 332.508 327.41 344.933 342.335 326.619C342.335 326.619 356.016 304.553 335.494 303.311L269.898 310.144" fill="white"/>
<path d="M306.713 337.95C293.422 337.77 280.175 336.381 267.137 333.8L267.659 331.315C268.256 331.439 327.086 343.392 341.365 325.848C341.365 325.848 347.882 315.163 344.698 309.001C343.305 306.366 340.196 304.876 335.42 304.577L270.022 311.411L269.749 308.926L335.37 302.092C341.29 302.44 345.096 304.379 346.912 307.857C350.743 315.312 343.703 326.793 343.405 327.29C336.688 335.465 321.664 337.95 306.713 337.95Z" fill="#04014D"/>
<path d="M281.266 334.819C299.947 337.304 331.663 339.243 341.937 326.594C341.937 326.594 355.618 304.553 335.096 303.311L291.987 307.808C291.937 308.753 290.743 333.155 281.266 334.819Z" fill="#04014D"/>
<path d="M267.41 332.508L237.56 331.241C237.56 331.241 227.386 296.576 246.266 295.707L269.848 310.243" fill="white"/>
<path d="M267.41 333.751L236.814 332.434L236.54 331.589C236.291 330.669 229.998 309.225 237.013 299.285C238.052 297.773 239.439 296.532 241.058 295.668C242.677 294.803 244.48 294.339 246.316 294.315H246.714L270.619 309.075C270.757 309.159 270.878 309.27 270.973 309.401C271.068 309.531 271.136 309.68 271.173 309.837C271.21 309.994 271.215 310.157 271.188 310.317C271.162 310.476 271.104 310.628 271.017 310.765C270.933 310.906 270.821 311.029 270.689 311.127C270.557 311.224 270.407 311.295 270.247 311.334C270.088 311.373 269.922 311.381 269.759 311.355C269.597 311.33 269.441 311.273 269.301 311.188L246.067 296.85C244.668 296.888 243.297 297.254 242.066 297.919C240.834 298.583 239.777 299.528 238.978 300.676C233.381 308.578 237.56 326.023 238.63 330.073L267.46 331.291C267.79 331.291 268.106 331.422 268.34 331.655C268.573 331.888 268.704 332.204 268.704 332.533C268.704 332.863 268.573 333.179 268.34 333.412C268.106 333.645 267.79 333.776 267.46 333.776L267.41 333.751Z" fill="#04014D"/>
<path d="M253.331 299.931C253.331 299.931 262.46 322.668 247.261 332.508L232.336 330.744L241.042 292.228L253.331 299.931Z" fill="#04014D"/>
<path d="M202.287 322.742C202.287 322.742 109.75 310.467 91.7155 269.465C73.6809 228.464 100.422 221.63 100.422 221.63C122.81 213.554 245.321 291.83 245.321 291.83C245.321 291.83 254.649 317.921 232.261 336.558L120.322 284.996" fill="white"/>
<path d="M232.46 337.95L201.938 323.886C185.478 321.424 169.24 317.651 153.382 312.604C119.402 301.67 98.208 287.307 90.5713 269.963C83.5813 254.059 82.3375 241.237 86.8897 231.918C88.1895 229.198 90.0348 226.773 92.3112 224.794C94.5876 222.815 97.2466 221.324 100.123 220.413C122.71 212.263 240.968 287.506 245.993 290.761L246.341 291.01L246.49 291.408C246.49 291.681 255.843 318.518 233.057 337.503L232.46 337.95ZM120.845 283.853L232.062 335.093C238.04 329.988 242.385 323.242 244.556 315.692C246.728 308.142 246.63 300.121 244.276 292.625C240.694 290.339 211.714 272 180.645 254.78C125.82 224.314 106.964 220.562 100.845 222.799C98.2989 223.628 95.9467 224.962 93.9292 226.722C91.9117 228.481 90.2704 230.629 89.1036 233.037C84.9246 241.684 86.1683 253.786 92.8598 268.944C107.089 301.248 169.774 315.685 193.406 320.009L119.8 286.115L120.845 283.853Z" fill="#04014D"/>
<path d="M217.436 274.634C217.436 274.634 188.804 290.414 172.287 308.926L193.58 318.866L224.301 278.908L217.436 274.634Z" fill="#04014D"/>
<path d="M322.459 304.677C322.459 304.677 296.987 322.27 271.763 323.91L269.898 310.144L322.459 304.677Z" fill="#04014D"/>
<path d="M186.565 332.508C186.242 332.508 180.546 333.751 172.337 334.819C153.655 337.304 121.939 339.243 111.666 326.594C111.666 326.594 97.9842 304.553 118.506 303.311L161.69 307.808L184.078 310.144" fill="white"/>
<path d="M146.765 337.95C131.442 337.95 117.163 335.466 110.671 327.439C110.273 326.818 103.208 315.313 107.064 307.908C108.88 304.404 112.685 302.466 118.407 302.118L184.078 308.926L183.829 311.411L118.233 304.578C113.656 304.876 110.521 306.367 109.153 309.026C105.944 315.189 112.511 325.874 112.561 325.973C122.511 338.075 154.053 335.913 172.013 333.627C179.774 332.608 185.521 331.465 186.142 331.341L186.69 333.825C186.69 333.825 180.968 335.043 172.337 336.161C163.858 337.29 155.318 337.887 146.765 337.95Z" fill="#04014D"/>
<path d="M186.565 332.508L216.416 331.241C216.416 331.241 226.689 296.452 207.784 295.607L184.078 310.144C184.078 310.144 183.754 310.989 183.356 312.38" fill="white"/>
<path d="M186.565 333.75C186.235 333.75 185.919 333.619 185.686 333.386C185.453 333.153 185.322 332.837 185.322 332.508C185.322 332.178 185.453 331.862 185.686 331.629C185.919 331.396 186.235 331.265 186.565 331.265L215.396 330.048C216.466 325.997 220.62 308.553 215.048 300.651C214.248 299.518 213.196 298.588 211.974 297.932C210.752 297.276 209.394 296.914 208.008 296.874L185.147 310.988C185.023 311.336 184.824 311.933 184.6 312.703C184.511 313.032 184.295 313.313 183.998 313.483C183.702 313.653 183.35 313.699 183.021 313.61C182.691 313.521 182.41 313.305 182.239 313.009C182.069 312.713 182.024 312.361 182.113 312.032C182.323 311.231 182.581 310.442 182.884 309.671L183.033 309.298L207.287 294.389H207.66C209.496 294.411 211.3 294.874 212.919 295.739C214.538 296.604 215.925 297.845 216.963 299.359C223.978 309.298 217.709 330.793 217.436 331.663L217.187 332.508L186.565 333.75Z" fill="#04014D"/>
<path d="M201.316 299.484C201.316 299.484 195.222 320.606 206.69 330.744L221.266 329.502L214.202 292.228L201.316 299.484Z" fill="#04014D"/>
<path d="M333.604 284.996L221.665 336.558C199.277 317.921 208.605 291.83 208.605 291.83C208.605 291.83 331.116 213.554 353.504 221.63C353.504 221.63 380.245 228.464 362.21 269.465C344.176 310.467 251.664 322.742 251.664 322.742" fill="white"/>
<path d="M221.391 337.95L220.769 337.453C197.983 318.468 207.262 291.631 207.336 291.358L207.486 290.96L207.859 290.711C212.834 287.506 331.141 212.213 353.827 220.413C356.682 221.322 359.319 222.808 361.575 224.779C363.83 226.749 365.655 229.163 366.937 231.868C371.489 241.187 370.27 254.009 363.255 269.913C355.643 287.307 334.499 301.62 300.47 312.604C284.611 317.651 268.374 321.424 251.913 323.885L221.391 337.95ZM209.55 292.575C207.212 300.074 207.125 308.093 209.3 315.641C211.476 323.188 215.817 329.934 221.789 335.043L333.007 283.803L334.027 286.065L260.445 319.959C284.077 315.635 346.738 301.272 360.992 268.894C367.658 253.736 368.927 241.56 364.723 232.987C363.576 230.617 361.97 228.498 359.997 226.754C358.024 225.009 355.724 223.673 353.23 222.823C346.987 220.562 328.156 224.314 273.306 254.779C242.212 272.025 213.232 290.364 209.65 292.625L209.55 292.575Z" fill="#04014D"/>
<path d="M324.176 289.345L282.584 316.505L255.943 320.755L324.176 289.345Z" fill="#04014D"/>
<path d="M172.287 334.819C153.605 337.304 121.889 339.243 111.616 326.594C111.616 326.594 97.9344 304.553 118.457 303.311L161.69 307.808C161.69 308.753 162.809 333.155 172.287 334.819Z" fill="#04014D"/>
<path d="M482.731 270.261C473.826 270.261 461.388 267.229 450.717 253.438C450.443 253.065 444.921 245.188 446.637 237.858C448.354 230.527 465.667 230.055 467.632 230.055C467.806 230.055 492.284 229.881 494 263.328C494.08 264.869 493.585 266.386 492.611 267.583C491.637 268.781 490.253 269.576 488.726 269.814C486.741 270.107 484.738 270.257 482.731 270.261ZM467.657 232.54C460.99 232.54 450.07 234.155 449.075 238.429C447.607 244.641 452.657 251.873 452.707 251.947C465.319 268.223 480.443 268.571 488.353 267.354C489.267 267.213 490.096 266.739 490.68 266.023C491.263 265.307 491.56 264.399 491.512 263.477C490.045 233.236 469.622 232.54 467.657 232.54Z" fill="#04014D"/>
<path d="M491.438 265.564C487.846 261.926 484.068 258.475 480.119 255.227C476.179 251.954 472.024 248.949 467.682 246.231C463.442 243.501 458.824 241.408 453.975 240.019C451.704 239.237 449.28 239.005 446.901 239.342C444.523 239.679 442.258 240.575 440.294 241.957C440.038 242.168 439.711 242.27 439.381 242.242C439.051 242.214 438.745 242.058 438.528 241.808C438.326 241.547 438.232 241.219 438.264 240.891C438.297 240.563 438.453 240.26 438.702 240.044C440.966 238.402 443.647 237.429 446.438 237.236C449.132 237.115 451.827 237.468 454.398 238.279C459.346 239.895 464.025 242.24 468.279 245.237C472.526 248.153 476.573 251.349 480.393 254.804C484.264 258.192 487.95 261.784 491.438 265.564Z" fill="#04014D"/>
<path d="M415.245 252.245C411.049 252.287 406.888 251.479 403.015 249.869C399.141 248.258 395.634 245.88 392.707 242.877C391.588 241.745 390.947 240.228 390.914 238.637C390.882 237.047 391.461 235.505 392.533 234.329C410.493 214.946 425.618 227.321 425.767 227.445C426.986 228.439 437.831 237.385 435.021 243.274C432.21 249.164 424.772 251.027 424.448 251.102C421.436 251.844 418.347 252.227 415.245 252.245ZM394.498 241.038C398.802 245.436 408.329 252.27 423.827 248.493C423.827 248.493 430.593 246.555 432.782 242.007C434.274 238.901 428.279 232.49 424.175 229.16C423.603 228.688 410.667 218.226 394.324 235.82C393.675 236.522 393.325 237.449 393.348 238.404C393.371 239.36 393.766 240.269 394.449 240.939L394.498 241.038Z" fill="#04014D"/>
<path d="M392.583 237.858C400.801 236.507 409.146 236.09 417.459 236.615C421.705 236.818 425.898 237.656 429.896 239.1C431.893 239.956 433.728 241.15 435.319 242.629C437.011 244.194 438.234 246.199 438.851 248.419C438.892 248.582 438.9 248.751 438.876 248.918C438.851 249.084 438.793 249.244 438.707 249.388C438.62 249.532 438.506 249.658 438.371 249.758C438.235 249.858 438.082 249.931 437.918 249.972C437.755 250.012 437.585 250.021 437.419 249.996C437.252 249.971 437.092 249.914 436.948 249.827C436.804 249.741 436.678 249.627 436.577 249.492C436.477 249.357 436.405 249.203 436.364 249.04C435.843 247.205 434.895 245.52 433.598 244.121C432.302 242.722 430.692 241.648 428.901 240.989C425.169 239.389 421.221 238.351 417.185 237.907C409.012 236.967 400.76 236.951 392.583 237.858Z" fill="#04014D"/>
<path d="M456.189 232.565C453.773 232.56 451.363 232.301 449.001 231.794C448.677 231.794 442.085 229.956 439.647 225.184C437.21 220.413 446.289 212.139 447.334 211.244C447.334 211.244 459.971 200.41 475.567 215.99C476.711 217.144 477.353 218.702 477.353 220.326C477.353 221.95 476.711 223.509 475.567 224.663C473.028 227.205 470.006 229.213 466.678 230.57C463.35 231.928 459.784 232.606 456.189 232.565ZM458.155 209.977C454.824 209.95 451.585 211.064 448.976 213.133C445.294 216.239 440.667 221.681 441.886 224.066C443.802 227.818 449.523 229.359 449.573 229.359C453.824 230.489 458.298 230.487 462.549 229.353C466.799 228.22 470.679 225.994 473.801 222.898C474.48 222.214 474.861 221.29 474.861 220.326C474.861 219.363 474.48 218.439 473.801 217.755C467.781 211.716 462.359 209.977 458.155 209.977Z" fill="#04014D"/>
<path d="M475.99 219.693C468.962 219.07 461.885 219.245 454.896 220.214C451.453 220.682 448.099 221.662 444.946 223.122C443.451 223.71 442.119 224.646 441.059 225.852C439.999 227.057 439.242 228.498 438.851 230.055C438.798 230.384 438.617 230.679 438.346 230.875C438.076 231.071 437.738 231.151 437.408 231.098C437.079 231.046 436.783 230.864 436.587 230.594C436.391 230.324 436.311 229.987 436.364 229.657C436.851 227.709 437.887 225.941 439.349 224.563C440.749 223.285 442.366 222.266 444.125 221.556C447.497 220.209 451.052 219.371 454.672 219.071C461.778 218.464 468.931 218.672 475.99 219.693Z" fill="#04014D"/>
<path d="M403.354 213.555C395.209 213.571 387.278 210.956 380.742 206.1C379.498 205.187 378.64 203.843 378.336 202.33C378.032 200.818 378.305 199.247 379.101 197.925C396.265 168.975 417.906 180.58 417.906 180.704C419.598 181.599 434.747 189.849 432.831 197.378C430.916 204.907 422.359 209.057 422.011 209.231C416.172 211.986 409.811 213.46 403.354 213.555ZM382.21 204.013C388.628 208.784 402.11 215.518 420.966 206.995C420.966 206.995 428.851 202.944 430.468 196.757C431.563 192.508 422.682 185.997 416.812 182.891C415.991 182.444 397.11 172.404 381.215 199.093C380.735 199.897 380.57 200.851 380.754 201.769C380.938 202.687 381.457 203.505 382.21 204.062V204.013Z" fill="#04014D"/>
<path d="M380.32 200.981C385.136 199.228 390.044 197.735 395.021 196.508C400.011 195.268 405.081 194.371 410.195 193.825C415.363 193.142 420.604 193.242 425.742 194.123C428.376 194.613 430.902 195.563 433.205 196.931C435.594 198.394 437.518 200.505 438.752 203.019C438.836 203.167 438.889 203.331 438.907 203.501C438.926 203.671 438.909 203.842 438.857 204.005C438.806 204.168 438.722 204.319 438.61 204.447C438.498 204.576 438.361 204.681 438.207 204.754C438.053 204.828 437.885 204.869 437.714 204.875C437.544 204.881 437.374 204.852 437.215 204.789C437.056 204.727 436.911 204.632 436.791 204.511C436.67 204.391 436.575 204.246 436.513 204.087C435.422 201.946 433.839 200.093 431.894 198.681C429.948 197.268 427.695 196.337 425.319 195.962C420.374 194.928 415.303 194.627 410.27 195.067C405.187 195.465 400.135 196.187 395.145 197.229C390.141 198.221 385.193 199.473 380.32 200.981Z" fill="#04014D"/>
<path d="M438.478 177.35C435.717 177.35 429.051 176.803 425.245 171.808C421.737 167.211 421.687 160.204 425.095 150.96C425.543 150.065 434.797 132.671 448.205 126.309C448.985 125.95 449.833 125.764 450.692 125.764C451.551 125.764 452.4 125.95 453.18 126.309C458.279 128.496 469.423 136.249 462.856 161.521C462.856 161.695 458.578 175.908 439.772 177.374L438.478 177.35ZM450.692 128.247C450.201 128.242 449.715 128.352 449.274 128.57C436.588 134.559 427.459 151.78 427.359 151.954C424.324 160.204 424.25 166.416 427.21 170.292C431.165 175.461 439.399 174.84 439.473 174.84C456.513 173.523 460.219 161.347 460.369 160.825C466.438 137.491 456.612 130.484 452.11 128.521C451.66 128.336 451.178 128.243 450.692 128.247Z" fill="#04014D"/>
<path d="M448.453 133.143C446.774 137.616 445.403 142.199 444.349 146.859C443.254 151.506 442.408 156.203 441.712 160.924C441.015 165.645 440.543 170.392 440.269 175.138C439.996 179.884 439.846 184.655 439.821 189.401C439.821 189.731 439.69 190.047 439.457 190.28C439.224 190.513 438.908 190.644 438.578 190.644C438.248 190.644 437.931 190.513 437.698 190.28C437.465 190.047 437.334 189.731 437.334 189.401C437.558 184.605 437.856 179.81 438.404 175.014C438.951 170.218 439.647 165.496 440.493 160.775C441.339 156.054 442.458 151.382 443.752 146.76C445.01 142.12 446.581 137.571 448.453 133.143Z" fill="#04014D"/>
<path d="M452.408 208.511C449.314 208.552 446.226 208.235 443.204 207.566C442.964 207.504 442.748 207.371 442.584 207.185C442.42 206.999 442.316 206.768 442.284 206.523C442.249 206.277 442.289 206.026 442.4 205.804C442.511 205.582 442.688 205.399 442.906 205.28L485.368 181.4C485.557 181.291 485.772 181.234 485.99 181.234C486.208 181.234 486.423 181.291 486.612 181.4C486.8 181.508 486.956 181.664 487.065 181.852C487.175 182.039 487.233 182.252 487.234 182.469C487.072 187.238 485.538 191.86 482.816 195.782C480.094 199.703 476.3 202.759 471.886 204.584C465.72 207.176 459.098 208.511 452.408 208.511ZM447.209 205.703C455.273 206.59 463.429 205.419 470.916 202.298C474.543 200.833 477.716 198.432 480.11 195.341C482.505 192.25 484.036 188.58 484.547 184.705L447.209 205.703Z" fill="#04014D"/>
<path d="M438.578 210.449C438.355 210.447 438.136 210.386 437.944 210.272C437.752 210.159 437.593 209.997 437.483 209.802C437.329 209.514 437.291 209.178 437.38 208.863C437.468 208.548 437.674 208.279 437.956 208.113L446.936 203.143C447.077 203.041 447.237 202.969 447.408 202.933C447.578 202.896 447.754 202.896 447.924 202.932C448.094 202.968 448.255 203.039 448.396 203.141C448.537 203.243 448.655 203.373 448.743 203.523C448.83 203.673 448.885 203.84 448.904 204.013C448.923 204.186 448.905 204.361 448.852 204.526C448.799 204.692 448.712 204.845 448.596 204.974C448.48 205.104 448.338 205.208 448.18 205.28L439.2 210.399C439.001 210.471 438.786 210.489 438.578 210.449Z" fill="#04014D"/>
<path d="M430.767 224.637C427.349 224.637 423.965 223.953 420.817 222.625C418.51 221.672 416.534 220.066 415.133 218.003C413.731 215.94 412.966 213.513 412.931 211.02C412.929 210.806 412.986 210.595 413.096 210.411C413.205 210.227 413.364 210.077 413.553 209.976C413.738 209.867 413.948 209.809 414.163 209.809C414.377 209.809 414.588 209.867 414.772 209.976L435.941 221.854C436.15 221.983 436.319 222.167 436.429 222.387C436.539 222.606 436.585 222.852 436.563 223.097C436.531 223.343 436.427 223.573 436.262 223.759C436.098 223.945 435.883 224.078 435.642 224.14C434.044 224.506 432.406 224.673 430.767 224.637ZM415.618 213.356C416.018 214.925 416.787 216.376 417.859 217.59C418.932 218.805 420.278 219.746 421.787 220.338C424.775 221.597 427.997 222.207 431.239 222.128L415.618 213.356Z" fill="#04014D"/>
<path d="M437.657 225.607C437.438 225.608 437.222 225.548 437.036 225.433L432.583 222.948C432.294 222.781 432.083 222.508 431.995 222.187C431.906 221.866 431.948 221.524 432.11 221.233C432.19 221.091 432.298 220.966 432.427 220.867C432.556 220.767 432.703 220.694 432.861 220.652C433.019 220.61 433.183 220.601 433.345 220.624C433.507 220.647 433.662 220.702 433.802 220.786L438.279 223.271C438.561 223.437 438.768 223.706 438.856 224.021C438.944 224.336 438.907 224.672 438.752 224.961C438.645 225.157 438.486 225.32 438.294 225.434C438.101 225.548 437.881 225.607 437.657 225.607Z" fill="#04014D"/>
<path d="M440.443 272.969L439.15 177.225L435.319 273.093" fill="#04014D"/>
<path d="M436.563 273.143L434.075 273.044L437.906 177.175L440.369 177.2L441.687 272.944L439.199 272.994L438.528 223.767L436.563 273.143Z" fill="#04014D"/>
<path d="M457.707 335.912H421.414C417.787 335.906 414.311 334.464 411.747 331.902C409.183 329.341 407.739 325.868 407.732 322.245V273.093C407.739 272.766 407.872 272.454 408.104 272.222C408.336 271.99 408.648 271.857 408.976 271.851H470.145C470.475 271.851 470.791 271.982 471.024 272.215C471.257 272.448 471.388 272.764 471.388 273.093V322.245C471.388 325.87 469.947 329.346 467.381 331.909C464.815 334.473 461.336 335.912 457.707 335.912ZM410.22 274.336V322.245C410.227 325.209 411.408 328.049 413.506 330.145C415.604 332.241 418.447 333.421 421.414 333.428H457.707C460.676 333.428 463.523 332.249 465.622 330.152C467.722 328.055 468.901 325.211 468.901 322.245V274.336H410.22Z" fill="#04014D"/>
<path d="M34.8256 197.75C34.049 194.258 32.1556 191.113 29.4315 188.791C26.7074 186.469 23.3007 185.095 19.7262 184.878C12.4377 184.63 5.6965 190.047 2.48758 196.309C0.547296 199.987 -2.4875 209.305 3.48259 211.045C9.45268 212.784 10.9452 204.36 13.2337 200.881C14.1957 199.354 15.4842 198.058 17.0067 197.088C18.5292 196.117 20.2479 195.494 22.0396 195.265C23.8717 195.062 25.7251 195.344 27.4127 196.085C29.1649 197 30.7267 198.24 32.0146 199.738C33.4077 201.179 35.6216 198.968 34.2037 197.551C32.2235 195.238 29.6404 193.518 26.7411 192.582C23.9236 191.849 20.9464 192.023 18.2337 193.079C15.5381 194.073 13.1705 195.793 11.393 198.048C10.1117 199.99 9.04419 202.065 8.20891 204.236C7.6119 205.478 6.11938 208.883 4.1791 207.914C2.23882 206.945 3.23384 203.764 3.53234 202.248C4.21631 199.177 5.65446 196.325 7.71717 193.947C9.77988 191.57 12.4023 189.743 15.3481 188.631C17.0922 188.115 18.9243 187.967 20.7286 188.196C22.5329 188.425 24.27 189.025 25.8298 189.96C27.3895 190.894 28.7381 192.142 29.7899 193.624C30.8417 195.106 31.5739 196.791 31.94 198.57C32.338 200.533 35.3479 199.713 34.9251 197.75H34.8256Z" fill="#04014D"/>
<path d="M42.5619 293.619H42.4375C42.1096 293.582 41.8093 293.418 41.6003 293.163C41.3913 292.908 41.2901 292.581 41.3181 292.253C43.2584 271.876 37.7858 236.093 34.552 214.723C33.7062 209.306 33.0097 204.634 32.5868 201.404C32.39 199.536 31.576 197.788 30.2734 196.434C30.1568 196.318 30.0643 196.181 30.0012 196.03C29.938 195.878 29.9055 195.716 29.9055 195.552C29.9055 195.388 29.938 195.225 30.0012 195.074C30.0643 194.922 30.1568 194.785 30.2734 194.67C30.5101 194.44 30.8268 194.312 31.1565 194.312C31.4862 194.312 31.8029 194.44 32.0396 194.67C33.7216 196.388 34.781 198.618 35.0495 201.006C35.4724 204.212 36.1689 208.883 36.9898 214.276C40.2733 235.77 45.7459 271.727 43.8056 292.427C43.7928 292.748 43.6561 293.051 43.4242 293.273C43.1923 293.496 42.8833 293.62 42.5619 293.619Z" fill="#04014D"/>
<path d="M55.1737 186.146C55.8366 182.907 57.6921 180.036 60.3729 178.098C63.0538 176.161 66.3649 175.3 69.6511 175.684C72.8514 176.403 75.8009 177.964 78.1935 180.206C80.5861 182.447 82.3347 185.288 83.258 188.432C84.1101 190.464 84.2417 192.726 83.6311 194.843C82.5863 197.005 80.5217 194.694 79.85 193.551C78.6809 191.588 78.059 189.401 76.9645 187.438C75.4923 184.87 73.3178 182.776 70.6959 181.399C67.8929 179.907 64.6797 179.366 61.5418 179.859C58.1703 180.622 55.1399 182.463 52.91 185.102C52.6197 185.392 52.4566 185.785 52.4566 186.195C52.4566 186.605 52.6197 186.999 52.91 187.289C53.2003 187.579 53.594 187.742 54.0045 187.742C54.415 187.742 54.8088 187.579 55.099 187.289C56.1631 185.956 57.4982 184.863 59.0161 184.083C60.5341 183.304 62.2004 182.855 63.9049 182.766C65.4852 182.799 67.0436 183.143 68.4906 183.778C69.9377 184.413 71.245 185.328 72.3377 186.469C74.0772 188.686 75.4464 191.17 76.3924 193.824C77.462 196.011 79.1038 198.521 81.7903 198.794C88.5067 199.49 87.238 190.221 85.7704 186.369C84.5547 182.913 82.4628 179.83 79.6987 177.421C76.9347 175.013 73.5929 173.361 69.9994 172.628C65.9905 172.172 61.9548 173.218 58.6737 175.564C55.3926 177.909 53.0995 181.388 52.2384 185.326C51.8155 187.264 54.7259 188.109 55.2234 186.146H55.1737Z" fill="#04014D"/>
<path d="M52.0144 293.619C51.705 293.621 51.4061 293.507 51.1762 293.301C50.9462 293.094 50.8016 292.809 50.7707 292.501C48.2831 266.236 50.099 203.963 52.0393 188.656C52.3275 186.268 53.3939 184.042 55.0741 182.32C55.1901 182.204 55.3277 182.112 55.4793 182.049C55.6308 181.986 55.7932 181.954 55.9572 181.954C56.1212 181.954 56.2836 181.986 56.4351 182.049C56.5866 182.112 56.7243 182.204 56.8402 182.32C56.9562 182.435 57.0482 182.573 57.111 182.724C57.1737 182.876 57.206 183.038 57.206 183.202C57.206 183.365 57.1737 183.528 57.111 183.679C57.0482 183.83 56.9562 183.968 56.8402 184.084C55.5196 185.425 54.7026 187.18 54.5268 189.054C52.5866 204.261 50.7955 266.211 53.2582 292.327C53.2862 292.656 53.185 292.982 52.976 293.237C52.767 293.493 52.4667 293.656 52.1388 293.694L52.0144 293.619Z" fill="#04014D"/>
<path d="M47.9846 293.619H47.8602C47.6966 293.604 47.5376 293.556 47.3926 293.479C47.2475 293.402 47.1193 293.296 47.0152 293.169C46.9111 293.042 46.8332 292.896 46.7861 292.738C46.7391 292.581 46.7237 292.416 46.7408 292.253C49.2284 267.056 42.6364 190.892 40.4971 174.07C40.3003 172.202 39.4863 170.453 38.1837 169.1C38.0671 168.984 37.9746 168.847 37.9114 168.695C37.8483 168.544 37.8158 168.382 37.8158 168.217C37.8158 168.053 37.8483 167.891 37.9114 167.74C37.9746 167.588 38.0671 167.451 38.1837 167.335C38.4204 167.106 38.7371 166.978 39.0668 166.978C39.3964 166.978 39.7132 167.106 39.9499 167.335C41.6179 169.063 42.6749 171.288 42.9598 173.672C45.0991 190.545 51.6164 267.031 49.2035 292.427C49.197 292.745 49.0657 293.049 48.8378 293.272C48.6099 293.495 48.3036 293.619 47.9846 293.619Z" fill="#04014D"/>
<path d="M44.6016 210.921C44.3126 210.915 44.0343 210.811 43.8126 210.625C43.591 210.44 43.4393 210.185 43.3827 209.902C41.3783 201.791 38.8863 193.808 35.9201 185.997C35.8629 185.843 35.8366 185.68 35.8425 185.517C35.8484 185.353 35.8866 185.192 35.9547 185.044C36.0228 184.895 36.1197 184.761 36.2396 184.649C36.3596 184.538 36.5004 184.451 36.6539 184.394C36.8074 184.337 36.9707 184.311 37.1345 184.316C37.2982 184.322 37.4591 184.361 37.6081 184.429C37.7571 184.497 37.8912 184.593 38.0028 184.713C38.1144 184.833 38.2012 184.974 38.2584 185.127C41.2388 193.077 43.731 201.201 45.721 209.454C45.7495 209.616 45.7457 209.782 45.7098 209.942C45.6739 210.102 45.6066 210.253 45.5118 210.387C45.4169 210.521 45.2965 210.635 45.1573 210.723C45.0182 210.81 44.8631 210.869 44.7011 210.896L44.6016 210.921Z" fill="#04014D"/>
<path d="M38.7559 191.066C38.4791 191.067 38.2101 190.975 37.9931 190.803C37.7761 190.631 37.624 190.391 37.5619 190.122C37.5619 189.6 34.3778 177.349 22.2138 178.393C15.2984 178.989 10.4975 178.095 7.93532 175.759C7.37544 175.28 6.9207 174.691 6.59964 174.028C6.27859 173.365 6.09816 172.643 6.06967 171.907C6.05939 171.086 6.22245 170.273 6.5482 169.519C6.87395 168.765 7.35508 168.089 7.9602 167.534C10.4477 165.049 15.4228 164.179 22.8854 164.626C38.8305 165.645 39.9997 188.78 40.0494 189.774C40.0704 190.082 39.9706 190.387 39.771 190.623C39.5714 190.86 39.2878 191.01 38.9798 191.041L38.7559 191.066ZM23.6814 175.833C26.1293 175.803 28.5491 176.357 30.7387 177.451C32.9283 178.544 34.8243 180.145 36.2684 182.12C34.6266 175.734 30.945 167.633 22.6615 167.211C14.378 166.788 11.0696 168.13 9.6766 169.447C9.32391 169.758 9.04163 170.14 8.8486 170.569C8.65558 170.997 8.55624 171.462 8.55721 171.932C8.58322 172.321 8.68944 172.701 8.86922 173.047C9.049 173.394 9.29846 173.699 9.60197 173.945C11.0199 175.237 14.2785 176.604 22.0397 175.933L23.6814 175.833Z" fill="#04014D"/>
<path d="M41.7409 173.945C41.7409 173.945 25.2983 162.564 31.7908 160.178C38.2832 157.793 42.8105 167.857 41.7409 173.945Z" fill="#04014D"/>
<path d="M41.7409 175.138C41.4836 175.136 41.2324 175.059 41.0195 174.914C38.0843 172.876 28.5819 165.869 29.0545 161.545C29.1554 160.955 29.4252 160.406 29.8312 159.965C30.2373 159.524 30.7623 159.21 31.343 159.06C32.4968 158.62 33.7505 158.511 34.9633 158.743C36.1761 158.976 37.3 159.542 38.2086 160.377C40.032 162.15 41.4121 164.327 42.2375 166.731C43.0628 169.136 43.3103 171.701 42.9598 174.218C42.9195 174.424 42.8307 174.616 42.7009 174.78C42.5712 174.945 42.4041 175.076 42.2136 175.162C42.0557 175.178 41.8963 175.17 41.7409 175.138ZM33.7062 160.998C33.1942 161.002 32.6875 161.103 32.2137 161.297C31.542 161.52 31.5172 161.769 31.5172 161.868C31.2933 163.608 35.7957 167.981 40.6464 171.584C40.5631 168.045 39.1203 164.672 36.6166 162.166C35.8168 161.443 34.7846 161.029 33.7062 160.998Z" fill="#04014D"/>
<path d="M47.4871 245.734C47.4871 245.734 50.2233 234.204 55.8949 237.037C61.5665 239.87 47.4871 245.734 47.4871 245.734Z" fill="#04014D"/>
<path d="M47.4871 246.977C47.2995 246.975 47.1148 246.93 46.9468 246.847C46.7788 246.764 46.6319 246.643 46.517 246.495C46.4022 246.347 46.3223 246.175 46.2836 245.991C46.2448 245.808 46.248 245.618 46.2931 245.436C46.4672 244.641 48.2334 237.633 52.1637 235.795C52.8266 235.459 53.5595 235.283 54.303 235.283C55.0464 235.283 55.7793 235.459 56.4422 235.795C57.0329 235.999 57.5459 236.381 57.911 236.889C58.2761 237.396 58.4756 238.003 58.482 238.627C58.3576 242.156 50.3975 245.734 47.9846 246.753C47.8383 246.865 47.668 246.942 47.4871 246.977ZM54.1288 237.832C53.8122 237.839 53.4998 237.907 53.2084 238.031C51.3924 239.396 50.0872 241.329 49.502 243.523C53.1338 241.734 55.9696 239.696 55.9945 238.752C55.9945 238.752 55.8203 238.454 55.3228 238.23C54.9655 237.997 54.5544 237.86 54.1288 237.832Z" fill="#04014D"/>
<path d="M61.6909 238.752C61.1801 238.763 60.6723 238.67 60.1984 238.479C58.1586 237.684 56.7905 235.373 56.0194 231.397C54.7507 224.986 51.6662 225.483 51.5169 225.508C51.2601 225.548 50.997 225.511 50.7618 225.4C50.5266 225.289 50.3303 225.11 50.1985 224.886C50.0717 224.666 50.0156 224.412 50.0378 224.159C50.0601 223.905 50.1596 223.665 50.3229 223.47C51.3144 222.305 52.5346 221.355 53.908 220.68C55.2814 220.005 56.7789 219.618 58.3079 219.544C59.553 219.698 60.742 220.152 61.7731 220.866C62.8042 221.58 63.6467 222.533 64.2282 223.644C68.7307 230.651 68.9297 234.702 64.9247 237.609C63.9982 238.328 62.864 238.729 61.6909 238.752ZM53.9796 223.644C54.189 223.741 54.3889 223.857 54.5766 223.992C55.6631 224.849 56.5664 225.915 57.233 227.127C57.8995 228.34 58.3158 229.673 58.4571 231.049C59.2283 235.025 60.4472 236.019 61.0939 236.292C61.5252 236.412 61.9798 236.42 62.415 236.315C62.8501 236.211 63.2516 235.998 63.5815 235.696C65.074 234.627 67.3377 232.987 62.2631 225.085C61.8792 224.312 61.3151 223.642 60.6182 223.132C59.9212 222.621 59.1119 222.286 58.2581 222.153C56.699 222.12 55.1802 222.65 53.9796 223.644Z" fill="#04014D"/>
<path d="M51.9398 208.112C51.6161 208.106 51.307 207.977 51.0757 207.75C50.8445 207.524 50.7087 207.218 50.696 206.895L49.5518 154.885C49.5515 154.558 49.6783 154.242 49.9056 154.006C50.1328 153.77 50.4429 153.631 50.7706 153.618C50.9349 153.611 51.0987 153.638 51.2524 153.696C51.4061 153.754 51.5464 153.843 51.6649 153.956C51.7834 154.07 51.8776 154.207 51.942 154.358C52.0063 154.509 52.0394 154.671 52.0393 154.836L53.1836 206.845C53.1869 207.008 53.1579 207.17 53.0985 207.322C53.039 207.474 52.9501 207.613 52.8369 207.731C52.7237 207.849 52.5884 207.943 52.4388 208.008C52.2891 208.074 52.128 208.109 51.9647 208.112H51.9398Z" fill="#04014D"/>
<path d="M50.6463 159.408C45.8453 150.835 26.94 159.036 24.6018 155.606C19.8754 148.798 30.5719 148.723 33.7808 148.847C38.6886 149.109 43.4899 150.378 47.8851 152.575C44.714 149.174 40.629 146.758 36.1191 145.617C32.9101 144.747 22.2884 143.505 22.0147 138.982C21.2933 128.769 45.2732 142.511 48.3329 145.841C46.7408 141.765 36.2683 122.681 44.7259 119.575C51.691 117.214 48.4821 138.262 51.2433 141.442C53.5816 137.491 56.2184 129.738 59.5517 126.21C66.6909 118.432 73.0839 120.892 67.9844 126.756C63.4571 132 56.3427 139.181 54.8751 147.282C58.8054 144.474 61.5666 141.094 65.7954 139.181C68.2829 137.864 79.7753 133.714 79.6261 139.181C79.1783 145.89 59.1039 146.884 55.1736 151.879C58.6561 153.594 64.1785 150.512 68.5565 151.208C72.7854 151.481 79.7505 154.96 73.059 158.191C66.666 160.85 55.895 152.6 50.6712 159.483" fill="#04014D"/>
<path d="M39.3529 231.869C34.0047 228.216 25.2237 238.553 22.8854 237.261C18.0844 234.627 24.3779 231.446 26.2933 230.576C29.2698 229.289 32.4776 228.621 35.7211 228.613C32.8502 227.549 29.735 227.325 26.7411 227.967C24.5769 228.39 17.9601 230.775 16.4427 228.191C13.0347 222.376 31.2186 223.445 34.0047 224.513C31.8654 222.575 20.0993 214.4 24.0545 210.076C27.4873 206.622 31.7659 220.015 34.3281 221.059C34.5519 218.052 33.9052 212.66 34.7758 209.653C36.6912 202.969 41.1937 202.546 39.9001 207.491C38.7559 211.915 36.6912 218.276 38.1837 223.445C39.3014 220.672 40.6755 218.01 42.2882 215.493C43.3578 213.977 48.9299 208.038 50.4224 211.393C52.1388 215.493 40.4723 221.954 39.726 226.054C42.2135 226.054 44.7011 222.6 47.4374 221.73C50.1737 220.86 55.1239 220.662 52.1388 224.538C49.1289 227.992 40.3728 226.278 39.2782 231.993" fill="#04014D"/>
<path d="M52.2383 203.367C51.2682 196.956 37.7111 197.602 37.0643 194.993C35.7211 189.7 42.3379 192.11 44.2782 192.93C47.2813 194.228 49.9893 196.122 52.2383 198.496C51.0563 195.667 49.0883 193.236 46.5667 191.489C44.8006 190.222 38.532 186.991 39.4026 184.034C41.318 177.548 52.9597 191.489 54.0542 194.347C54.0542 191.464 51.9896 177.275 57.9099 177.3C62.885 177.474 55.9199 189.725 56.8651 192.209C59.3527 190.321 62.7357 186.171 65.5218 184.755C71.7406 181.624 75.1237 184.606 70.6212 187.041C66.5914 189.228 60.5218 192.011 57.7607 196.682C60.553 195.584 63.4431 194.752 66.3924 194.197C68.2083 193.974 76.3426 194.197 74.9247 197.353C73.1088 201.404 60.4721 197.353 56.89 199.54C58.6562 201.404 62.7855 200.782 65.3228 202.224C67.8601 203.665 71.3675 207.194 66.467 207.591C61.5666 207.989 57.2134 200.335 52.2383 203.367Z" fill="#04014D"/>
<path d="M48.5319 335.913C27.0893 335.913 14.776 326.346 14.776 309.647V299.533C14.7826 297.888 15.4399 296.312 16.6047 295.148C17.7695 293.984 19.3475 293.328 20.9948 293.321H76.0689C77.7162 293.328 79.2942 293.984 80.4591 295.148C81.6239 296.312 82.2812 297.888 82.2878 299.533V309.647C82.2878 326.346 69.9744 335.913 48.5319 335.913ZM20.9948 295.707C20.0052 295.707 19.0562 296.099 18.3564 296.798C17.6567 297.497 17.2635 298.446 17.2635 299.434V309.548C17.2635 318.444 21.3182 333.329 48.5319 333.329C75.7455 333.329 79.8002 318.419 79.8002 309.548V299.434C79.8002 298.446 79.4071 297.497 78.7073 296.798C78.0076 296.099 77.0585 295.707 76.0689 295.707H20.9948Z" fill="#04014D"/>
<path d="M485.294 337.95H1.64184C1.31197 337.95 0.995615 337.819 0.762363 337.586C0.529111 337.353 0.398071 337.037 0.398071 336.708C0.398071 336.378 0.529111 336.062 0.762363 335.829C0.995615 335.596 1.31197 335.465 1.64184 335.465H485.294C485.624 335.465 485.94 335.596 486.173 335.829C486.406 336.062 486.537 336.378 486.537 336.708C486.537 337.037 486.406 337.353 486.173 337.586C485.94 337.819 485.624 337.95 485.294 337.95Z" fill="#04014D"/>
</g>
<defs>
<clipPath id="clip0">
<rect width="494" height="338" fill="white"/>
</clipPath>
</defs>
</svg>
