<svg width="150" height="181" viewBox="0 0 150 181" fill="none" xmlns="http://www.w3.org/2000/svg">
<path fill-rule="evenodd" clip-rule="evenodd" d="M30.6371 0.299419C29.9671 0.419118 29.5476 0.615303 28.5804 1.26135C27.5983 1.91741 26.9275 2.28132 26.2042 2.55062C25.2832 2.89353 24.4739 3.93042 24.5906 4.61799C24.6618 5.03674 24.9628 5.53254 25.2208 5.65577C25.4073 5.74476 25.4798 5.74203 25.6893 5.63796C25.9049 5.53093 25.9313 5.53037 25.8914 5.63372C25.8662 5.69906 25.7128 6.35641 25.5507 7.09457C25.3684 7.92365 25.2074 8.47524 25.1293 8.53754C24.9524 8.67881 24.9828 9.77871 25.1854 10.5613C25.271 10.892 25.3448 11.0743 25.3494 10.9665L25.3578 10.7704L25.6196 11.0176C26.1411 11.51 26.788 11.6622 27.2813 11.4083C27.5861 11.2514 28.0432 10.734 28.3413 10.2083C28.5592 9.82401 28.6261 9.76597 28.905 9.71906C29.2687 9.65797 29.6655 9.72788 29.9287 9.89953C30.0747 9.9947 30.1113 10.0928 30.1117 10.3901C30.1123 10.9632 30.2547 11.3476 30.6072 11.7282C31.4024 12.5866 32.3776 12.6882 33.1368 11.9919C33.5727 11.592 33.8174 10.9861 33.8408 10.2486L33.8575 9.71947L33.3148 9.44824C32.5894 9.08577 31.8897 9.02757 31.1061 9.26464C30.8026 9.35644 30.4843 9.48263 30.3987 9.545C30.2627 9.6441 30.2016 9.63977 29.9153 9.51037C29.7101 9.41761 29.3983 9.36157 29.0815 9.36044C28.6081 9.35876 28.5601 9.3412 28.3354 9.08649C27.935 8.6327 27.4539 8.45512 26.4828 8.40252L25.634 8.35651L25.702 8.01577C25.7549 7.75111 25.8061 7.67503 25.9312 7.67503C26.1938 7.67503 27.6652 7.99476 28.1613 8.15968L28.6207 8.31241L28.3176 8.04447C27.9206 7.69363 27.2504 7.48966 26.467 7.48133C25.9677 7.47595 25.8413 7.4503 25.8412 7.35433C25.841 7.28819 25.8807 6.83721 25.9294 6.35216C25.9934 5.71509 26.07 5.3701 26.2053 5.10946C26.3085 4.91103 26.4704 4.54207 26.5652 4.28952C26.8735 3.46838 27.3453 3.3134 28.2179 3.7465C28.5062 3.88961 28.8284 3.98654 29.0162 3.9867C29.2858 3.98694 29.3786 3.93579 29.6608 3.63113C30.2078 3.04049 30.5705 2.97603 31.2665 3.34563C31.5156 3.47792 31.8049 3.58615 31.9094 3.58615C32.0139 3.58615 32.4729 3.4044 32.9295 3.18216C33.3861 2.95999 33.9147 2.75707 34.1042 2.73118C34.4018 2.69061 34.4774 2.7125 34.6568 2.89104C34.8384 3.07176 34.8646 3.16484 34.8646 3.63025C34.8646 4.26346 35.0112 4.51914 35.556 4.83695C36.0587 5.13006 36.1482 5.28488 36.1007 5.77923C36.0724 6.07355 36.109 6.32754 36.2282 6.66539C36.4032 7.16095 36.4274 7.52526 36.3441 8.40301L36.294 8.93063L35.3175 9.23096C34.7804 9.39612 34.2503 9.58461 34.1395 9.64979C33.9495 9.76163 33.9632 9.76556 34.3812 9.72018C34.6249 9.69381 35.1289 9.60097 35.5011 9.51406C35.8733 9.42715 36.1945 9.37255 36.2148 9.39284C36.2761 9.45385 35.9859 11.4398 35.8214 12.0846C35.6816 12.6324 35.6269 12.7251 35.2054 13.1269C34.9509 13.3694 34.5337 13.8253 34.2783 14.14C33.7698 14.7665 33.5109 14.8907 32.7136 14.8907C32.1067 14.8907 31.8182 14.7689 31.3298 14.3069C30.5113 13.5321 29.5993 13.0857 28.9622 13.1479C28.7142 13.172 28.335 13.139 28.0427 13.0678C27.3694 12.9036 26.9079 12.9802 26.443 13.3333C26.0264 13.6498 25.7828 13.6429 25.5176 13.3075C25.3795 13.1328 25.3574 12.9784 25.3546 12.174C25.3513 11.2544 25.3496 11.2457 25.2136 11.4833C25.096 11.6885 25.0765 11.9534 25.0807 13.2872C25.085 14.6578 25.1122 14.9791 25.3014 15.8929C25.5429 17.0594 26.021 18.7706 26.2285 19.2112C26.3893 19.5525 26.9799 19.8756 27.7014 20.0169C28.1424 20.1032 28.1589 20.1158 28.2106 20.4047C28.24 20.5689 28.2855 21.1002 28.3117 21.5852L28.3593 22.4671L27.6843 22.7001C26.4388 23.1302 24.5616 23.9618 24.6017 24.0658C24.6266 24.1303 24.423 24.2266 24.0118 24.3452C22.4449 24.7971 19.8894 25.9695 18.5096 26.8696C15.8469 28.6065 13.795 30.7936 10.671 35.2245C8.11424 38.8508 7.6331 40.0172 7.96245 41.7902C8.20552 43.0984 11.9219 52.1507 13.48 55.2297C13.7118 55.6877 13.7917 55.7794 13.9587 55.7794C14.0689 55.7794 14.1583 55.8065 14.1574 55.8396C14.1566 55.8726 14.0658 56.2424 13.9559 56.6614C13.6392 57.8672 13.3582 59.7074 13.255 61.2509C13.0235 64.713 13.6753 67.9963 14.9793 69.9365C15.1935 70.2552 15.4953 70.6265 15.6501 70.7617C15.8667 70.951 15.9315 71.0696 15.9315 71.2768C15.9315 71.425 15.8219 72.77 15.6878 74.2658C14.186 91.0238 13.2511 108.854 12.941 126.653C12.8512 131.812 12.9 146.219 13.0211 150.259L13.0714 151.936L13.9174 152.289C18.0256 154.001 22.8551 154.749 27.2914 154.361C28.1111 154.289 29.0067 154.208 29.2816 154.181L29.7814 154.132L29.7354 154.683C29.6772 155.381 29.8254 157.462 30.0374 158.923C30.2082 160.101 30.4252 161.163 30.4832 161.105C30.5394 161.049 30.3653 158.91 30.1072 156.487C29.9738 155.235 29.8859 154.19 29.9118 154.164C29.9377 154.139 30.8542 154.019 31.9484 153.898C33.8442 153.689 36.4354 153.335 37.0399 153.203L37.3219 153.142L37.3026 151.984C37.292 151.347 37.1561 148.381 37.0005 145.394C36.8449 142.407 36.5914 137.5 36.437 134.49C36.2827 131.481 36.1422 128.865 36.1247 128.678C36.1072 128.49 36.1165 128.337 36.1451 128.337C36.1739 128.337 36.6265 130.908 37.1509 134.049C39.2496 146.622 40.3099 152.789 40.385 152.859C40.558 153.022 44.9311 153.709 47.3121 153.948C49.7438 154.192 51.0703 154.258 53.5157 154.259C56.2278 154.26 57.9138 154.138 59.9729 153.791C61.2729 153.572 63.1137 153.129 63.2848 152.993C63.2961 152.984 63.2677 152.781 63.2217 152.542C63.144 152.139 62.4207 148.03 60.654 137.958C59.7108 132.58 56.8621 115.656 56.1399 111.14C55.8297 109.199 55.3224 106.024 55.0125 104.084C52.8037 90.2525 50.8488 76.2603 50.1398 69.2086C49.8024 65.8522 49.4788 61.1128 49.5792 60.9974C49.6184 60.9524 49.54 60.8418 50.7146 62.5973C54.422 68.1379 58.0271 74.404 60.7454 80.0321C62.0358 82.704 62.6431 84.1648 64.0283 87.9292C65.7482 92.6033 68.7661 98.2057 72.8385 104.285C76.2663 109.401 79.8332 114.127 84.2467 119.398C91.4751 128.03 98.7957 135.071 100.543 135.071C100.785 135.072 100.829 135.032 101.167 134.51C101.828 133.491 104.137 131.076 105.964 129.493C109.837 126.14 113.957 123.473 118.009 121.697C122.275 119.828 126.36 119.184 130.094 119.793C133.156 120.292 135.584 119.959 138.118 118.691C140.815 117.342 143.119 115.275 145.483 112.083C146.868 110.214 148.631 107.145 149.553 105L149.824 104.371L149.526 104.319C146.974 103.874 143.866 102.592 140.507 100.599C134.385 96.966 128.183 91.7064 120.462 83.5998C115.615 78.5105 108.884 70.2839 103.308 62.6343C100.919 59.3572 98.1464 55.7968 95.9403 53.1738C85.0162 40.185 73.1066 30.6434 61.029 25.204C58.1401 23.9031 55.104 22.8002 52.4852 22.1007C51.8113 21.9207 50.8248 21.6332 50.2931 21.4621C49.1047 21.0796 48.5475 20.9522 47.3094 20.7801C46.2623 20.6345 43.8822 20.5907 42.8036 20.697C42.2201 20.7545 42.1721 20.7487 42.2697 20.6315C42.3646 20.5177 42.3456 20.503 42.1053 20.5038C41.9559 20.5042 40.9091 20.5764 39.7792 20.664C38.6492 20.7517 37.6496 20.8234 37.5579 20.8235C37.3536 20.8236 36.7247 20.2369 36.4284 19.7699C36.1891 19.3926 35.8262 18.4476 35.6764 17.8117C35.5826 17.413 35.5859 17.3978 35.8595 16.9932C36.4254 16.1564 36.5918 15.3208 36.7175 12.6859C36.8239 10.4535 37.0352 9.76003 37.8354 9.01522C38.2995 8.58316 38.584 8.44935 38.8944 8.51718C39.0989 8.56183 39.1182 8.53794 39.283 8.03854C39.5473 7.2372 39.6986 6.22396 39.6986 5.25473C39.6986 3.96995 39.6185 3.73447 38.9596 3.08137C38.3632 2.49033 38.2118 2.25751 38.1254 1.79883C38.0591 1.44719 37.8353 1.13996 37.5364 0.990036C37.4184 0.930868 36.9593 0.861197 36.5162 0.83522C36.0731 0.809244 35.3321 0.714719 34.8696 0.625165C34.4071 0.53553 33.8995 0.481974 33.7417 0.506027C33.5839 0.530079 33.1946 0.4944 32.8767 0.426733C32.12 0.265744 31.138 0.209944 30.6371 0.299419ZM31.1001 8.32243C30.1895 8.43869 30.2541 8.53185 31.2879 8.59286C32.2059 8.64706 33.1001 8.74415 33.6158 8.84565C33.8484 8.89143 33.8514 8.88838 33.6964 8.76564C33.4764 8.59142 32.5838 8.33622 32.0448 8.29349C31.8011 8.27417 31.3759 8.28716 31.1001 8.32243ZM39.1741 8.83755C39.3442 9.17661 39.3249 9.41408 39.0858 9.9199C38.9712 10.1624 38.7511 10.7216 38.5969 11.1626C38.4426 11.6036 38.2299 12.1127 38.1243 12.2941C37.8477 12.7692 37.4109 13.1257 37.0975 13.1323C36.8642 13.1372 36.8552 13.1458 37.0069 13.219C37.2873 13.3544 37.7889 13.1686 38.116 12.8082C38.5053 12.3796 38.7516 11.8726 39.1343 10.7127C39.5175 9.55166 39.5435 9.1435 39.2552 8.822L39.0534 8.59703L39.1741 8.83755ZM27.8553 12.0184C27.8553 12.417 28.3688 12.8062 28.8947 12.8062C29.2408 12.8062 29.2068 12.708 28.7908 12.5068C28.5963 12.4128 28.3063 12.2215 28.1463 12.0816C27.8576 11.8295 27.8553 11.829 27.8553 12.0184ZM35.4169 18.238C35.6604 19.3019 36.3788 20.3667 37.0748 20.6954C37.2329 20.77 37.3622 20.8471 37.3622 20.8665C37.3622 20.886 37.0767 21.0448 36.7276 21.2194C35.8877 21.6397 34.6769 22.3356 33.7532 22.9292L33.0043 23.4103L32.4239 23.2432C31.684 23.0302 30.4327 22.7698 29.3257 22.5985C28.7537 22.51 28.4623 22.4309 28.4676 22.3656C28.4721 22.3112 28.4811 21.783 28.4878 21.1919L28.4999 20.1171L29.2166 20.1095C30.9342 20.0911 33.0721 19.4131 34.4215 18.4586C34.6874 18.2705 34.9739 18.0402 35.0584 17.9468C35.1428 17.8534 35.2343 17.777 35.2617 17.777C35.289 17.777 35.3589 17.9844 35.4169 18.238ZM46.7884 21.025C49.7661 21.4759 51.9133 22.4059 53.3939 23.8861C55.3878 25.8796 58.7374 30.4004 63.6159 37.6825C65.8402 41.0026 66.1257 41.4936 66.3297 42.3503C66.7028 43.9167 66.2352 45.2232 64.7548 46.751C62.834 48.7333 56.7871 53.717 51.7517 57.4676L50.9545 58.0614L50.5182 57.5818C49.957 56.9649 49.1136 55.7137 48.8136 55.0531C48.3639 54.0625 48.3044 53.2236 48.6442 52.6674C48.8181 52.3829 51.5096 49.2554 55.0301 45.2472L57.2742 42.6924L57.0804 42.4812C56.9739 42.3651 56.5091 41.8372 56.0476 41.308C54.9953 40.1014 53.1522 38.042 50.4654 35.0706C48.4296 32.819 48.3713 32.7629 48.1268 32.8135C47.1711 33.0113 46.3988 33.9791 45.9482 35.5437C45.1127 38.4444 44.7099 42.1938 44.9283 45.0361C45.0609 46.7608 45.4218 49.2076 45.771 50.7485C45.8839 51.2464 45.8514 51.3056 45.6126 51.0367C45.2963 50.6808 44.1586 49.9052 43.4519 49.564C42.5327 49.1202 41.8282 48.9371 41.2109 48.9815C40.6543 49.0216 40.4253 49.2001 40.3516 49.6518C40.3047 49.9389 40.2838 49.9556 39.8132 50.0838C38.9528 50.3182 38.4901 50.7088 38.4901 51.2009C38.4901 51.6235 38.751 51.7398 39.8419 51.8033C41.484 51.8989 41.7999 52.0199 42.8004 52.9371L43.2838 53.3803L42.8004 53.146C41.9515 52.7343 41.2639 52.5638 40.2575 52.5152C39.7451 52.4904 39.1148 52.4963 38.8568 52.5284C38.0469 52.6291 37.7969 53.0901 38.2745 53.6023C38.5366 53.8833 38.7966 53.9905 39.3763 54.0564C40.0437 54.1323 40.4049 54.2756 39.7792 54.2162C36.5537 53.9102 34.4635 53.7653 32.2865 53.6971C29.6978 53.6159 28.6897 53.6308 21.1026 53.8623C19.4934 53.9114 18.1539 53.9289 18.1261 53.9011C18.0515 53.8269 18.3918 50.5398 18.6703 48.644C18.9813 46.5274 19.2607 45.0886 20.0403 41.5886C20.9127 37.6723 21.4216 34.9696 22.1686 30.2841C22.3268 29.2919 22.4737 28.381 22.4951 28.2597C22.5164 28.1384 22.5031 28.0392 22.4654 28.0392C22.3083 28.0392 20.7351 34.9438 20.0813 38.5019C19.968 39.1193 19.8584 39.7009 19.8379 39.7945C19.8133 39.9075 19.5744 40.0911 19.1266 40.3411C17.9281 41.0105 17.5374 41.4444 17.1805 42.5023C16.8743 43.4101 16.8076 44.114 16.9427 45.0099C17.105 46.0862 17.4958 47.7343 17.8594 48.8766L18.1735 49.8634L17.9404 51.2137C17.8121 51.9563 17.6635 52.981 17.6101 53.4906C17.5207 54.3441 17.5241 54.4252 17.653 54.519C17.7808 54.612 17.7847 54.6852 17.6976 55.3605C17.6422 55.7907 17.5646 56.1017 17.5121 56.1041C17.4626 56.1061 16.6353 55.9529 15.6738 55.7633L13.9257 55.4187L13.7113 54.8174C12.5631 51.595 11.4368 48.7778 9.77664 44.9753C8.97533 43.1401 8.41499 41.7478 8.35448 41.4417C8.22743 40.799 8.29898 39.8283 8.51594 39.2512C8.73549 38.6671 9.725 36.9902 10.4889 35.9075C12.8208 32.6027 16.3638 29.0087 19.1151 27.1573C20.3999 26.2927 23.2865 24.8144 24.5118 24.3934L24.9147 24.255L25.8476 24.8178C26.9648 25.4915 29.7196 26.9217 30.0303 26.9891C30.1832 27.0223 30.5633 27.3868 31.2665 28.1745L32.282 29.312L31.0428 31.9492C28.6401 37.0628 27.1423 40.588 26.2832 43.152C25.88 44.3551 25.5995 45.4567 25.5995 45.8369C25.5995 45.9568 27.0974 48.1641 27.8221 49.1122C27.8336 49.1272 28.3806 48.8065 29.0375 48.3997C29.6945 47.9929 30.6127 47.4242 31.078 47.136C31.5433 46.8478 31.9679 46.5731 32.0215 46.5256C32.1272 46.4319 32.2709 44.649 32.497 40.6265C32.6633 37.668 32.6954 31.3348 32.5486 30.4444C32.494 30.1137 32.4305 29.7169 32.4072 29.5625L32.3649 29.2819L34.6756 27.5582C35.9465 26.6101 37.0531 25.8373 37.1348 25.8409C37.3099 25.8485 39.4283 23.7765 40.9867 22.0733C41.7265 21.2648 42.1135 20.9014 42.2632 20.8746C42.7188 20.7927 45.968 20.9008 46.7884 21.025ZM39.6383 21.0912L40.8269 21.1843L39.8101 22.3068C39.2509 22.9241 38.4282 23.8734 37.9819 24.4162C37.2669 25.2859 37.1474 25.3975 36.9768 25.3548C36.4316 25.2187 33.7327 23.858 33.7392 23.7225C33.7406 23.6935 34.221 23.3523 34.8067 22.9645C35.3925 22.5765 36.2498 21.9582 36.7119 21.5904L37.5522 20.9215L38.001 20.9598C38.2478 20.9808 38.9847 21.04 39.6383 21.0912ZM29.2307 22.9019C29.6928 23.0749 30.6147 23.3713 31.2794 23.5606C31.9441 23.7499 32.5022 23.9142 32.5195 23.9257C32.6115 23.9861 30.8999 25.8351 30.3324 26.2884L30.0299 26.53L29.4462 26.1464C29.1251 25.9355 28.2162 25.3734 27.4264 24.8975L25.9904 24.0321L26.2779 23.8633C26.4361 23.7704 26.9554 23.4479 27.432 23.1465C27.9085 22.8452 28.3192 22.5961 28.3445 22.593C28.3698 22.59 28.7686 22.7289 29.2307 22.9019ZM19.3836 42.7712C18.8622 46.1392 18.3305 49.125 18.2522 49.125C18.2165 49.125 18.1874 49.0387 18.1874 48.9332C18.1874 48.5801 17.8623 47.0945 17.4493 45.5605C17.1085 44.2944 17.0471 43.9638 17.082 43.581C17.1685 42.6323 17.78 41.7397 18.9455 40.8611C19.3483 40.5574 19.6975 40.3083 19.7216 40.3075C19.7457 40.3066 19.5936 41.4152 19.3836 42.7712ZM41.7933 49.3698C42.8552 49.6056 44.6186 50.4875 45.6944 51.3206C45.9567 51.5238 46.1881 51.6733 46.2087 51.6528C46.2293 51.6324 46.1833 51.3168 46.1066 50.9515C46.0299 50.5863 45.9797 50.1793 45.9951 50.047C46.0196 49.8366 46.0524 49.8086 46.2569 49.8232C46.3855 49.8325 46.5955 49.9398 46.7234 50.0618C47.3007 50.6122 48.0983 52.5517 48.1846 53.6147C48.2792 54.7816 48.8303 55.926 50.0242 57.4344C50.2385 57.7052 50.4139 57.9647 50.4139 58.0111C50.4139 58.0574 50.2107 58.3137 49.9624 58.5807C49.6387 58.9286 49.3383 59.151 48.9022 59.3655C48.3413 59.6413 48.2286 59.6672 47.4636 59.6954L46.6337 59.7259L45.9255 59.3484C44.8798 58.7909 43.2857 57.7161 42.613 57.1154C41.8804 56.4609 41.4094 56.272 40.2877 56.1827C39.3864 56.111 39.0187 55.9464 38.9244 55.5727C38.8665 55.3432 38.9825 55.179 39.328 55.0012C39.7766 54.7704 42.2033 55.0105 42.8653 55.3511C43.2614 55.555 43.1935 55.4122 42.7047 55.0135C41.8406 54.3085 40.2361 53.6976 39.2387 53.6937C38.8617 53.6923 38.5965 53.5621 38.3805 53.2728L38.2151 53.051L38.395 52.8719C38.5502 52.7174 38.677 52.6891 39.318 52.6659C39.9135 52.6444 40.2225 52.6798 40.8731 52.8442C41.7314 53.0611 43.2111 53.5524 43.5849 53.7449C43.7073 53.8079 43.8075 53.8266 43.8075 53.7866C43.8075 53.6587 42.7344 52.4737 42.2978 52.1195C41.7153 51.6469 41.4024 51.5738 40.0391 51.5916C38.9898 51.6052 38.8751 51.5927 38.7299 51.4481C38.5062 51.2256 38.5305 51.0731 38.8382 50.767C39.2017 50.4051 39.8792 50.2108 40.5238 50.2834C41.7936 50.4263 43.4047 51.0909 44.182 51.7923C44.5916 52.1619 44.6203 52.1767 44.4235 51.9169C43.92 51.2523 42.534 50.4605 41.2092 50.0809C40.5267 49.8854 40.4648 49.7984 40.7826 49.4822C40.9987 49.2671 41.2202 49.2425 41.7933 49.3698ZM27.0791 54.743C27.2043 54.841 27.2914 54.989 27.2914 55.1038C27.2914 55.3395 27.0291 55.6191 26.808 55.6191C26.5905 55.6191 26.3246 55.3409 26.3246 55.1133C26.3246 54.8455 26.5349 54.6192 26.8172 54.5832C26.8445 54.5797 26.9623 54.6516 27.0791 54.743ZM20.0294 56.04C19.9383 56.4563 19.4096 57.5785 19.0794 58.0561C18.7132 58.5856 18.0451 59.2865 17.6458 59.5599C17.45 59.6939 17.2757 59.7896 17.2584 59.7724C17.1481 59.6626 19.892 55.6993 20.0784 55.6993C20.0924 55.6993 20.0703 55.8526 20.0294 56.04ZM15.7166 55.9807C16.4182 56.0905 17.1162 56.1803 17.2675 56.1803C17.5247 56.1803 17.5428 56.1975 17.5412 56.4409C17.5403 56.5841 17.5056 56.936 17.464 57.2226C17.2665 58.5823 16.0121 70.2498 16.0121 70.7266C16.0121 71.2067 15.4125 70.1812 15.0332 69.0522C14.685 68.0159 14.4628 66.9888 14.2694 65.5206C14.0314 63.7146 14.0963 55.778 14.349 55.7802C14.3996 55.7807 15.0151 55.8709 15.7166 55.9807ZM26.8797 59.267C26.8885 62.1934 26.7761 64.0481 26.4307 66.6716C26.3418 67.3469 26.2774 67.6216 26.2285 67.5346C26.1891 67.4645 26.1571 66.2791 26.1574 64.9004C26.1581 62.1965 26.3079 59.5899 26.5684 57.7492C26.6559 57.1313 26.731 56.5886 26.7355 56.5433C26.7399 56.498 26.7725 56.5511 26.808 56.6614C26.8434 56.7716 26.8757 57.9441 26.8797 59.267ZM38.7323 57.9842C39.3779 59.6414 40.6026 61.1142 42.1552 62.1002C42.7555 62.4814 43.9233 63.0207 44.8951 63.3653C45.8512 63.7043 45.8575 63.7082 45.4591 63.7117C44.9249 63.7163 43.5082 63.3883 42.7824 63.0917C40.4401 62.1348 38.7373 60.0519 38.4156 57.7503C38.288 56.838 38.2848 56.8356 38.7323 57.9842ZM14.6281 62.2735C14.5434 63.6568 14.5177 64.6463 14.5594 64.929C14.7107 65.9565 15.3118 66.698 16.0583 66.7781C16.2605 66.7998 16.2941 66.7759 16.2941 66.611C16.2941 66.4588 16.2274 66.3956 15.9742 66.3085C15.5504 66.1625 15.2587 65.8721 15.0321 65.3708C14.8544 64.9778 14.8442 64.8496 14.8047 62.5141L14.7633 60.0687L14.6281 62.2735ZM48.0059 67.2042C49.9996 76.7138 50.6315 79.3158 51.2352 80.5015C51.3218 80.6715 51.3527 80.786 51.304 80.756C51.1766 80.6777 50.601 79.5137 50.2778 78.6808C49.1491 75.7726 47.9461 70.7648 47.1503 65.6618C46.8985 64.0475 46.5442 61.1302 46.554 60.7515C46.5641 60.3636 46.6777 60.8686 48.0059 67.2042ZM24.1896 71.2552C25.2894 71.4677 27.5274 72.2644 29.084 72.9977C29.9663 73.4133 30.2747 73.6329 29.8494 73.5426C29.7497 73.5215 29.4506 73.4628 29.1847 73.4122C27.9882 73.1844 25.8308 72.4212 24.5781 71.7823C23.9007 71.437 23.3279 71.0716 23.545 71.1234C23.6337 71.1446 23.9237 71.2038 24.1896 71.2552ZM28.3794 75.6645C29.5658 82.1791 32.1786 98.9269 33.7325 109.977C34.474 115.25 35.8391 125.614 35.8234 125.852C35.791 126.345 34.0191 115.615 32.3677 104.926C31.2 97.3672 29.175 83.0677 28.4622 77.3463C28.3056 76.0895 28.1553 74.917 28.1281 74.7406C28.1009 74.5642 28.0987 74.4388 28.1234 74.4619C28.148 74.4851 28.2632 75.0263 28.3794 75.6645ZM27.0397 79.7118C26.9646 84.5085 26.9989 92.4136 27.208 118.435C27.3002 129.916 27.3844 152.058 27.3354 151.948C27.255 151.768 26.8903 138.094 26.7283 129.179C26.3973 110.975 26.3974 91.0842 26.7284 81.5554C26.8481 78.1073 27.0328 74.657 27.0942 74.7181C27.107 74.7309 27.0825 76.978 27.0397 79.7118ZM99.667 102.633C104.026 106.428 110.608 110.688 122.581 117.463C124.276 118.423 125.663 119.221 125.663 119.238C125.663 119.363 120.525 116.949 118.331 115.794C113.481 113.24 109.335 110.726 105.763 108.176C103.455 106.528 101.278 104.698 99.5948 102.99C97.8953 101.266 96.864 100.01 98.1948 101.285C98.613 101.686 99.2755 102.292 99.667 102.633ZM35.8848 126.353C35.8624 126.408 35.8441 126.363 35.8441 126.252C35.8441 126.142 35.8624 126.097 35.8848 126.152C35.9071 126.207 35.9071 126.298 35.8848 126.353ZM58.6389 154.514C58.6243 155.556 59.0714 158.524 59.5597 160.627C59.5871 160.745 59.5643 160.807 59.4939 160.807C59.1668 160.807 58.5043 161.098 58.0177 161.454C57.3506 161.942 56.1929 162.518 55.5299 162.691C55.264 162.761 54.7746 162.818 54.4423 162.818C53.1077 162.818 52.0605 162.165 51.0815 160.721C50.8556 160.388 50.593 160.064 50.4978 160C50.3253 159.886 50.3252 159.883 50.4574 159.164C50.7306 157.677 50.6963 155.503 50.3881 154.769C50.3108 154.585 50.2931 154.846 50.2931 156.172C50.2931 157.068 50.2428 158.261 50.1813 158.823L50.0696 159.845H49.4127C48.347 159.845 47.3411 160.178 46.665 160.754C46.4891 160.904 46.2001 161.275 46.0229 161.578C45.0823 163.189 42.3388 165.284 39.1421 166.831C36.412 168.152 34.727 169.234 33.326 170.566C32.4848 171.366 31.96 172.061 31.5243 172.954C30.7763 174.486 30.817 175.594 31.6815 177.231C33.0426 179.809 35.849 181.012 39.757 180.694C41.0669 180.587 41.3749 180.492 40.4381 180.484C38.3867 180.467 37.3591 179.749 35.6291 177.123C34.4288 175.301 34.1956 175.014 33.7595 174.822C33.4608 174.69 33.365 174.681 33.1223 174.761C32.7288 174.89 32.3318 175.257 31.9144 175.876C31.7203 176.164 31.5614 176.345 31.5614 176.278C31.5614 176.064 32.0966 175.036 32.3692 174.727C32.7207 174.329 33.0017 174.196 33.495 174.196C34.4099 174.196 34.9019 174.659 36.6029 177.121C38.1873 179.413 39.0984 179.914 41.6725 179.908C43.5646 179.904 44.3789 179.791 45.257 179.412C46.6657 178.804 48.0827 177.906 49.568 176.681C51.7101 174.913 53.2259 174.123 57.3426 172.631C60.1768 171.604 61.6392 170.897 62.3675 170.204C63.4581 169.166 63.4629 167.391 62.3786 166.1C61.8284 165.444 61.55 164.738 61.2474 163.229C61.1386 162.686 60.9726 162.064 60.8784 161.846C60.7238 161.489 60.3358 161.061 59.9729 160.847C59.8688 160.786 59.7878 160.454 59.6312 159.444C59.4357 158.184 58.7398 154.362 58.6751 154.193C58.6582 154.149 58.6419 154.293 58.6389 154.514ZM21.4314 155.295C21.4985 155.932 21.4565 158.086 21.3576 159.084C21.2902 159.763 21.4438 159.569 21.6114 158.763C21.8807 157.468 21.8581 155.963 21.554 154.935C21.4081 154.441 21.3572 154.591 21.4314 155.295ZM18.8599 159.208C17.918 159.373 17.1229 159.8 16.6839 160.377C16.2294 160.975 15.4764 161.721 14.8912 162.154C13.4063 163.254 11.1591 164.418 9.26835 165.067C5.24535 166.447 2.29178 168.332 0.963727 170.366C0.182313 171.563 0.00691809 172.488 0.32725 173.721C0.948014 176.11 2.50174 177.705 4.9607 178.477C6.00863 178.806 6.91235 178.933 8.43884 178.968C9.55758 178.993 9.74893 178.983 9.36535 178.92C7.78319 178.661 7.05624 178.35 6.3118 177.615C5.67195 176.983 5.38231 176.535 4.43823 174.72C3.58793 173.086 3.19968 172.567 2.72031 172.424C2.45026 172.343 2.36437 172.354 2.04992 172.505C1.71033 172.669 1.12888 173.215 0.720169 173.756L0.538176 173.996L0.665468 173.676C0.95317 172.954 1.64193 172.128 2.09947 171.956C2.22418 171.91 2.499 171.871 2.71009 171.871C3.46685 171.871 4.10557 172.498 5.02951 174.148C5.2791 174.593 5.66163 175.274 5.87957 175.66C7.07928 177.784 8.23186 178.348 11.6615 178.488L12.9908 178.543L13.7965 178.286C15.4686 177.754 17.0061 176.992 18.6929 175.86C20.874 174.397 22.4456 173.781 26.7274 172.71C28.8709 172.173 29.9651 171.823 30.9696 171.353C31.8486 170.941 32.3643 170.493 32.6676 169.878C32.8662 169.476 32.8907 169.338 32.8907 168.624C32.8907 167.758 32.8512 167.643 32.0927 166.31C31.7559 165.719 31.5818 165.006 31.4849 163.822C31.3848 162.6 31.2151 162.014 30.8398 161.593C30.5634 161.283 30.5098 161.258 30.0426 161.225C29.4599 161.183 29.1382 161.285 28.2233 161.804C27.4604 162.237 26.277 162.633 25.5495 162.699C23.9298 162.846 22.5747 162.019 21.7121 160.357C21.5041 159.956 21.2845 159.587 21.2241 159.537C20.8747 159.249 19.622 159.074 18.8599 159.208ZM16.1868 162.607C18.0664 163.3 19.7993 164.976 19.7983 166.099L19.7981 166.38L19.6505 166.139C19.4163 165.756 18.4541 164.914 17.4137 164.18C16.3037 163.397 14.8842 162.329 14.8842 162.278C14.8842 162.201 15.5256 162.363 16.1868 162.607ZM45.73 163.583C46.4499 163.741 47.3733 164.123 48.0494 164.541C48.9986 165.129 49.843 166.16 49.8482 166.738C49.8498 166.921 49.8185 166.905 49.427 166.528C48.8936 166.014 48.397 165.686 46.587 164.655C44.9418 163.717 44.6156 163.516 44.6141 163.438C44.613 163.373 45.0157 163.426 45.73 163.583ZM13.2612 164.383C14.4361 164.823 15.4554 165.719 15.9656 166.76C16.2485 167.338 16.4513 168.023 16.3393 168.023C16.3071 168.023 16.1581 167.87 16.0081 167.682C15.2353 166.716 14.1444 165.742 12.7613 164.782C12.3357 164.487 11.963 164.206 11.9332 164.158C11.8463 164.018 12.6512 164.155 13.2612 164.383ZM9.37252 165.695C10.6558 166.274 11.9516 167.434 12.4569 168.455C12.7227 168.993 12.9486 169.98 12.8308 170.089C12.796 170.121 12.7531 170.108 12.7356 170.06C12.7181 170.012 12.5173 169.687 12.2893 169.338C11.991 168.882 11.4096 168.249 10.2172 167.082C9.20446 166.09 8.6152 165.459 8.70245 165.458C8.781 165.458 9.08248 165.565 9.37252 165.695ZM43.2955 165.705C44.7744 166.152 46.1116 167.321 46.5098 168.514C46.5835 168.735 46.6229 168.936 46.5974 168.961C46.572 168.987 46.2314 168.705 45.8407 168.335C45.0252 167.563 44.1146 166.921 42.6796 166.108L41.6725 165.538H42.2078C42.5202 165.538 42.9731 165.607 43.2955 165.705ZM57.0888 166.354C56.535 166.99 55.3398 168.052 54.3463 168.79C53.2006 169.642 51.5079 170.662 51.4072 170.562C51.3331 170.488 53.0394 168.798 53.8157 168.177C55.0073 167.223 57.1209 165.858 57.4069 165.858C57.4693 165.858 57.327 166.08 57.0888 166.354ZM26.9288 166.548C25.6126 167.766 22.5171 169.631 21.0878 170.067L20.8863 170.129L21.0475 169.946C21.6379 169.275 23.6351 167.837 25.0174 167.087C25.8753 166.621 27.21 166.018 27.3719 166.023C27.4384 166.025 27.239 166.261 26.9288 166.548ZM39.523 167.417C41.4915 168.083 43.1286 169.66 43.2907 171.047L43.3355 171.43L43.0738 171.11C42.5098 170.419 41.5288 169.53 40.1216 168.435C39.3129 167.805 38.6512 167.275 38.6512 167.256C38.6512 167.173 38.9865 167.235 39.523 167.417Z" fill="#04014D"/>
</svg>
