<svg viewBox="0 0 199 24" fill="none" xmlns="http://www.w3.org/2000/svg">
<path d="M0 11.8462C0 18.5425 4.6555 23.2299 11.2561 23.2299C16.5812 23.2299 20.599 20.2644 21.8745 15.4176H15.8797C14.955 17.3308 13.265 18.2874 11.1923 18.2874C7.8442 18.2874 5.54834 15.8002 5.54834 11.8462C5.54834 7.89222 7.8442 5.40504 11.1923 5.40504C13.265 5.40504 14.955 6.36165 15.8797 8.27487H21.8745C20.599 3.42804 16.5812 0.430664 11.2561 0.430664C4.6555 0.430664 0 5.14994 0 11.8462Z" fill="#04014D"/>
<path d="M37.9176 0C35.1158 3.34115e-08 32.4033 0.986198 30.2558 2.78572C28.1082 4.58523 26.6626 7.08324 26.1723 9.84184C25.682 12.6004 26.1783 15.4436 27.5742 17.8729C28.9702 20.3023 31.1767 22.1627 33.8069 23.1282C36.4371 24.0937 39.3233 24.1025 41.9594 23.1532C44.5955 22.2039 46.8134 20.3571 48.2242 17.9364C49.6351 15.5157 50.1489 12.6756 49.6755 9.91405C49.2022 7.15249 47.7719 4.64565 45.6355 2.83297L42.7814 6.19676C44.1279 7.33912 45.0292 8.91895 45.3275 10.6593C45.6258 12.3997 45.302 14.1895 44.4129 15.715C43.5238 17.2406 42.1261 18.4045 40.4648 19.0027C38.8035 19.601 36.9846 19.5954 35.327 18.987C33.6694 18.3785 32.2789 17.206 31.3991 15.6751C30.5194 14.1441 30.2066 12.3523 30.5156 10.6138C30.8246 8.87531 31.7356 7.30105 33.089 6.16698C34.4424 5.03291 36.1518 4.4114 37.9176 4.4114L37.9176 0Z" fill="url(#paint0_angular)"/>
<circle cx="38.1196" cy="11.7274" r="3.63948" fill="#FF7350"/>
<path d="M70.4717 16.3985C70.4717 12.0432 66.7338 10.8117 63.6031 9.78029C61.3474 9.03712 59.4069 8.39781 59.4069 6.76866C59.4069 5.36563 60.3954 4.69601 61.7028 4.72789C63.1696 4.75978 64.19 5.62073 64.2856 7.05564H70.1847C69.9615 2.78279 66.6771 0.359375 61.7984 0.359375C57.1111 0.359375 53.6354 2.71901 53.6354 6.95998C53.5983 11.5718 57.3588 12.7518 60.5178 13.7431C62.7975 14.4584 64.7639 15.0755 64.7639 16.8131C64.7639 18.1204 63.7435 18.9176 62.1492 18.9176C60.6186 18.9176 59.5345 18.0885 59.375 16.3666H53.5716C53.731 20.8946 57.4937 23.2861 62.3086 23.2861C67.5381 23.2861 70.4717 20.1612 70.4717 16.3985Z" fill="#04014D"/>
<path d="M73.8273 23.0629H79.28V9.6066L84.3181 23.0629H88.7185L93.7248 9.63849V23.0629H99.1775V0.678245H92.7682L86.5502 16.1753L80.2685 0.678245H73.8273V23.0629Z" fill="#04014D"/>
<path d="M124.144 23.0629H118.372L117.08 19.2485L115.626 14.8998H115.63L115.329 14.0113L115.237 13.7344L115.236 13.7344L112.856 6.70489L110.271 14.4312L108.68 19.1089H108.679L108.426 19.8551L108.342 20.1016L107.34 23.0629H101.632L109.731 0.678245H116.045L124.144 23.0629Z" fill="#04014D"/>
<path d="M141.181 0.678245V14.5491L132.062 0.678245H126.609V23.0629H132.062V9.25585L141.181 23.0629H146.634V0.678245H141.181Z" fill="#04014D"/>
<path d="M156.039 23.0629H150.587V0.678245H156.039V23.0629Z" fill="#04014D"/>
<path d="M158.779 5.04676H164.71V23.0629H170.163V5.04676H176.094V0.678245H158.779V5.04676Z" fill="#04014D"/>
<path d="M184.825 23.0629V15.6651L177.076 0.678245H183.262L187.599 10.053L191.904 0.678245H198.026L190.278 15.6651V23.0629H184.825Z" fill="#04014D"/>
<defs>
<radialGradient id="paint0_angular" cx="0" cy="0" r="1" gradientUnits="userSpaceOnUse" gradientTransform="translate(37.9176 11.9294) rotate(-90) scale(11.997)">
<stop stop-color="#FF7350"/>
<stop offset="1" stop-color="#FF7350"/>
</radialGradient>
</defs>
</svg>
