<svg width="199" height="24" viewBox="0 0 199 24" fill="none" xmlns="http://www.w3.org/2000/svg">
<path d="M0 11.8457C0 18.542 4.6555 23.2294 11.2561 23.2294C16.5812 23.2294 20.599 20.2639 21.8745 15.4171H15.8797C14.955 17.3303 13.265 18.2869 11.1923 18.2869C7.8442 18.2869 5.54834 15.7997 5.54834 11.8457C5.54834 7.89173 7.8442 5.40455 11.1923 5.40455C13.265 5.40455 14.955 6.36116 15.8797 8.27438H21.8745C20.599 3.42755 16.5812 0.430176 11.2561 0.430176C4.6555 0.430176 0 5.14945 0 11.8457Z" fill="#04014D"/>
<path d="M37.9178 0C35.1159 3.34115e-08 32.4035 0.986198 30.2559 2.78572C28.1084 4.58523 26.6627 7.08324 26.1724 9.84184C25.6821 12.6004 26.1785 15.4436 27.5744 17.8729C28.9704 20.3022 31.1768 22.1627 33.8071 23.1282C36.4373 24.0937 39.3235 24.1025 41.9596 23.1532C44.5957 22.2039 46.8136 20.3571 48.2244 17.9364C49.6353 15.5157 50.149 12.6756 49.6757 9.91405C49.2024 7.15249 47.7721 4.64565 45.6356 2.83297L42.7816 6.19676C44.128 7.33912 45.0294 8.91895 45.3277 10.6593C45.626 12.3997 45.3022 14.1895 44.4131 15.715C43.524 17.2406 42.1262 18.4045 40.4649 19.0027C38.8036 19.601 36.9848 19.5954 35.3272 18.987C33.6696 18.3785 32.279 17.206 31.3993 15.6751C30.5196 14.1441 30.2068 12.3523 30.5158 10.6138C30.8248 8.87531 31.7358 7.30105 33.0892 6.16698C34.4426 5.03291 36.152 4.4114 37.9178 4.4114V0Z" fill="url(#paint0_angular)"/>
<circle cx="38.1197" cy="11.7269" r="3.63948" fill="#FF7350"/>
<path d="M70.4716 16.3985C70.4716 12.0432 66.7338 10.8117 63.6031 9.78029C61.3474 9.03712 59.4069 8.39781 59.4069 6.76866C59.4069 5.36563 60.3953 4.69601 61.7027 4.72789C63.1695 4.75978 64.1899 5.62073 64.2856 7.05564H70.1847C69.9614 2.78279 66.6771 0.359375 61.7984 0.359375C57.111 0.359375 53.6353 2.71901 53.6353 6.95998C53.5983 11.5718 57.3587 12.7518 60.5177 13.7431C62.7974 14.4584 64.7639 15.0755 64.7639 16.8131C64.7639 18.1204 63.7435 18.9176 62.1491 18.9176C60.6186 18.9176 59.5344 18.0885 59.375 16.3666H53.5715C53.731 20.8946 57.4936 23.2861 62.3086 23.2861C67.538 23.2861 70.4716 20.1612 70.4716 16.3985Z" fill="#04014D"/>
<path d="M73.8272 23.0629H79.2799V9.6066L84.3181 23.0629H88.7185L93.7247 9.63849V23.0629H99.1774V0.678245H92.7681L86.5502 16.1753L80.2684 0.678245H73.8272V23.0629Z" fill="#04014D"/>
<path d="M124.144 23.0629H118.372L117.08 19.2485L115.626 14.8998H115.63L115.329 14.0113L115.237 13.7344L115.236 13.7344L112.856 6.70489L110.27 14.4312L108.68 19.1089H108.679L108.426 19.8551L108.342 20.1016L107.339 23.0629H101.632L109.731 0.678245H116.045L124.144 23.0629Z" fill="#04014D"/>
<path d="M141.181 0.678245V14.5491L132.062 0.678245H126.609V23.0629H132.062V9.25585L141.181 23.0629H146.634V0.678245H141.181Z" fill="#04014D"/>
<path d="M156.039 23.0629H150.586V0.678245H156.039V23.0629Z" fill="#04014D"/>
<path d="M158.779 5.04676H164.71V23.0629H170.163V5.04676H176.094V0.678245H158.779V5.04676Z" fill="#04014D"/>
<path d="M184.825 23.0629V15.6651L177.076 0.678245H183.262L187.599 10.053L191.904 0.678245H198.026L190.278 15.6651V23.0629H184.825Z" fill="#04014D"/>
<defs>
<radialGradient id="paint0_angular" cx="0" cy="0" r="1" gradientUnits="userSpaceOnUse" gradientTransform="translate(37.9178 11.9294) rotate(-90) scale(11.997)">
<stop stop-color="#FF7350"/>
<stop offset="1" stop-color="#FF7350"/>
</radialGradient>
</defs>
</svg>
